<svg xmlns="http://www.w3.org/2000/svg" viewBox="0 0 718.85 411.13"><title>Asset 2</title><g id="Layer_2" data-name="Layer 2"><g id="Layer_1-2" data-name="Layer 1"><g id="p-plant-2"><path d="M685.61,132.46A14.64,14.64,0,0,1,689.28,143a26.46,26.46,0,0,1-3.36,10.81c-3.56,6.5-10.27,11.74-16.67,15.52-3.67-7.34-1.36-16.57,0-21.19C671.56,140.75,680.05,128.9,685.61,132.46Z" style="fill:#ebebeb"/><path d="M671.25,183.23c.62-4.2,4-7.76,8-9.23a16.36,16.36,0,0,1,12.38,1.05,6.86,6.86,0,0,1,4,4.19,5.4,5.4,0,0,1-1.89,4.93,10.89,10.89,0,0,1-5,2.1C682.36,187.32,676.17,187.21,671.25,183.23Z" style="fill:#ebebeb"/><path d="M655.3,201.06a6.44,6.44,0,0,1,.74-1.26c.63-1,1.36-2.1,2.2-3.46a43.42,43.42,0,0,1,8.81-10.49,26.18,26.18,0,0,1,12.48-5.67,20.52,20.52,0,0,1,4.2-.1,3.15,3.15,0,0,1,1.15.21,1.13,1.13,0,0,1,.42.1,30,30,0,0,0-5.66.21,27.93,27.93,0,0,0-12.17,5.67c-4.2,3.35-6.82,7.44-8.91,10.28a33.23,33.23,0,0,1-2.42,3.35C655.72,200.64,655.41,201.06,655.3,201.06Z" style="fill:#e0e0e0"/><path d="M679.84,142a1.63,1.63,0,0,1-.21.63c-.21.42-.31,1.05-.63,1.78-.52,1.57-1.36,3.78-2.41,6.5-2.1,5.56-5,13.11-8.5,21.4s-6.71,15.73-9.22,21.08c-1.27,2.73-2.21,4.82-2.94,6.29-.32.74-.63,1.26-.84,1.68l-.32.63a3.28,3.28,0,0,0,.22-.63c.2-.42.41-1.05.73-1.78.73-1.57,1.68-3.78,2.83-6.4,2.41-5.35,5.56-12.9,9-21.19s6.5-15.83,8.6-21.29c1.05-2.72,1.89-4.93,2.52-6.5.31-.73.52-1.26.73-1.78A1.2,1.2,0,0,0,679.84,142Z" style="fill:#e0e0e0"/><path d="M662.79,166.14A52.74,52.74,0,0,0,649.67,120c-3-3-7.14-6-11.17-4.34-4,1.47-5,6.54-5.11,10.8C633.5,144.12,645.6,161,662,167.13" style="fill:#ebebeb"/><path d="M646.73,132.71a13.76,13.76,0,0,1,2,1.88,12.06,12.06,0,0,1,2,2.26c.81,1,1.61,2.09,2.42,3.23.81,1.33,1.81,2.66,2.64,4.18a32.75,32.75,0,0,1,2.66,5.16,56.84,56.84,0,0,1,3.84,12.48A61.11,61.11,0,0,1,663,175a26.36,26.36,0,0,1-.81,5.64c-.34,1.75-.68,3.31-1,4.87s-.89,2.74-1.25,3.91a22,22,0,0,1-1.27,2.94c-.73,1.57-1.09,2.36-1.29,2.36s1.45-3.52,3-9.38c.34-1.56.69-3.12,1-4.87a51,51,0,0,0,.62-5.63,60.17,60.17,0,0,0-.76-13,57.93,57.93,0,0,0-3.83-12.28c-.83-1.72-1.65-3.64-2.48-5.16s-1.62-2.86-2.44-4.19C649.33,135.54,646.74,132.9,646.73,132.71Z" style="fill:#e0e0e0"/></g><g id="p-leaf-1"><path d="M33.88,67s-9.64,3.15-.31,23.81,16,31,16,31,1.57,4.83-2.41,5.35S34.62,126,32.63,130.68c-2.1,4.93,1.36,9.86,8.49,14.37S63.67,159.94,65,160.89s2.63,3.14,0,4S42.7,166.76,43.85,176.1,67,194.66,69.44,195.71s2.94,2.1,2.62,3.46-6.92,1.05-12.48,1.68-12,2.2-10.9,7.44,13.84,17,46,21.61l15,1.15,8.82-12.37c17.2-27.59,16.57-44.89,13.21-49.09s-8.7-.42-12.69,3.46-8.18,9.13-9.34,8.5-1.67-1.78-.94-4.3,8-25.28,1.57-32.2S90.42,152.5,88.11,154s-3.25-.95-3-2.63,2.2-20.13,3.35-28.52-.31-14.16-5.35-15.74S74,113.27,71,116s-5.55-1.68-5.55-1.68S61.89,102.57,52.13,82,33.57,67,33.57,67" style="fill:#ebebeb"/><path d="M110.45,234.62c-7.13-15.11-19.2-42.16-29.79-65.34S60.52,125.12,53.5,110c-3.46-7.55-6.4-13.63-8.29-17.93-.94-2.1-1.78-3.78-2.31-4.83A7.39,7.39,0,0,0,42.28,86a1.2,1.2,0,0,0-.22-.42,1.2,1.2,0,0,1,.22.42,6.45,6.45,0,0,0,.62,1.26c.53,1.15,1.37,2.73,2.31,4.83,2,4.19,4.93,10.27,8.5,17.83C60.84,125,70.38,146,81,169.07s22.65,50.23,29.68,65.34" style="fill:#e0e0e0"/><path d="M44.58,133.72s.43.11,1.05.32,1.58.63,2.73,1.15c2.31.95,5.45,2.41,8.91,4s6.51,3.14,8.82,4.19c1,.53,2,.95,2.72,1.26s1,.52,1,.52-.42-.1-1.05-.31-1.58-.63-2.73-1.15c-2.31-.95-5.46-2.42-8.91-4.09s-6.51-3-8.82-4.2c-1-.52-2-.94-2.72-1.26A4.45,4.45,0,0,1,44.58,133.72Z" style="fill:#e0e0e0"/><path d="M77.19,129.61c3.38-8.12,6-14.75,5.93-14.79s-2.94,6.51-6.32,14.63-6,14.75-5.94,14.8S73.8,137.74,77.19,129.61Z" style="fill:#e0e0e0"/><path d="M85.49,180.6l.63-.94c.52-.63,1.15-1.47,1.89-2.31,1.57-2,3.77-4.72,6.08-7.86s4.3-6.09,5.76-8.18c.64-.95,1.27-1.79,1.68-2.52s.63-.94.63-.84a2.65,2.65,0,0,1-.52.94c-.32.63-1,1.47-1.57,2.63-1.37,2.2-3.36,5.14-5.67,8.28s-4.61,5.87-6.18,7.87c-.84.94-1.58,1.78-2,2.31A7.17,7.17,0,0,0,85.49,180.6Z" style="fill:#e0e0e0"/><path d="M59.58,176.2a7.42,7.42,0,0,1,1.05.1c.73.11,1.68.21,2.73.32,2.3.31,5.56.84,9.12,1.36s6.82,1.05,9.12,1.47c1.06.21,2,.32,2.73.53s1,.2,1,.2a7.42,7.42,0,0,1-1-.1c-.73-.1-1.67-.21-2.73-.31-2.3-.32-5.55-.84-9.12-1.37s-6.82-1.05-9.12-1.47c-1-.21-2-.31-2.73-.52S59.58,176.3,59.58,176.2Z" style="fill:#e0e0e0"/><path d="M68.39,209.87a12.84,12.84,0,0,1,1.37.1c.94.11,2.09.21,3.56.42,3,.42,7.13.94,11.75,1.57s8.7,1.26,11.74,1.79c1.47.21,2.63.42,3.57.63s1.26.21,1.26.31a12.76,12.76,0,0,1-1.36-.1c-1-.11-2.1-.21-3.57-.42-3-.42-7.13-.95-11.75-1.58s-8.7-1.26-11.74-1.78c-1.47-.21-2.62-.42-3.57-.63S68.39,210,68.39,209.87Z" style="fill:#e0e0e0"/><path d="M100.8,214.38a6.68,6.68,0,0,1,.84-1.16c.63-.84,1.36-1.78,2.31-3,1.88-2.62,4.61-6.19,7.44-10.28s5.35-7.76,7-10.49c.84-1.25,1.57-2.41,2.1-3.25s.84-1.15.84-1.15l-.63,1.26c-.42.84-1.16,1.89-2,3.25-1.68,2.73-4.09,6.5-6.92,10.59s-5.56,7.66-7.55,10.18c-1.05,1.25-1.78,2.3-2.41,2.93A11.76,11.76,0,0,0,100.8,214.38Z" style="fill:#e0e0e0"/></g><g id="p-leaf-2"><path d="M345.8,191.09c-26.85-13.53-37-44.36-40.17-73-.53-4.72-1.78-9.76-.1-14.16s6.5-8.08,11-6.71c3.77,1.15,5.87,5,8.39,8.18a28.06,28.06,0,0,0,12.69,9c3.25,1.15,7.13,1.57,9.85-.53,3.78-2.83,3.47-8.6,2.73-13.32-1.36-8.81-2.62-17.62-4-26.43-.74-4.72-1.47-9.54-.63-14.26s3.46-9.34,7.76-11.22,10.28-.11,11.85,4.4c.63,1.89.52,3.88.95,5.87s1.67,4,3.56,4.3,3.67-1.36,4.83-2.93c4.19-5.46,6.6-12.06,8.8-18.67s4.3-13.22,8-19.09,9.22-10.8,15.94-12.17,14.47,1.79,17.2,8.18-.21,13.74-3.67,19.72A108.26,108.26,0,0,1,401.91,62.4c-1.37,1.26-2.84,2.63-3.15,4.51-.52,3.26,2.83,6,6.09,6.61,3.67.63,7.44-.21,11.22-.31s8,.94,9.86,4.19c2.62,4.51-.63,10.18-4.2,14.06a90.93,90.93,0,0,1-24.54,19.29c-3.25,1.79-6.82,3.47-9.23,6.3s-3.56,7.34-1.36,10.38,6.71,3.57,10.17,2.31,6.5-3.67,9.75-5.46c6.19-3.35,14.58-4.19,19.51.84,3.25,3.25,4.3,8.39,3.46,13s-3,8.81-5.45,12.69c-8.6,13.74-20.56,25.48-34.82,32.83C375.27,191,361.53,194.45,345.8,191.09Z" style="fill:#f5f5f5"/><path d="M350.52,172.21c2.09-15,5.77-31.14,10.17-48,1.15-4.2,2.2-8.39,3.36-12.48s2.2-8.18,3.46-12.06a219.94,219.94,0,0,1,8.81-21.92c3.14-6.82,6.4-13.22,9.44-19.2s6.08-11.43,9-16.25a168,168,0,0,1,15.52-22c2-2.41,3.67-4.3,4.82-5.56.53-.62.95-1,1.26-1.36l.42-.42a2.22,2.22,0,0,1-.42.53c-.31.31-.73.84-1.26,1.46-1.05,1.26-2.62,3.15-4.61,5.67A167.65,167.65,0,0,0,395.3,42.69q-4.24,7.39-8.81,16.36c-3,6-6.19,12.38-9.33,19.19a199,199,0,0,0-8.71,21.92q-1.89,5.82-3.46,12c-1.05,4.09-2.2,8.28-3.35,12.48a450.52,450.52,0,0,0-10.29,47.93" style="fill:#e0e0e0"/><path d="M367.83,99.74c-.11,0-.32-.63-.74-2s-1-3.15-1.68-5.45c-1.36-4.62-3-11-4.82-18.15s-3.57-13.42-4.93-18c-.73-2.31-1.26-4.09-1.68-5.45s-.63-2-.52-2a9,9,0,0,1,.83,1.88c.53,1.26,1.16,3.05,2,5.35,1.57,4.51,3.35,10.91,5.24,18s3.36,13.32,4.51,18.15c.52,2.2,1,4,1.36,5.45S367.83,99.74,367.83,99.74Z" style="fill:#e0e0e0"/><path d="M426.87,79.61a8.76,8.76,0,0,1-2.41.63c-1.57.31-3.78.83-6.51,1.57-5.45,1.36-13,3.56-21.08,6.4s-15.41,5.66-20.66,7.86c-2.62,1.05-4.72,2-6.19,2.62s-2.3,1-2.3,1a9.18,9.18,0,0,1,2.1-1.26c1.36-.73,3.45-1.78,6.08-2.94a219.24,219.24,0,0,1,20.56-8.18,209.17,209.17,0,0,1,21.29-6.19c2.72-.63,5-1,6.6-1.36A11.12,11.12,0,0,1,426.87,79.61Z" style="fill:#e0e0e0"/><path d="M351.15,171.06a6.82,6.82,0,0,1-.53-.63c-.31-.52-.84-1.26-1.36-2.1-1.16-1.78-2.83-4.4-4.72-7.65-4-6.5-9.13-15.73-14.68-25.91s-10.6-19.5-14.37-26.11c-1.89-3.25-3.36-5.88-4.51-7.76-.53-.84-.84-1.58-1.26-2.1s-.42-.74-.42-.74a4,4,0,0,1,.52.74c.32.52.84,1.26,1.37,2,1.15,1.78,2.83,4.41,4.72,7.66,4,6.5,9.12,15.73,14.68,25.9s10.59,19.41,14.37,26c1.89,3.25,3.35,5.88,4.51,7.76.52.84.84,1.58,1.26,2.1A2.88,2.88,0,0,1,351.15,171.06Z" style="fill:#e0e0e0"/><path d="M428,133.3a2.33,2.33,0,0,1-.73.42,23.32,23.32,0,0,0-2.2,1.16c-2.1,1.05-4.83,2.41-8.29,4.09-6.92,3.46-16.46,8.28-27.06,13.63S369.6,162.67,362.58,166c-3.46,1.68-6.4,2.93-8.39,3.77-.94.42-1.68.74-2.31.95s-.84.31-.84.31a2.32,2.32,0,0,1,.74-.42,23,23,0,0,0,2.2-1.15c2.1-1.05,4.82-2.41,8.28-4.09,6.93-3.46,16.47-8.29,27.06-13.64s20.14-10.07,27.17-13.42c3.46-1.68,6.4-2.94,8.39-3.78.94-.42,1.68-.73,2.3-.94Z" style="fill:#e0e0e0"/></g><g id="p-road"><path d="M710.26,410.82c0,.1-157.32.31-351.25.31S7.67,411,7.67,410.82s157.21-.32,351.34-.32C552.94,410.5,710.26,410.61,710.26,410.82Z" style="fill:#263238"/></g><g id="p-mob"><path d="M305.63,410.82l-139.38-.63A30.36,30.36,0,0,1,136,379.67l1.47-349.46A30.35,30.35,0,0,1,168,0L307.41.63a30.35,30.35,0,0,1,30.21,30.52l-1.47,349.46A30.42,30.42,0,0,1,305.63,410.82Z" style="fill:#455a64"/><path d="M307.1,12.59,280,12.48a6.7,6.7,0,0,0-6.61,6.82v4.93A6.69,6.69,0,0,1,266.82,31l-52.64-.21a6.7,6.7,0,0,1-6.51-6.92V19a6.77,6.77,0,0,0-6.5-6.92h-9.54L168,12a21.29,21.29,0,0,0-21.39,21.18l-1.47,341.18a21.38,21.38,0,0,0,21.18,21.4l139.18.62a21.29,21.29,0,0,0,21.39-21.18L328.39,34A21.46,21.46,0,0,0,307.1,12.59Z" style="fill:#fafafa"/><path d="M146.52,74.15h22.76L189.63,94.5l-21.18,21.08L146.73,93.87Z" style="fill:#ebebeb"/><path d="M194.25,85.48,182.82,74.15h25.69Z" style="fill:#ebebeb"/><path d="M204.32,94.81l20-20h70s10.69,47.83-31.47,78.56Z" style="fill:#ebebeb"/><path d="M195.71,101.21l-21.39,21.5L233.57,182,255,159.84Z" style="fill:#ebebeb"/><path d="M146.21,134.77l13.42-14-13.11-13.11Z" style="fill:#ebebeb"/><path d="M167.71,129.11l-20.66,20.55V178.4l42.58,43.53,36.08-33.56Z" style="fill:#ebebeb"/><path d="M270.81,159.42S315,127,300.7,74.88h27.48l-.32,147.26Z" style="fill:#ebebeb"/><path d="M262.52,167.91l-21.39,22.24,65.55,65.55,20-21.29Z" style="fill:#ebebeb"/><path d="M232.22,196.23l-33.57,33.35,67.13,66.71,33.56-32.41Z" style="fill:#ebebeb"/><path d="M146.32,336.67c2.83-.32,76.14-68.91,76.14-68.91l-76.14-79Z" style="fill:#ebebeb"/><path d="M168,53.28a47.55,47.55,0,0,1-5.25-4.51v-.42l.11-.1.1-.11.22-.21a1.92,1.92,0,0,1,.52-.42,7.8,7.8,0,0,1,.94-.84c.53-.52,1.16-1.05,1.68-1.47A15.66,15.66,0,0,1,167.93,44a7.74,7.74,0,0,1-1.37,1.57L165,47.09l-.94.95c-.22.1-.32.31-.53.52l-.21.21-.1.1-.11.11v-.42A29.23,29.23,0,0,1,168,53.28Z" style="fill:#263238"/><path d="M311.93,46.46a1.15,1.15,0,1,0-1.16-1.15A1.15,1.15,0,0,0,311.93,46.46Z" style="fill:#263238"/><path d="M312.69,50a1.15,1.15,0,1,0-1.63,0A1.14,1.14,0,0,0,312.69,50Z" style="fill:#263238"/><path d="M311.93,54.33a1.16,1.16,0,1,0-1.16-1.15A1.16,1.16,0,0,0,311.93,54.33Z" style="fill:#263238"/><path d="M263.89,49.92H214.81V54h49.08Z" style="fill:#263238"/></g><path id="p-map-icon-mob" d="M258.54,123.34c0-19.09-20-31.25-40.59-21.61A23.86,23.86,0,0,0,207.15,112c-5.14,10-2.84,21.4,1.78,30.84l15.94,40.38a6.88,6.88,0,0,0,12.8-.11l15.62-40.59C258.75,130.26,258.54,123.34,258.54,123.34ZM239.34,140c-13.74,8-27.68-6.82-20.13-21.4a11,11,0,0,1,4.4-4.61c13.74-8,27.69,6.81,20.14,21.39A12.4,12.4,0,0,1,239.34,140Z" style="fill:#0acc86"/><g id="p-car"><path d="M214.6,363.31,266,310l48.77,49.81Z" style="fill:#ebebeb"/><path d="M274,303.21l53.49-53c0,2.31-.42,109.82-.42,109.82Z" style="fill:#ebebeb"/><path d="M228.23,273.42l30.31,30.31-59.89,61.88L171,332.37Z" style="fill:#ebebeb"/><path d="M145.17,352.29l17.72-15.62,24.44,28.94H145.17V354.49" style="fill:#ebebeb"/><path d="M675.75,269.23H93.88V354.6H675.75Z" style="fill:#00a86b"/><g style="opacity:0.5"><g style="opacity:0.5"><path d="M675.75,269.23H93.88V354.6H675.75Z" style="opacity:0.5;isolation:isolate"/></g></g><path d="M228.14,354.87a56.11,56.11,0,1,0-56.91,55.3A56.1,56.1,0,0,0,228.14,354.87Z" style="fill:#263238"/><path d="M115.9,353.13v.11a56.12,56.12,0,0,0,112.23,1.67v-.1Z" style="fill:#263238"/><path d="M211.47,354.63a39.43,39.43,0,1,0-40,38.86A39.43,39.43,0,0,0,211.47,354.63Z" style="fill:#fafafa"/><path d="M172.54,314.64a39.45,39.45,0,0,0-40,38.81l78.76,1.15A39.29,39.29,0,0,0,172.54,314.64Z" style="fill:#e0e0e0"/><path d="M196.05,354.41a24,24,0,1,0-24.36,23.66A24,24,0,0,0,196.05,354.41Z" style="fill:#263238"/><path d="M657.2,354.87a56.11,56.11,0,1,0-56.91,55.3A56.1,56.1,0,0,0,657.2,354.87Z" style="fill:#263238"/><path d="M545,353.13v.11a56.12,56.12,0,0,0,112.22,1.68v-.11Z" style="fill:#263238"/><path d="M640.53,354.63a39.43,39.43,0,1,0-40,38.86A39.42,39.42,0,0,0,640.53,354.63Z" style="fill:#fafafa"/><path d="M601.6,314.64a39.45,39.45,0,0,0-40,38.81l78.77,1.15A39.31,39.31,0,0,0,601.6,314.64Z" style="fill:#e0e0e0"/><path d="M625.11,354.41a24,24,0,1,0-24.36,23.66A24,24,0,0,0,625.11,354.41Z" style="fill:#263238"/><path d="M245.53,221.19s-82.64,6.09-113.26,13C110.66,239,69,247.41,69.55,273.53L72.8,292.3s-15.42,7-15.42,25.07-3.77,45.93,32.3,47c6,.22,17.2,0,17.2,0s-6.92-76.77,63.56-79c71.74-2.31,66.91,78.24,66.91,78.24H536.68S524.41,285.17,601.61,285,667.05,364,667.05,364s28.42,2.41,41.64-21.39,9.75-40.91,9.75-40.91l-.42-15.1a9.76,9.76,0,0,0-9.44-9.44s5.14-38-2.73-44.58-51.28-46.25-51.28-46.25l2.1-1.26a4.85,4.85,0,0,0-1-8.7c-16.47-5.66-49.09-16.89-56.74-19.51a13.33,13.33,0,0,0-3.57-.73c-4.61-.32-17.51-1.16-41.22-1.47-28.94-.32-143.79,0-143.79,0s-39.54,3.25-61.56,12.9C325.77,178,245.53,221.19,245.53,221.19Z" style="fill:#0acc86"/><g style="opacity:0.400000005960465"><g style="opacity:0.400000005960465"><g style="opacity:0.400000005960465"><path d="M78.46,315.27c-3-.63-7.55-.63-9.86,1.36-1.67,1.47-2.1,4-2.41,6.19a27.59,27.59,0,0,0,.21,9.34,11.38,11.38,0,0,0,5.24,7.44c2.73,1.47,6.51,1.26,8.6-1.05,2-2.09,2.2-5.24,2.1-8.07-.1-4.09.21-7.45-.52-11.43a5.2,5.2,0,0,0-1-2.31A3.23,3.23,0,0,0,78.46,315.27Z" style="opacity:0.400000005960465;isolation:isolate"/></g></g></g><path d="M72.9,292.3c8.81,0,17.31-.52,26-1.05a4.27,4.27,0,0,0,2.61-.84,4.17,4.17,0,0,0,1-3.14c0-4.72-.21-10.07-3.78-13.11-2.2-1.89-5.13-2.42-8.07-2.73a52.7,52.7,0,0,0-21.08,2.1Z" style="fill:#fafafa"/><path d="M255.08,361.31a4.52,4.52,0,0,0-.1-.73c0-.52-.11-1.26-.11-2.2-.11-2-.32-4.83-.42-8.5s-.42-8.18-.94-13.32a112.35,112.35,0,0,0-3-17.41,77.65,77.65,0,0,0-8.5-19.72,61,61,0,0,0-16.36-18.25c-14.16-10.06-33.25-15.73-53.28-16s-39.12,6.08-52.86,16.67a80,80,0,0,0-17.2,17.52A82.83,82.83,0,0,0,92.2,318.21,73.51,73.51,0,0,0,88,335.41a75.46,75.46,0,0,0-.53,13.32,70.5,70.5,0,0,0,1,8.39c.21.94.31,1.68.42,2.2a4.54,4.54,0,0,1,.1.74,4,4,0,0,1-.21-.74c-.1-.52-.21-1.26-.42-2.2a70.57,70.57,0,0,1-1.15-8.39,66.49,66.49,0,0,1,.42-13.43,76.27,76.27,0,0,1,4.2-17.3A83.77,83.77,0,0,1,102,298.91a75.82,75.82,0,0,1,17.21-17.62c13.84-10.7,33-17,53.17-16.78s39.33,6,53.59,16.15A63,63,0,0,1,242.39,299a77.76,77.76,0,0,1,8.39,19.83,100.65,100.65,0,0,1,3,17.51c.53,5.25.73,9.75.84,13.42s.32,6.51.32,8.5c0,1,.1,1.68.1,2.2Z" style="fill:#fff"/><path d="M258.23,362.57v-.63a13.48,13.48,0,0,0-.11-1.88c0-1.68-.1-4.1-.21-7.24-.21-6.4-.42-15.63-.73-27.48s-.74-26.22-1.16-42.69c-.1-4.09-.2-8.39-.31-12.79a49.35,49.35,0,0,1,.31-6.71c.21-1.16.32-2.21.53-3.36s.42-2.2.73-3.36A65.87,65.87,0,0,1,262,243a69.81,69.81,0,0,1,7.66-12.8c16-10.07,33.45-21.08,51.81-32.61,4.61-2.94,9.23-5.88,13.95-8.81a106.55,106.55,0,0,1,14.78-8.29,143.06,143.06,0,0,1,16.05-6.4c2.73-.94,5.56-1.78,8.39-2.62s5.67-1.57,8.61-2.1a193.42,193.42,0,0,1,33.45-4.19,299.55,299.55,0,0,1,32.3.1h.32l-.11.32c-4.93,22.23-9.65,43.1-13.95,62.3A67.85,67.85,0,0,0,429,241.33a37.44,37.44,0,0,0-2.1,13.84q.48,6.93.63,13.53c.11,4.41.21,8.6.21,12.69.21,16.47.32,30.84.32,42.69v27.48c0-6.4-.11-15.63-.21-27.48s-.21-26.22-.42-42.69c-.11-4.09-.21-8.39-.32-12.69s-.21-8.81-.62-13.42a38.36,38.36,0,0,1,2.09-14.06,71.46,71.46,0,0,1,6.3-13.52v.1c4.29-19.19,8.91-40.17,13.84-62.3l.21.32a302.12,302.12,0,0,0-32.3-.11,202.39,202.39,0,0,0-33.35,4.2c-2.94.63-5.78,1.36-8.61,2.09s-5.66,1.68-8.39,2.63A154.56,154.56,0,0,0,350.2,181a119.9,119.9,0,0,0-14.78,8.18c-4.72,2.94-9.44,5.88-14.06,8.81-18.45,11.65-35.86,22.55-51.91,32.62h.1a66.08,66.08,0,0,0-7.65,12.69,67.17,67.17,0,0,0-4.62,13.32c-2.3,9-1.15,17.83-1.15,26.12.42,16.46.73,30.83,1.05,42.68s.52,21.19.63,27.48c.1,3.15.1,5.56.1,7.24v1.89C258.23,362.36,258.23,362.57,258.23,362.57Z" style="fill:#263238"/><path d="M448.58,167h2c1.25,0,3.14-.1,5.55-.1,4.83-.11,11.86-.21,20.66-.42,17.52-.32,42-.74,69.64-1.16h.11l.11.11c3.14,3.77,6.39,7.86,9.75,11.95,9.86,12.17,19.3,23.71,27.9,34.19,1.05,1.37,2.1,2.63,3.14,3.88a21.54,21.54,0,0,1,4.72,13.32,23,23,0,0,1-1.68,8.6c-1.15,2.52-2.2,5-3.14,7.35-4.09,9.44-7.34,17-9.65,22.23-1.15,2.62-2,4.62-2.62,6.08-.32.63-.53,1.16-.74,1.58a1.07,1.07,0,0,0-.2.52,4.66,4.66,0,0,0,.2-.52c.11-.42.42-.95.64-1.58.62-1.36,1.46-3.46,2.51-6.08,2.2-5.24,5.45-12.9,9.44-22.34,1.78-4.72,5-9.75,4.72-15.84a20.84,20.84,0,0,0-2.1-8.91,26.63,26.63,0,0,0-2.51-4.09c-1.06-1.26-2.1-2.62-3.15-3.88-8.6-10.49-18-22-27.9-34.09q-5-6.14-9.75-12l.2.1c-27.68.42-52.12.74-69.64,1.05-8.7.1-15.73.21-20.66.21h-7A5.57,5.57,0,0,1,448.58,167Z" style="fill:#263238"/><path d="M413.45,259.58a4.6,4.6,0,0,0,.84-.11,6.35,6.35,0,0,0,2.2-.84,5.45,5.45,0,0,0,2.2-2.93,8.21,8.21,0,0,0,.31-2.31,5.46,5.46,0,0,0-5.45-5.45H390.27a5.21,5.21,0,0,0-3.67,1.47,5.72,5.72,0,0,0,1.57,9.54,7.94,7.94,0,0,0,3.46.42h9.65c3.78,0,6.71.1,8.92.1h2.41a6,6,0,0,0,.84.11,4.93,4.93,0,0,0-.84.1H410.2c-2.21,0-5.25,0-8.92.11H389.85a6.13,6.13,0,0,1-1.89-.42,6,6,0,0,1-2.94-2.62,6.52,6.52,0,0,1-.73-4,6,6,0,0,1,1.89-3.77,6.15,6.15,0,0,1,4.09-1.58h23.28a5.81,5.81,0,0,1,5.14,3.25,6,6,0,0,1,.63,2.63,8.61,8.61,0,0,1-.32,2.41,6,6,0,0,1-2.41,3,8.12,8.12,0,0,1-2.3.84A1.85,1.85,0,0,1,413.45,259.58Z" style="fill:#263238"/><path d="M568.67,259.58a4.5,4.5,0,0,0,.84-.11,6.28,6.28,0,0,0,2.2-.84,5.4,5.4,0,0,0,2.2-2.93,7.87,7.87,0,0,0,.32-2.31,5.48,5.48,0,0,0-5.45-5.45H545.49a5.23,5.23,0,0,0-3.67,1.47,6.12,6.12,0,0,0-1.78,3.46A5.54,5.54,0,0,0,543.4,259a7.92,7.92,0,0,0,3.46.42h9.64c3.78,0,6.72.1,8.92.1h2.41a4.6,4.6,0,0,0,.84.11,5,5,0,0,0-.84.1h-2.41c-2.2,0-5.24,0-8.92.11H545.07a6.07,6.07,0,0,1-1.88-.42,5.93,5.93,0,0,1-2.94-2.62,6.52,6.52,0,0,1-.73-4A5.94,5.94,0,0,1,541.4,249a6.17,6.17,0,0,1,4.09-1.58h23.29a5.79,5.79,0,0,1,5.13,3.25,5.92,5.92,0,0,1,.64,2.63,9,9,0,0,1-.32,2.41,6,6,0,0,1-2.41,3,8.16,8.16,0,0,1-2.31.84A1.64,1.64,0,0,1,568.67,259.58Z" style="fill:#263238"/><path d="M704.7,234.3h-31a11.39,11.39,0,0,0-10.49,16L675.34,278l31-.32S713,242.69,704.7,234.3Z" style="fill:#fafafa"/><path d="M273.54,230.32l160.15-2.94,104.25-1.89,34.4-19.82a5.27,5.27,0,0,0,1.57-7.87l-21.39-28.1a12,12,0,0,0-9.33-4.72L426.56,164s-43.95-2.51-78.45,16.78C311.61,201.27,273.54,230.32,273.54,230.32Z" style="fill:#263238"/><path d="M347,167s8.07,3.67,2.83,7-86.42,54.53-86.42,54.53L244.7,220C277.73,201.68,311.19,183.86,347,167Z" style="fill:#455a64"/><path d="M266,229.79a1.24,1.24,0,0,1-.53.11,11.13,11.13,0,0,1-1.47.31c-1.36.32-3.25.63-5.66,1.16-4.93.94-12.16,2.41-21,3.88-17.82,3-42.47,6.6-69.95,9-6.82.63-13.53,1-20,1.47s-12.69.83-18.67,1.36c-11.85,1.05-22.55,2.73-31.15,5.35a86.68,86.68,0,0,0-19.61,8.18,56.59,56.59,0,0,0-4.93,3c-.52.31-1,.63-1.26.84s-.42.21-.42.21a3.21,3.21,0,0,1,.42-.32c.31-.21.74-.52,1.26-.84,1.15-.73,2.73-1.88,4.93-3.14A81.32,81.32,0,0,1,97.55,252c8.7-2.62,19.3-4.41,31.26-5.46,6-.52,12.16-.94,18.67-1.36s13.21-.94,20-1.57c27.47-2.42,52.12-5.88,70-8.81,8.92-1.47,16-2.83,21.08-3.78,2.41-.42,4.41-.84,5.67-1.05a11.28,11.28,0,0,0,1.46-.31A.23.23,0,0,0,266,229.79Z" style="fill:#263238"/><path d="M693.27,301.85c13.15,0,23.8-.15,23.8-.32s-10.65-.31-23.8-.31-23.81.14-23.81.31S680.12,301.85,693.27,301.85Z" style="fill:#263238"/><path d="M521.79,328.8c0,.1-60.3.31-134.56.31s-134.56-.1-134.56-.31,60.31-.32,134.56-.32S521.79,328.69,521.79,328.8Z" style="fill:#263238"/><path d="M80.77,302.79c10.48,0,19-.14,19-.32s-8.5-.31-19-.31-19,.14-19,.31S70.28,302.79,80.77,302.79Z" style="fill:#263238"/><path d="M653.94,185.43s-7.13,8-4.3,13.84,31.88,26.43,31.88,26.43l21.09,4Z" style="fill:#455a64"/><path d="M453.41,171.06l-4.83,51.29,84.95-2.42L567.72,200,545.6,171.06Z" style="fill:#455a64"/><path d="M293.68,225s51.18-37,71.42-44.37c19.51-7.13,29.68-8.91,47.93-9.43,17.52-.53,28.21,0,28.21,0l-13.53,52Z" style="fill:#455a64"/><path d="M286.13,225.07a9.16,9.16,0,0,1,4.61-7.86l11.74-6.61a22.38,22.38,0,0,1,11-2.83,23,23,0,0,1,7,1.15,13,13,0,0,1-4.3,25.17h-21A9,9,0,0,1,286.13,225.07Z" style="fill:#0acc86"/><path d="M286.13,225.07a9.65,9.65,0,0,0,.1,1.16,7.85,7.85,0,0,0,1,3,9.61,9.61,0,0,0,3.56,3.56,8.75,8.75,0,0,0,3.05.95c1.15.1,2.3.1,3.56.1,5.14,0,11.22,0,17.93-.1a14.12,14.12,0,0,0,5-.84,13.25,13.25,0,0,0,4.41-2.83,15.12,15.12,0,0,0,3-4.51,12.55,12.55,0,0,0,.73-5.56,13.09,13.09,0,0,0-5.24-9.44,14.1,14.1,0,0,0-4.83-2.1,21.32,21.32,0,0,0-5-.63,22,22,0,0,0-9.23,2c-1.36.62-2.62,1.36-3.78,2s-2.41,1.36-3.46,2c-2.2,1.26-4.3,2.31-6,3.36a8.26,8.26,0,0,0-3.56,3.56,7.85,7.85,0,0,0-1.05,3,5.09,5.09,0,0,0-.31,1.26,3.13,3.13,0,0,1,0-1.15,10,10,0,0,1,.94-3.15,8.22,8.22,0,0,1,3.67-3.67c1.78-1,3.78-2.2,6-3.46,1.15-.63,2.31-1.26,3.46-2s2.41-1.47,3.88-2.1a22.69,22.69,0,0,1,9.44-2.1,23,23,0,0,1,5.24.63,15.13,15.13,0,0,1,5,2.1,13.05,13.05,0,0,1,5.56,9.75,13.07,13.07,0,0,1-4,10.49,14.34,14.34,0,0,1-4.62,2.94,14.56,14.56,0,0,1-5.13.84c-6.72,0-12.8,0-17.94-.11-1.26,0-2.52,0-3.67-.1a9.27,9.27,0,0,1-6.82-4.72,9.88,9.88,0,0,1-.94-3.15A7.42,7.42,0,0,1,286.13,225.07Z" style="fill:#263238"/><path d="M680.58,361.73V361c0-.53.1-1.26.1-2.1a29.4,29.4,0,0,0,.21-3.46c0-1.36.11-2.94.21-4.72v-5.87c-.1-2.2-.1-4.51-.42-7a85.26,85.26,0,0,0-3-16.89,80.32,80.32,0,0,0-3.35-9.44,70.32,70.32,0,0,0-5-9.54,64.59,64.59,0,0,0-16.36-17.1,82.4,82.4,0,0,0-23.49-11.64c-8.71-2.72-18.25-3.67-28-3.77a90.73,90.73,0,0,0-27.89,4.09,75.54,75.54,0,0,0-12.38,5.14,76.43,76.43,0,0,0-10.8,7,90.35,90.35,0,0,0-16.57,17,71.33,71.33,0,0,0-5.56,9.23,73.94,73.94,0,0,0-3.78,9.23,114.43,114.43,0,0,0-6.08,29.47c-.21,3.57-.11,6.3-.11,8.18a17.31,17.31,0,0,1,.11,2.1v.74a4.28,4.28,0,0,0-.11-.74c0-.52-.1-1.15-.21-2.1a70.28,70.28,0,0,1,0-8.18A108.76,108.76,0,0,1,523.89,321a95.46,95.46,0,0,1,3.77-9.23,67.54,67.54,0,0,1,5.56-9.34,89,89,0,0,1,16.68-17.2,77,77,0,0,1,10.8-7.13A78.86,78.86,0,0,1,573.18,273a92.15,92.15,0,0,1,28.11-4.09c9.75.11,19.3,1,28.11,3.78a77.08,77.08,0,0,1,23.7,11.75,69.3,69.3,0,0,1,9.23,8.18,63.9,63.9,0,0,1,7.24,9.12,57,57,0,0,1,5,9.65,95.83,95.83,0,0,1,3.36,9.44,93.11,93.11,0,0,1,2.93,17c.32,2.52.32,4.93.42,7v6c-.1,1.78-.1,3.35-.21,4.72s-.21,2.51-.31,3.45-.11,1.68-.21,2.1A1,1,0,0,1,680.58,361.73Z" style="fill:#fff"/><path d="M425.4,230.32h-.94c-.63,0-1.57,0-2.73.1-2.41,0-5.87.11-10.07.21-8.49.21-20.24.42-33.14.84s-24.75.63-33.24.63h-12.8c.63,0,1.57,0,2.73-.1,2.41,0,5.87-.11,10.07-.21,8.49-.21,20.24-.42,33.14-.84s24.64-.63,33.14-.63H425.4Z" style="fill:#fff"/><path d="M402.33,246.47c5.1,0,9.23-.14,9.23-.32s-4.13-.31-9.23-.31-9.23.14-9.23.31S397.24,246.47,402.33,246.47Z" style="fill:#fff"/><path d="M389.41,200.59c14.12-5.72,25.51-10.48,25.45-10.64s-11.57,4.34-25.69,10.06-25.51,10.48-25.45,10.64S375.29,206.31,389.41,200.59Z" style="fill:#fff"/><path d="M367.54,204.28c13.48-5.77,24.34-10.57,24.27-10.73s-11,4.38-24.51,10.15S343,214.28,343,214.44,354.07,210.05,367.54,204.28Z" style="fill:#fff"/><path d="M512.84,198.61c14.13-5.72,25.52-10.48,25.45-10.64s-11.56,4.34-25.68,10.05-25.51,10.48-25.45,10.65S498.72,204.32,512.84,198.61Z" style="fill:#fff"/><path d="M491,202.3c13.47-5.77,24.34-10.58,24.27-10.74s-11,4.39-24.51,10.16-24.34,10.57-24.28,10.73S477.52,208.07,491,202.3Z" style="fill:#fff"/><path d="M540.56,230.32c0,.1-22.65.42-50.65.52s-50.66.21-50.66,0,22.65-.42,50.66-.52S540.56,230.21,540.56,230.32Z" style="fill:#fff"/><path d="M551.5,245.75c7.88-.08,14.26-.28,14.26-.45s-6.39-.26-14.27-.18-14.26.27-14.26.45S543.62,245.82,551.5,245.75Z" style="fill:#fff"/><path d="M131.32,237.55a1.46,1.46,0,0,1-.63.11c-.42.1-1.05.1-1.78.21s-1.68.21-2.83.42-2.31.31-3.67.63c-2.73.52-6,1.15-9.55,2.1a102.81,102.81,0,0,0-11.33,3.77,118.84,118.84,0,0,0-10.9,4.93,82.47,82.47,0,0,0-8.39,4.93c-1.16.73-2.2,1.47-3.15,2.1a26.65,26.65,0,0,0-2.31,1.68c-.62.42-1,.73-1.46,1s-.53.32-.53.32a1.2,1.2,0,0,1,.42-.42c.31-.32.84-.63,1.36-1.15a26.65,26.65,0,0,1,2.31-1.68c1-.63,1.89-1.37,3-2.1,2.31-1.57,5.14-3.25,8.39-5a119.72,119.72,0,0,1,10.91-5c4-1.57,7.86-2.73,11.43-3.77a91.16,91.16,0,0,1,9.55-2c1.36-.21,2.62-.42,3.77-.52s2.1-.21,2.83-.32a12.84,12.84,0,0,1,1.79-.1C131.11,237.45,131.32,237.45,131.32,237.55Z" style="fill:#fff"/><path d="M318.64,212.8a5.19,5.19,0,0,0-1.05-.94,7.64,7.64,0,0,0-3.46-1.36,15.4,15.4,0,0,0-5.56.62,48.81,48.81,0,0,0-6.61,2.21,44,44,0,0,0-10.7,6.71c-2.51,2.1-3.77,3.67-3.88,3.57s.32-.42.84-1.16a34.69,34.69,0,0,1,2.73-2.73,40.3,40.3,0,0,1,10.8-6.92,31.4,31.4,0,0,1,6.71-2.2,16.3,16.3,0,0,1,5.77-.52,6.68,6.68,0,0,1,3.57,1.57c.32.31.52.63.73.84A1,1,0,0,0,318.64,212.8Z" style="fill:#fff"/><path d="M656.25,185.11a19.27,19.27,0,0,1-4.51.42,26.06,26.06,0,0,1-5.24-.63,42.88,42.88,0,0,1-6.72-2.09c-2.41-.95-5-2.1-7.76-3.25-1.36-.53-2.83-1.16-4.4-1.79s-3-1.15-4.72-1.68a190.45,190.45,0,0,0-21.4-5.87,235.13,235.13,0,0,0-40-4.93c-2.62-.1-4.93-.1-6.92-.21h-5.24c-1.37,0-2.52.11-3.36.11h-.84a2.51,2.51,0,0,0,.84-.11c.84,0,1.89-.1,3.36-.21s3.25-.1,5.24-.1,4.4,0,6.92.1a234.72,234.72,0,0,1,40.07,4.83A190.25,190.25,0,0,1,623,175.57c1.57.63,3.15,1.15,4.72,1.68s2.94,1.26,4.41,1.78c2.83,1.26,5.34,2.41,7.75,3.36a43.52,43.52,0,0,0,6.62,2.1,42.62,42.62,0,0,0,5.13.73,28.32,28.32,0,0,0,3.36-.11c.31,0,.63-.1.84-.1S656.25,185,656.25,185.11Z" style="fill:#263238"/></g><g id="p-person"><path d="M124.82,139.18l-6.29,30,16.78,10.07,6.4-18.46S139.08,138.44,124.82,139.18Z" style="fill:#455a64"/><path d="M135.31,179.24a9.39,9.39,0,0,1-1.36-.73c-.95-.53-2.21-1.26-3.68-2.1-3.14-1.89-7.55-4.41-12.58-7.24l-.21-.1v-.21c.42-2.21.94-4.62,1.47-7.14.73-3.77,1.46-7.23,2.2-10.48.31-1.58.63-3.15.94-4.62a14,14,0,0,1,1.37-3.88,7.93,7.93,0,0,1,4.3-4,5.82,5.82,0,0,1,1.57-.32c.42,0,.52,0,.52.11a6.86,6.86,0,0,0-2.09.42,7.76,7.76,0,0,0-4.1,4,17.64,17.64,0,0,0-1.25,3.78c-.32,1.46-.63,2.93-1,4.61-.63,3.25-1.36,6.82-2.09,10.49-.53,2.52-1,4.93-1.47,7.13l-.11-.31c5,2.93,9.34,5.56,12.48,7.44,1.47.95,2.73,1.68,3.57,2.21C134.89,178.93,135.31,179.24,135.31,179.24Z" style="fill:#455a64"/><path d="M151.67,186.48c-4.2-23-7-26.43-9.34-34.4-2.3-7.76-6.08-13-10.8-14.79-3.14-1.26-19-6.92-24.44-5a68.07,68.07,0,0,0-15.2,7.66,20.14,20.14,0,0,0-8,10.17l-8.5,23.71,14.79,14.68,7.44-15.73,8.08,18.88-1.15,19.08,46,12.38C154.71,216.37,154.08,199.48,151.67,186.48Z" style="fill:#455a64"/><path d="M139.71,161.52c-2,11.95-2.31,13.63-4.4,25.59-.74,4.09-2.73,10.48-5.67,13.42-2.2,2.2-4.3,4.3-7.23,5s-7,.73-9.65-.42-4.83-6.3-3.77-8.92c3.88.84,5.13,2.1,8.49,0,2.94-1.89,7.13-6,8.7-9.12C132.79,174,134.68,173.58,139.71,161.52Z" style="fill:#455a64"/><path d="M106.36,184.59a19.54,19.54,0,0,1-2-3.15c-1.26-2.09-2.94-4.82-4.72-7.76s-3.57-5.56-4.83-7.65-2-3.15-2-3.26a2.48,2.48,0,0,1,.63.74c.42.52,1,1.26,1.57,2.2,1.37,1.89,3.15,4.62,5,7.55s3.46,5.77,4.61,7.87c.53,1.05,1,1.89,1.26,2.41C106.25,184.28,106.36,184.59,106.36,184.59Z" style="fill:#455a64"/><path d="M138.46,206.09a9.54,9.54,0,0,1-1.06.42c-.31.1-.83.21-1.25.31s-1.05.32-1.79.42a30,30,0,0,1-4.61.42,28.73,28.73,0,0,1-5.77-.52,38.87,38.87,0,0,1-5.56-1.57,31.33,31.33,0,0,1-4.19-2,8.94,8.94,0,0,1-1.47-.94,4.86,4.86,0,0,1-1.05-.84c-.63-.42-.95-.73-.84-.73s1.36.94,3.67,2.2a40.9,40.9,0,0,0,4.2,1.89,27.13,27.13,0,0,0,5.45,1.46,36,36,0,0,0,5.66.53,29.8,29.8,0,0,0,4.62-.32C136.88,206.4,138.46,206,138.46,206.09Z" style="fill:#455a64"/><path d="M120,170.33c-.1.41-5,10.27-5,10.27L91.57,168.33l-2.41-10.07a6.25,6.25,0,0,0-2.73-3.77,6.09,6.09,0,0,0-4.82-.84l-6.92,2.83a1.93,1.93,0,0,0-1.16,1.36c-.1.53,0,1,1,.95,1.68-.11,5.24-.53,5.24-.53L78,164a6.68,6.68,0,0,0,.42,4.51l1.05,2,2.31,3.68s22.76,23.28,35.45,24.85c7.65.95,16.36-20.55,16.36-20.55Z" style="fill:#455a64"/><path d="M79.61,158.47l.53-.52a4,4,0,0,1,1.78-.53,1.79,1.79,0,0,1,1.58,1.05c.21.42.1.84,0,.74s0-.32-.22-.63a1.73,1.73,0,0,0-1.36-.74,4,4,0,0,0-1.68.42C79.93,158.37,79.61,158.58,79.61,158.47Z" style="fill:#455a64"/><path d="M82.55,162a1.33,1.33,0,0,0-.42-.42,2.91,2.91,0,0,0-1-.84,2,2,0,0,0-1.36-.1,3.68,3.68,0,0,0-.63.1,1.44,1.44,0,0,1,.52-.31,1.83,1.83,0,0,1,1.47.1,2.64,2.64,0,0,1,1.16,1C82.55,161.83,82.55,162,82.55,162Z" style="fill:#455a64"/><path d="M133.84,139.7a3,3,0,0,1-.42.31,7.35,7.35,0,0,1-1.26.63c-1.16.53-2.73,1.37-4.83,2.31a71,71,0,0,1-16.67,5.24,40.53,40.53,0,0,1-17.41-.62,36.14,36.14,0,0,1-5-1.79c-.53-.21-1-.52-1.26-.63s-.42-.21-.42-.31.63.21,1.78.73a28.91,28.91,0,0,0,5,1.58,44,44,0,0,0,17.2.42,78.7,78.7,0,0,0,16.58-5c2.1-.84,3.67-1.57,4.82-2.1S133.84,139.7,133.84,139.7Z" style="fill:#455a64"/><path d="M138.24,143.06a3.19,3.19,0,0,1-.41.31c-.43.21-.84.53-1.37.84s-1.36.84-2.3,1.36-1.89,1.05-3,1.58c-.63.31-1.15.52-1.78.84s-1.36.52-2,.84c-1.37.62-2.94,1-4.51,1.57a76.33,76.33,0,0,1-10.8,2.31,65.89,65.89,0,0,1-11,.31,33.88,33.88,0,0,1-4.82-.52l-2.2-.32c-.74-.1-1.37-.31-2-.42a21.79,21.79,0,0,1-3.35-.84c-1-.21-1.79-.52-2.52-.73s-1.15-.42-1.57-.53a3.51,3.51,0,0,1-.53-.21,1.81,1.81,0,0,1,.53.11c.42.1.94.31,1.57.42s1.57.42,2.52.63,2.1.52,3.35.73l2,.32c.73.1,1.36.21,2.2.31,1.47.21,3,.32,4.82.42a65.44,65.44,0,0,0,11-.42,73.75,73.75,0,0,0,10.69-2.2,45.58,45.58,0,0,0,4.51-1.57c.74-.32,1.37-.53,2-.74s1.25-.52,1.88-.84c1.16-.52,2.21-1.05,3.15-1.47a16.5,16.5,0,0,0,2.31-1.25c.63-.32,1.05-.63,1.46-.84C138.14,143.06,138.24,143,138.24,143.06Z" style="fill:#455a64"/><path d="M112.65,210.81S64.2,190.46,49.2,189.62c-9.44-.52-16.57,5.46-15.21,15.21.63,4.83,14.06,61.88,14.06,61.88l20.45-9.33-9.86-39.44,39.85,19.4Z" style="fill:#455a64"/><path d="M52.45,208c-.21.1,1.47,2.2,3.15,4.93s2.83,5.14,3,5-.63-2.62-2.41-5.35S52.66,207.87,52.45,208Z" style="fill:#455a64"/><path d="M48.47,210.28c-.11.21,2.3,1.79,5.24,3.89s5.14,4,5.25,3.88a20.57,20.57,0,0,0-4.83-4.41C51.2,211.44,48.57,210.07,48.47,210.28Z" style="fill:#455a64"/><path d="M150.52,223.08s-6.09,7.87-12,10c-7.34,2.73-61.36,28.22-61.36,28.22S67.45,334,68.18,331l-22.65-.52,2.41-67c.32-8.6,7.13-18.46,14.58-22.87l50-29.78Z" style="fill:#455a64"/><path d="M47.63,275.63a3.52,3.52,0,0,0,.1-.95c0-.63.11-1.57.11-2.62a67.65,67.65,0,0,1,.94-9.65,32.62,32.62,0,0,1,4.93-13.32,26,26,0,0,1,5.77-6,56.25,56.25,0,0,1,7.66-4.82c10.9-6.19,20.24-12.59,27.16-17,3.46-2.2,6.29-4,8.18-5.14.94-.53,1.68-1,2.2-1.36a4.24,4.24,0,0,0,.74-.53,5.06,5.06,0,0,0-.84.42c-.53.32-1.37.73-2.31,1.26-2,1.15-4.82,2.83-8.39,4.93-7,4.3-16.47,10.49-27.27,16.78a80.81,80.81,0,0,0-7.76,4.93,25.76,25.76,0,0,0-6,6.19,33.56,33.56,0,0,0-4.82,13.53,60.81,60.81,0,0,0-.63,9.75v2.62A3.41,3.41,0,0,1,47.63,275.63Z" style="fill:#455a64"/><path d="M53.92,330.37A1.65,1.65,0,0,1,54,330c0-.31.1-.63.1-1.05.11-1,.21-2.41.42-4.19.42-3.78.84-9,1.57-15.63.32-3.25.63-6.92,1.05-10.8s.74-8,1-12.38a130.77,130.77,0,0,1,1.57-13.63A53.27,53.27,0,0,1,64,258.32a50.74,50.74,0,0,1,8.18-12.06,74.14,74.14,0,0,1,10.28-9A208.5,208.5,0,0,1,102.17,225c5.76-3.25,10.27-6.08,13.32-8.18a39.92,39.92,0,0,0,3.46-2.52c.31-.31.63-.52.83-.73s.32-.21.32-.21a1.66,1.66,0,0,1-.32.21,3.46,3.46,0,0,1-.94.63c-.84.52-2,1.36-3.57,2.41-3,2-7.65,4.82-13.42,8A201.43,201.43,0,0,0,82,236.71a75.5,75.5,0,0,0-10.38,9,50,50,0,0,0-8.39,12.17,58.9,58.9,0,0,0-4.2,14.16,132.73,132.73,0,0,0-1.47,13.63c-.31,4.41-.63,8.5-1.05,12.38s-.62,7.45-.94,10.8c-.52,6.5-1,11.85-1.26,15.63-.1,1.78-.21,3.25-.31,4.3a3.72,3.72,0,0,1-.11,1.15Z" style="fill:#455a64"/><path d="M107.2,95.34a8.88,8.88,0,0,0-10.07-5.46,13.56,13.56,0,0,1-2.83.63,14.38,14.38,0,0,1-3.46-.94,5,5,0,0,0-5.77,3.77A7,7,0,0,0,79.3,94.5,4.59,4.59,0,0,0,77.94,100c.42.74,1,1.36,1.47,2.2.63,1.26.31,2.84.73,4.2.63,2,2.83,3.25,4.93,3.46a16.55,16.55,0,0,0,6.29-.94" style="fill:#455a64"/><path d="M97.45,136.87c-.32-2-.42-3.46-.42-3.46s-6.72,0-9.44-8.39c-1.36-4.2-2.31-11.22-2.83-17A9.2,9.2,0,0,1,93.46,98L111.4,97l.42,2.84,4.72,34.5a9.63,9.63,0,0,1-19.09,2.52Z" style="fill:#455a64"/><path d="M87.27,113a1.08,1.08,0,0,0,1.26.94,1,1,0,0,0,.94-1.15,1.09,1.09,0,0,0-1.25-1A1,1,0,0,0,87.27,113Z" style="fill:#455a64"/><path d="M86.85,111.38c.21.11,1-.63,2.1-.84s2.1.32,2.2.11-.1-.32-.52-.53a2.49,2.49,0,0,0-1.79-.2,3.12,3.12,0,0,0-1.67.83C86.85,111.07,86.75,111.38,86.85,111.38Z" style="fill:#455a64"/><path d="M98.49,111.07a1.08,1.08,0,0,0,1.26.94,1,1,0,0,0,.94-1.15,1.11,1.11,0,0,0-2.2.21Z" style="fill:#455a64"/><path d="M98.49,109.81c.21.11,1-.63,2.1-.84s2.1.32,2.21.11-.11-.32-.53-.53a2.42,2.42,0,0,0-1.78-.21,3.2,3.2,0,0,0-1.68.84C98.49,109.39,98.39,109.71,98.49,109.81Z" style="fill:#455a64"/><path d="M95.56,119.25c0-.11-.74-.11-2,0-.32,0-.63,0-.74-.21s0-.53.11-.94c.2-.74.31-1.58.52-2.42a42.91,42.91,0,0,0,1.05-6.39,45.69,45.69,0,0,0-1.57,6.29c-.21.84-.32,1.68-.53,2.41a1.74,1.74,0,0,0,0,1.26.57.57,0,0,0,.53.31h.52A5.91,5.91,0,0,0,95.56,119.25Z" style="fill:#455a64"/><path d="M97,133.41a21.7,21.7,0,0,0,11-4.93s-1.89,6.29-10.59,6.92Z" style="fill:#455a64"/><path d="M99.23,119.46c-.21,0,0,1.26-.94,2.41S96,123,96,123.23s.31.21.94.11a4.14,4.14,0,0,0,2-1,2.82,2.82,0,0,0,.73-2C99.44,119.77,99.33,119.46,99.23,119.46Z" style="fill:#455a64"/><path d="M97.45,105.19c.21.32,1.36,0,2.72-.1s2.63.1,2.73-.21c.11-.11-.21-.42-.73-.63a5.73,5.73,0,0,0-2.1-.42,4.2,4.2,0,0,0-2.1.63C97.55,104.77,97.34,105,97.45,105.19Z" style="fill:#455a64"/><path d="M86.75,107.92c.21.21,1-.21,2-.31s1.89-.11,2-.42c.11-.11-.1-.42-.52-.63a2.83,2.83,0,0,0-1.68-.21,2,2,0,0,0-1.47.84C86.64,107.5,86.54,107.82,86.75,107.92Z" style="fill:#455a64"/><path d="M83.81,104.25s4.72,1.57,10.17-2.1c3.57-2.41,8-3.88,9-3.25s1.79,4.51,5.77,5.25c0,0,.74,7.55,3.67,6.92,2.1-.42.84-8.81,0-13.53a4.14,4.14,0,0,0-3.88-3.36L103,94l-6.92,1.89-7.44,2L83,100.16Z" style="fill:#455a64"/><path d="M111.71,108c.11-.11,4.72-2.52,5.56,2.51s-4.3,4.83-4.41,4.72S111.71,108,111.71,108Z" style="fill:#455a64"/><path d="M114.12,113.06a.31.31,0,0,1,.21.11,1.48,1.48,0,0,0,.63-.11,1.93,1.93,0,0,0,.63-2.1,5.65,5.65,0,0,0-.42-1.26,1.09,1.09,0,0,0-.73-.52c-.32,0-.42.21-.53.32v.2a.45.45,0,0,1-.1-.31.39.39,0,0,1,.1-.31.79.79,0,0,1,.42-.21,1.15,1.15,0,0,1,1,.63,2.62,2.62,0,0,1,.53,1.36,2.39,2.39,0,0,1-1,2.41,1.1,1.1,0,0,1-.84,0Z" style="fill:#455a64"/><path d="M86.22,91.56a4.19,4.19,0,0,0,.53.63,3.93,3.93,0,0,0,1.88,1.26,6,6,0,0,0,3.36.1,22.18,22.18,0,0,0,4-1.25,10.61,10.61,0,0,1,4.3-.74A5.3,5.3,0,0,1,103.53,93a3.89,3.89,0,0,1,1,2.2,2.06,2.06,0,0,1-.11.84,5,5,0,0,0-.1-.84,4.64,4.64,0,0,0-1.05-2,5.13,5.13,0,0,0-3-1.26,12.48,12.48,0,0,0-4.1.73A24.91,24.91,0,0,1,92.1,94a6.52,6.52,0,0,1-3.57-.31,4.17,4.17,0,0,1-1.89-1.47A.87.87,0,0,1,86.22,91.56Z" style="fill:#455a64"/><path d="M103.11,96.39a2.32,2.32,0,0,0-.74-.63A4.71,4.71,0,0,0,99.85,95a7.76,7.76,0,0,0-3.77,1,36.55,36.55,0,0,1-4.51,2.09,11.21,11.21,0,0,1-8.91-.94,11.7,11.7,0,0,1-2.21-1.68c-.42-.52-.62-.73-.62-.84a22.91,22.91,0,0,0,3,2.2,11.51,11.51,0,0,0,8.6.84A44.8,44.8,0,0,0,96,95.55a8.36,8.36,0,0,1,4.09-.84,5.07,5.07,0,0,1,2.62.94A1.88,1.88,0,0,1,103.11,96.39Z" style="fill:#455a64"/><path d="M87.58,181.55,63.25,160.78l-8.07,1.78s8.49,17.62,14.58,24c0,0,6.08,8.08,16,4.62S87.58,181.55,87.58,181.55Z" style="fill:#455a64"/><path d="M61.36,137.92H51a2.62,2.62,0,0,0-2.41,3.25L59,161.41a2.51,2.51,0,0,0,2.1,1.26H73.64A1.75,1.75,0,0,0,75,160.05L64.93,140.23A3.81,3.81,0,0,0,61.36,137.92Z" style="fill:#455a64"/><path d="M60.74,139.18H50.36a1.78,1.78,0,0,0-1.58,2.51L59,161.52a2.49,2.49,0,0,0,2.09,1.25H73.53a1.06,1.06,0,0,0,1-1.46L64.41,141.48A4.22,4.22,0,0,0,60.74,139.18Z" style="fill:#455a64"/><path d="M59.79,147.46,53.5,150l-1.36,5,3,7.55,11.12,1.68L63,160.89l.42-2.94s3.15-.94,3.15-1.47-.42-2.1-.84-2.1A20.75,20.75,0,0,0,62,155.54s3.87-3,3.77-3.57-.52-1.78-1.26-1.89-7,2.84-7,2.84l-1,2.3-.84-3.67C55.7,151.55,61.16,150,59.79,147.46Z" style="fill:#455a64"/><path d="M60.63,159.42a3.94,3.94,0,0,1-.21-.63,3,3,0,0,1,.21-1.57,3.49,3.49,0,0,1,.95-1.37c.31-.31.52-.42.52-.31s-.74.63-1.15,1.78A4.89,4.89,0,0,0,60.63,159.42Z" style="fill:#455a64"/><path d="M57.59,158.26a5.78,5.78,0,0,0,.21-1.67,6.13,6.13,0,0,1,.31-1.79,1.92,1.92,0,0,1,.64-.94,2.06,2.06,0,0,1,1-.63c1.47-.52,2.84-.94,3.88-1.26s1.58-.52,1.68-.42a12.38,12.38,0,0,1-1.57.63c-1,.42-2.31.84-3.78,1.36a2.87,2.87,0,0,0-.94.53,2.32,2.32,0,0,0-.53.84,15.44,15.44,0,0,0-.42,1.78C58,157.74,57.69,158.26,57.59,158.26Z" style="fill:#455a64"/><path d="M56.59,156c.11-.68.11-1.25,0-1.27s-.3.52-.41,1.2-.11,1.26,0,1.28S56.48,156.7,56.59,156Z" style="fill:#455a64"/><path d="M57.27,144.32A1.37,1.37,0,1,0,55.91,143,1.37,1.37,0,0,0,57.27,144.32Z" style="fill:#455a64"/><path d="M49.3,335.62c0,.1.63.21,1.58.1a12.84,12.84,0,0,0,1.68-.42,3.53,3.53,0,0,0,.94-.42,2.15,2.15,0,0,1,.52-.31.62.62,0,0,0,.11-.84c-.11-.21-.42-.32-.63-.42a1.39,1.39,0,0,0-.63.1l-.95.32a3.72,3.72,0,0,0-1.46.84c-.74.63-1.05,1.15-1,1.26s.42-.42,1.16-.95a9.88,9.88,0,0,1,1.46-.73,3,3,0,0,1,.95-.21c.31-.11.63-.11.73.1v.21c-.1.11-.21.21-.31.21a3,3,0,0,1-.84.42,10,10,0,0,1-1.57.53A12.61,12.61,0,0,1,49.3,335.62Z" style="fill:#455a64"/><path d="M49.52,335.93c.1,0,.42-.52.52-1.47a10.11,10.11,0,0,0-.1-1.68c-.11-.31-.21-.63-.32-.94s-.42-.73-.94-.84a.71.71,0,0,0-.63.42c-.11.21-.11.42-.21.52a1.71,1.71,0,0,0,0,1.05,3.88,3.88,0,0,0,.63,1.68c.52.84,1.15,1.05,1.26.95s-.42-.42-.84-1.16a3.4,3.4,0,0,1-.42-1.47,3,3,0,0,1,.1-.94c.11-.31.21-.63.32-.52s.42.31.52.52.21.52.32.84a4.31,4.31,0,0,1,.21,1.57C49.62,335.3,49.41,335.83,49.52,335.93Z" style="fill:#455a64"/><path d="M130.59,230.74c.1-.11-.53-.74-1.37-1.89a13.44,13.44,0,0,1-2.1-5,13.75,13.75,0,0,1,0-5.45,14.82,14.82,0,0,0,.53-2.2,4.64,4.64,0,0,0-1.05,2.09,12.72,12.72,0,0,0-.21,5.77,11.2,11.2,0,0,0,2.41,5.14A5,5,0,0,0,130.59,230.74Z" style="fill:#455a64"/><path d="M49.41,326.7l-.21,16.05s-16.36,5.14-16.67,8.18l31,1.47,1.37-25Z" style="fill:#455a64"/><path d="M59,341.8a1.2,1.2,0,1,1-.63,2.31,1.37,1.37,0,0,1-.84-1.57,1.09,1.09,0,0,1,1.58-.63" style="fill:#455a64"/><path d="M63.57,352.29v-2.52l-29.78-.41s-1.37.52-1.27,1.47Z" style="fill:#455a64"/><path d="M48.78,342.54a16.22,16.22,0,0,1,1.47.73c.73.53,1,1.15,1.26,1.15s0-.94-.95-1.57S48.68,342.43,48.78,342.54Z" style="fill:#455a64"/><path d="M45.42,343.69c0,.11.63.42,1,1.05s.63,1.36.74,1.36a1.58,1.58,0,0,0-.32-1.68A1.62,1.62,0,0,0,45.42,343.69Z" style="fill:#455a64"/><path d="M43.43,347.57a1.44,1.44,0,0,0,0-1.57c-.31-.84-1-1.26-1.15-1.05s.31.63.62,1.26S43.22,347.47,43.43,347.57Z" style="fill:#455a64"/><path d="M49.2,338.87a15.38,15.38,0,0,0,1.57.1c.84.11,1.47.42,1.58.32s-.53-.74-1.58-.84S49.1,338.76,49.2,338.87Z" style="fill:#455a64"/><path d="M49.41,329.85v2.83l15.21.63.1-2.52Z" style="fill:#455a64"/><path d="M140.45,159.94a8.68,8.68,0,0,1-.11,2.83,55.1,55.1,0,0,1-1.15,6.61,37.57,37.57,0,0,1-2.2,6.4c-.74,1.57-1.26,2.52-1.26,2.52a12.37,12.37,0,0,1,.94-2.63c.63-1.57,1.36-3.88,2.1-6.39s1-4.83,1.36-6.51A10.64,10.64,0,0,1,140.45,159.94Z" style="fill:#455a64"/><path d="M124.82,139.18l-6.29,30,16.78,10.07,6.4-18.46S139.08,138.44,124.82,139.18Z" style="fill:#0acc86"/><path d="M135.31,179.24a9.39,9.39,0,0,1-1.36-.73c-.95-.53-2.21-1.26-3.68-2.1-3.14-1.89-7.55-4.41-12.58-7.24l-.21-.1v-.21c.42-2.21.94-4.62,1.47-7.14.73-3.77,1.46-7.23,2.2-10.48.31-1.58.63-3.15.94-4.62a14,14,0,0,1,1.37-3.88,7.93,7.93,0,0,1,4.3-4,5.82,5.82,0,0,1,1.57-.32c.42,0,.52,0,.52.11a6.86,6.86,0,0,0-2.09.42,7.76,7.76,0,0,0-4.1,4,17.64,17.64,0,0,0-1.25,3.78c-.32,1.46-.63,2.93-1,4.61-.63,3.25-1.36,6.82-2.09,10.49-.53,2.52-1,4.93-1.47,7.13l-.11-.31c5,2.93,9.34,5.56,12.48,7.44,1.47.95,2.73,1.68,3.57,2.21C134.89,178.93,135.31,179.24,135.31,179.24Z" style="fill:#263238"/><path d="M151.67,186.48c-4.2-23-7-26.43-9.34-34.4-2.3-7.76-6.08-13-10.8-14.79-3.14-1.26-19-6.92-24.44-5a68.07,68.07,0,0,0-15.2,7.66,20.14,20.14,0,0,0-8,10.17l-8.5,23.71,14.79,14.68,7.44-15.73,8.08,18.88-1.15,19.08,46,12.38C154.71,216.37,154.08,199.48,151.67,186.48Z" style="fill:#0acc86"/><g style="opacity:0.200000002980232"><g style="opacity:0.200000002980232"><path d="M139.71,161.52c-2,11.95-2.31,13.63-4.4,25.59-.74,4.09-2.73,10.48-5.67,13.42-2.2,2.2-4.3,4.3-7.23,5s-7,.73-9.65-.42-4.83-6.3-3.77-8.92c3.88.84,5.13,2.1,8.49,0,2.94-1.89,7.13-6,8.7-9.12C132.79,174,134.68,173.58,139.71,161.52Z" style="opacity:0.200000002980232;isolation:isolate"/></g></g><path d="M106.36,184.59a19.54,19.54,0,0,1-2-3.15c-1.26-2.09-2.94-4.82-4.72-7.76s-3.57-5.56-4.83-7.65-2-3.15-2-3.26a2.48,2.48,0,0,1,.63.74c.42.52,1,1.26,1.57,2.2,1.37,1.89,3.15,4.62,5,7.55s3.46,5.77,4.61,7.87c.53,1.05,1,1.89,1.26,2.41C106.25,184.28,106.36,184.59,106.36,184.59Z" style="fill:#263238"/><path d="M138.46,206.09a9.54,9.54,0,0,1-1.06.42c-.31.1-.83.21-1.25.31s-1.05.32-1.79.42a30,30,0,0,1-4.61.42,28.73,28.73,0,0,1-5.77-.52,38.87,38.87,0,0,1-5.56-1.57,31.33,31.33,0,0,1-4.19-2,8.94,8.94,0,0,1-1.47-.94,4.86,4.86,0,0,1-1.05-.84c-.63-.42-.95-.73-.84-.73s1.36.94,3.67,2.2a40.9,40.9,0,0,0,4.2,1.89,27.13,27.13,0,0,0,5.45,1.46,36,36,0,0,0,5.66.53,29.8,29.8,0,0,0,4.62-.32C136.88,206.4,138.46,206,138.46,206.09Z" style="fill:#263238"/><path d="M120,170.33c-.1.41-5,10.27-5,10.27L91.57,168.33l-2.41-10.07a6.25,6.25,0,0,0-2.73-3.77,6.09,6.09,0,0,0-4.82-.84l-6.92,2.83a1.93,1.93,0,0,0-1.16,1.36c-.1.53,0,1,1,.95,1.68-.11,5.24-.53,5.24-.53L78,164a6.68,6.68,0,0,0,.42,4.51l1.05,2,2.31,3.68s22.76,23.28,35.45,24.85c7.65.95,16.36-20.55,16.36-20.55Z" style="fill:#b78876"/><path d="M79.61,158.47l.53-.52a4,4,0,0,1,1.78-.53,1.79,1.79,0,0,1,1.58,1.05c.21.42.1.84,0,.74s0-.32-.22-.63a1.73,1.73,0,0,0-1.36-.74,4,4,0,0,0-1.68.42C79.93,158.37,79.61,158.58,79.61,158.47Z" style="fill:#aa6550"/><path d="M82.55,162a1.33,1.33,0,0,0-.42-.42,2.91,2.91,0,0,0-1-.84,2,2,0,0,0-1.36-.1,3.68,3.68,0,0,0-.63.1,1.44,1.44,0,0,1,.52-.31,1.83,1.83,0,0,1,1.47.1,2.64,2.64,0,0,1,1.16,1C82.55,161.83,82.55,162,82.55,162Z" style="fill:#aa6550"/><path d="M133.84,139.7a3,3,0,0,1-.42.31,7.35,7.35,0,0,1-1.26.63c-1.16.53-2.73,1.37-4.83,2.31a71,71,0,0,1-16.67,5.24,40.53,40.53,0,0,1-17.41-.62,36.14,36.14,0,0,1-5-1.79c-.53-.21-1-.52-1.26-.63s-.42-.21-.42-.31.63.21,1.78.73a28.91,28.91,0,0,0,5,1.58,44,44,0,0,0,17.2.42,78.7,78.7,0,0,0,16.58-5c2.1-.84,3.67-1.57,4.82-2.1S133.84,139.7,133.84,139.7Z" style="fill:#ebebeb"/><path d="M138.24,143.06a3.19,3.19,0,0,1-.41.31c-.43.21-.84.53-1.37.84s-1.36.84-2.3,1.36-1.89,1.05-3,1.58c-.63.31-1.15.52-1.78.84s-1.36.52-2,.84c-1.37.62-2.94,1-4.51,1.57a76.33,76.33,0,0,1-10.8,2.31,65.89,65.89,0,0,1-11,.31,33.88,33.88,0,0,1-4.82-.52l-2.2-.32c-.74-.1-1.37-.31-2-.42a21.79,21.79,0,0,1-3.35-.84c-1-.21-1.79-.52-2.52-.73s-1.15-.42-1.57-.53a3.51,3.51,0,0,1-.53-.21,1.81,1.81,0,0,1,.53.11c.42.1.94.31,1.57.42s1.57.42,2.52.63,2.1.52,3.35.73l2,.32c.73.1,1.36.21,2.2.31,1.47.21,3,.32,4.82.42a65.44,65.44,0,0,0,11-.42,73.75,73.75,0,0,0,10.69-2.2,45.58,45.58,0,0,0,4.51-1.57c.74-.32,1.37-.53,2-.74s1.25-.52,1.88-.84c1.16-.52,2.21-1.05,3.15-1.47a16.5,16.5,0,0,0,2.31-1.25c.63-.32,1.05-.63,1.46-.84C138.14,143.06,138.24,143,138.24,143.06Z" style="fill:#ebebeb"/><path d="M112.65,210.81S64.2,190.46,49.2,189.62c-9.44-.52-16.57,5.46-15.21,15.21.63,4.83,14.06,61.88,14.06,61.88l20.45-9.33-9.86-39.44,39.85,19.4Z" style="fill:#263238"/><path d="M52.45,208c-.21.1,1.47,2.2,3.15,4.93s2.83,5.14,3,5-.63-2.62-2.41-5.35S52.66,207.87,52.45,208Z" style="fill:#455a64"/><path d="M48.47,210.28c-.11.21,2.3,1.79,5.24,3.89s5.14,4,5.25,3.88a20.57,20.57,0,0,0-4.83-4.41C51.2,211.44,48.57,210.07,48.47,210.28Z" style="fill:#455a64"/><path d="M150.52,223.08s-6.09,7.87-12,10c-7.34,2.73-61.36,28.22-61.36,28.22S67.45,334,68.18,331l-22.65-.52,2.41-67c.32-8.6,7.13-18.46,14.58-22.87l50-29.78Z" style="fill:#263238"/><path d="M47.63,275.63a3.52,3.52,0,0,0,.1-.95c0-.63.11-1.57.11-2.62a67.65,67.65,0,0,1,.94-9.65,32.62,32.62,0,0,1,4.93-13.32,26,26,0,0,1,5.77-6,56.25,56.25,0,0,1,7.66-4.82c10.9-6.19,20.24-12.59,27.16-17,3.46-2.2,6.29-4,8.18-5.14.94-.53,1.68-1,2.2-1.36a4.24,4.24,0,0,0,.74-.53,5.06,5.06,0,0,0-.84.42c-.53.32-1.37.73-2.31,1.26-2,1.15-4.82,2.83-8.39,4.93-7,4.3-16.47,10.49-27.27,16.78a80.81,80.81,0,0,0-7.76,4.93,25.76,25.76,0,0,0-6,6.19,33.56,33.56,0,0,0-4.82,13.53,60.81,60.81,0,0,0-.63,9.75v2.62A3.41,3.41,0,0,1,47.63,275.63Z" style="fill:#455a64"/><path d="M53.92,330.37A1.65,1.65,0,0,1,54,330c0-.31.1-.63.1-1.05.11-1,.21-2.41.42-4.19.42-3.78.84-9,1.57-15.63.32-3.25.63-6.92,1.05-10.8s.74-8,1-12.38a130.77,130.77,0,0,1,1.57-13.63A53.27,53.27,0,0,1,64,258.32a50.74,50.74,0,0,1,8.18-12.06,74.14,74.14,0,0,1,10.28-9A208.5,208.5,0,0,1,102.17,225c5.76-3.25,10.27-6.08,13.32-8.18a39.92,39.92,0,0,0,3.46-2.52c.31-.31.63-.52.83-.73s.32-.21.32-.21a1.66,1.66,0,0,1-.32.21,3.46,3.46,0,0,1-.94.63c-.84.52-2,1.36-3.57,2.41-3,2-7.65,4.82-13.42,8A201.43,201.43,0,0,0,82,236.71a75.5,75.5,0,0,0-10.38,9,50,50,0,0,0-8.39,12.17,58.9,58.9,0,0,0-4.2,14.16,132.73,132.73,0,0,0-1.47,13.63c-.31,4.41-.63,8.5-1.05,12.38s-.62,7.45-.94,10.8c-.52,6.5-1,11.85-1.26,15.63-.1,1.78-.21,3.25-.31,4.3a3.72,3.72,0,0,1-.11,1.15Z" style="fill:#455a64"/><path d="M107.2,95.34a8.88,8.88,0,0,0-10.07-5.46,13.56,13.56,0,0,1-2.83.63,14.38,14.38,0,0,1-3.46-.94,5,5,0,0,0-5.77,3.77A7,7,0,0,0,79.3,94.5,4.59,4.59,0,0,0,77.94,100c.42.74,1,1.36,1.47,2.2.63,1.26.31,2.84.73,4.2.63,2,2.83,3.25,4.93,3.46a16.55,16.55,0,0,0,6.29-.94" style="fill:#263238"/><path d="M97.45,136.87c-.32-2-.42-3.46-.42-3.46s-6.72,0-9.44-8.39c-1.36-4.2-2.31-11.22-2.83-17A9.2,9.2,0,0,1,93.46,98L111.4,97l.42,2.84,4.72,34.5a9.63,9.63,0,0,1-19.09,2.52Z" style="fill:#b78876"/><path d="M87.27,113a1.08,1.08,0,0,0,1.26.94,1,1,0,0,0,.94-1.15,1.09,1.09,0,0,0-1.25-1A1,1,0,0,0,87.27,113Z" style="fill:#263238"/><path d="M86.85,111.38c.21.11,1-.63,2.1-.84s2.1.32,2.2.11-.1-.32-.52-.53a2.49,2.49,0,0,0-1.79-.2,3.12,3.12,0,0,0-1.67.83C86.85,111.07,86.75,111.38,86.85,111.38Z" style="fill:#263238"/><path d="M98.49,111.07a1.08,1.08,0,0,0,1.26.94,1,1,0,0,0,.94-1.15,1.11,1.11,0,0,0-2.2.21Z" style="fill:#263238"/><path d="M98.49,109.81c.21.11,1-.63,2.1-.84s2.1.32,2.21.11-.11-.32-.53-.53a2.42,2.42,0,0,0-1.78-.21,3.2,3.2,0,0,0-1.68.84C98.49,109.39,98.39,109.71,98.49,109.81Z" style="fill:#263238"/><path d="M95.56,119.25c0-.11-.74-.11-2,0-.32,0-.63,0-.74-.21s0-.53.11-.94c.2-.74.31-1.58.52-2.42a42.91,42.91,0,0,0,1.05-6.39,45.69,45.69,0,0,0-1.57,6.29c-.21.84-.32,1.68-.53,2.41a1.74,1.74,0,0,0,0,1.26.57.57,0,0,0,.53.31h.52A5.91,5.91,0,0,0,95.56,119.25Z" style="fill:#263238"/><path d="M97,133.41a21.7,21.7,0,0,0,11-4.93s-1.89,6.29-10.59,6.92Z" style="fill:#aa6550"/><path d="M99.23,119.46c-.21,0,0,1.26-.94,2.41S96,123,96,123.23s.31.21.94.11a4.14,4.14,0,0,0,2-1,2.82,2.82,0,0,0,.73-2C99.44,119.77,99.33,119.46,99.23,119.46Z" style="fill:#263238"/><path d="M97.45,105.19c.21.32,1.36,0,2.72-.1s2.63.1,2.73-.21c.11-.11-.21-.42-.73-.63a5.73,5.73,0,0,0-2.1-.42,4.2,4.2,0,0,0-2.1.63C97.55,104.77,97.34,105,97.45,105.19Z" style="fill:#263238"/><path d="M86.75,107.92c.21.21,1-.21,2-.31s1.89-.11,2-.42c.11-.11-.1-.42-.52-.63a2.83,2.83,0,0,0-1.68-.21,2,2,0,0,0-1.47.84C86.64,107.5,86.54,107.82,86.75,107.92Z" style="fill:#263238"/><path d="M83.81,104.25s4.72,1.57,10.17-2.1c3.57-2.41,8-3.88,9-3.25s1.79,4.51,5.77,5.25c0,0,.74,7.55,3.67,6.92,2.1-.42.84-8.81,0-13.53a4.14,4.14,0,0,0-3.88-3.36L103,94l-6.92,1.89-7.44,2L83,100.16Z" style="fill:#263238"/><path d="M111.71,108c.11-.11,4.72-2.52,5.56,2.51s-4.3,4.83-4.41,4.72S111.71,108,111.71,108Z" style="fill:#b78876"/><path d="M114.12,113.06a.31.31,0,0,1,.21.11,1.48,1.48,0,0,0,.63-.11,1.93,1.93,0,0,0,.63-2.1,5.65,5.65,0,0,0-.42-1.26,1.09,1.09,0,0,0-.73-.52c-.32,0-.42.21-.53.32v.2a.45.45,0,0,1-.1-.31.39.39,0,0,1,.1-.31.79.79,0,0,1,.42-.21,1.15,1.15,0,0,1,1,.63,2.62,2.62,0,0,1,.53,1.36,2.39,2.39,0,0,1-1,2.41,1.1,1.1,0,0,1-.84,0Z" style="fill:#aa6550"/><path d="M86.22,91.56a4.19,4.19,0,0,0,.53.63,3.93,3.93,0,0,0,1.88,1.26,6,6,0,0,0,3.36.1,22.18,22.18,0,0,0,4-1.25,10.61,10.61,0,0,1,4.3-.74A5.3,5.3,0,0,1,103.53,93a3.89,3.89,0,0,1,1,2.2,2.06,2.06,0,0,1-.11.84,5,5,0,0,0-.1-.84,4.64,4.64,0,0,0-1.05-2,5.13,5.13,0,0,0-3-1.26,12.48,12.48,0,0,0-4.1.73A24.91,24.91,0,0,1,92.1,94a6.52,6.52,0,0,1-3.57-.31,4.17,4.17,0,0,1-1.89-1.47A.87.87,0,0,1,86.22,91.56Z" style="fill:#455a64"/><path d="M103.11,96.39a2.32,2.32,0,0,0-.74-.63A4.71,4.71,0,0,0,99.85,95a7.76,7.76,0,0,0-3.77,1,36.55,36.55,0,0,1-4.51,2.09,11.21,11.21,0,0,1-8.91-.94,11.7,11.7,0,0,1-2.21-1.68c-.42-.52-.62-.73-.62-.84a22.91,22.91,0,0,0,3,2.2,11.51,11.51,0,0,0,8.6.84A44.8,44.8,0,0,0,96,95.55a8.36,8.36,0,0,1,4.09-.84,5.07,5.07,0,0,1,2.62.94A1.88,1.88,0,0,1,103.11,96.39Z" style="fill:#455a64"/><path d="M87.58,181.55,63.25,160.78l-8.07,1.78s8.49,17.62,14.58,24c0,0,6.08,8.08,16,4.62S87.58,181.55,87.58,181.55Z" style="fill:#b78876"/><path d="M61.36,137.92H51a2.62,2.62,0,0,0-2.41,3.25L59,161.41a2.51,2.51,0,0,0,2.1,1.26H73.64A1.75,1.75,0,0,0,75,160.05L64.93,140.23A3.81,3.81,0,0,0,61.36,137.92Z" style="fill:#455a64"/><path d="M60.74,139.18H50.36a1.78,1.78,0,0,0-1.58,2.51L59,161.52a2.49,2.49,0,0,0,2.09,1.25H73.53a1.06,1.06,0,0,0,1-1.46L64.41,141.48A4.22,4.22,0,0,0,60.74,139.18Z" style="fill:#263238"/><path d="M59.79,147.46,53.5,150l-1.36,5,3,7.55,11.12,1.68L63,160.89l.42-2.94s3.15-.94,3.15-1.47-.42-2.1-.84-2.1A20.75,20.75,0,0,0,62,155.54s3.87-3,3.77-3.57-.52-1.78-1.26-1.89-7,2.84-7,2.84l-1,2.3-.84-3.67C55.7,151.55,61.16,150,59.79,147.46Z" style="fill:#b78876"/><path d="M60.63,159.42a3.94,3.94,0,0,1-.21-.63,3,3,0,0,1,.21-1.57,3.49,3.49,0,0,1,.95-1.37c.31-.31.52-.42.52-.31s-.74.63-1.15,1.78A4.89,4.89,0,0,0,60.63,159.42Z" style="fill:#aa6550"/><path d="M57.59,158.26a5.78,5.78,0,0,0,.21-1.67,6.13,6.13,0,0,1,.31-1.79,1.92,1.92,0,0,1,.64-.94,2.06,2.06,0,0,1,1-.63c1.47-.52,2.84-.94,3.88-1.26s1.58-.52,1.68-.42a12.38,12.38,0,0,1-1.57.63c-1,.42-2.31.84-3.78,1.36a2.87,2.87,0,0,0-.94.53,2.32,2.32,0,0,0-.53.84,15.44,15.44,0,0,0-.42,1.78C58,157.74,57.69,158.26,57.59,158.26Z" style="fill:#aa6550"/><path d="M56.59,156c.11-.68.11-1.25,0-1.27s-.3.52-.41,1.2-.11,1.26,0,1.28S56.48,156.7,56.59,156Z" style="fill:#aa6550"/><path d="M57.27,144.32A1.37,1.37,0,1,0,55.91,143,1.37,1.37,0,0,0,57.27,144.32Z" style="fill:#fafafa"/><path d="M49.3,335.62c0,.1.63.21,1.58.1a12.84,12.84,0,0,0,1.68-.42,3.53,3.53,0,0,0,.94-.42,2.15,2.15,0,0,1,.52-.31.62.62,0,0,0,.11-.84c-.11-.21-.42-.32-.63-.42a1.39,1.39,0,0,0-.63.1l-.95.32a3.72,3.72,0,0,0-1.46.84c-.74.63-1.05,1.15-1,1.26s.42-.42,1.16-.95a9.88,9.88,0,0,1,1.46-.73,3,3,0,0,1,.95-.21c.31-.11.63-.11.73.1v.21c-.1.11-.21.21-.31.21a3,3,0,0,1-.84.42,10,10,0,0,1-1.57.53A12.61,12.61,0,0,1,49.3,335.62Z" style="fill:#263238"/><path d="M49.52,335.93c.1,0,.42-.52.52-1.47a10.11,10.11,0,0,0-.1-1.68c-.11-.31-.21-.63-.32-.94s-.42-.73-.94-.84a.71.71,0,0,0-.63.42c-.11.21-.11.42-.21.52a1.71,1.71,0,0,0,0,1.05,3.88,3.88,0,0,0,.63,1.68c.52.84,1.15,1.05,1.26.95s-.42-.42-.84-1.16a3.4,3.4,0,0,1-.42-1.47,3,3,0,0,1,.1-.94c.11-.31.21-.63.32-.52s.42.31.52.52.21.52.32.84a4.31,4.31,0,0,1,.21,1.57C49.62,335.3,49.41,335.83,49.52,335.93Z" style="fill:#263238"/><path d="M130.59,230.74c.1-.11-.53-.74-1.37-1.89a13.44,13.44,0,0,1-2.1-5,13.75,13.75,0,0,1,0-5.45,14.82,14.82,0,0,0,.53-2.2,4.64,4.64,0,0,0-1.05,2.09,12.72,12.72,0,0,0-.21,5.77,11.2,11.2,0,0,0,2.41,5.14A5,5,0,0,0,130.59,230.74Z" style="fill:#455a64"/><path d="M49.41,326.7l-.21,16.05s-16.36,5.14-16.67,8.18l31,1.47,1.37-25Z" style="fill:#455a64"/><path d="M59,341.8a1.2,1.2,0,1,1-.63,2.31,1.37,1.37,0,0,1-.84-1.57,1.09,1.09,0,0,1,1.58-.63" style="fill:#e0e0e0"/><path d="M63.57,352.29v-2.52l-29.78-.41s-1.37.52-1.27,1.47Z" style="fill:#e0e0e0"/><path d="M48.78,342.54a16.22,16.22,0,0,1,1.47.73c.73.53,1,1.15,1.26,1.15s0-.94-.95-1.57S48.68,342.43,48.78,342.54Z" style="fill:#263238"/><path d="M45.42,343.69c0,.11.63.42,1,1.05s.63,1.36.74,1.36a1.58,1.58,0,0,0-.32-1.68A1.62,1.62,0,0,0,45.42,343.69Z" style="fill:#263238"/><path d="M43.43,347.57a1.44,1.44,0,0,0,0-1.57c-.31-.84-1-1.26-1.15-1.05s.31.63.62,1.26S43.22,347.47,43.43,347.57Z" style="fill:#263238"/><path d="M49.2,338.87a15.38,15.38,0,0,0,1.57.1c.84.11,1.47.42,1.58.32s-.53-.74-1.58-.84S49.1,338.76,49.2,338.87Z" style="fill:#263238"/><g style="opacity:0.300000011920929"><path d="M49.41,329.85v2.83l15.21.63.1-2.52Z" style="opacity:0.300000011920929;isolation:isolate"/><path d="M140.45,159.94a8.68,8.68,0,0,1-.11,2.83,55.1,55.1,0,0,1-1.15,6.61,37.57,37.57,0,0,1-2.2,6.4c-.74,1.57-1.26,2.52-1.26,2.52a12.37,12.37,0,0,1,.94-2.63c.63-1.57,1.36-3.88,2.1-6.39s1-4.83,1.36-6.51A10.64,10.64,0,0,1,140.45,159.94Z" style="fill:#263238"/></g></g><g id="p-small-plant"><path d="M19.73,343a13,13,0,0,1,7.65,6.5,23,23,0,0,1,2.31,10c.21,6.61-2.52,13.74-5.76,19.62-6.19-4-8.71-12.17-9.66-16.47C12.7,355.75,13.86,342.75,19.73,343Z" style="fill:#0acc86"/><path d="M31.89,388.79c-1.47-3.57-.42-7.87,2-10.8A14.41,14.41,0,0,1,44,373.16c1.78-.1,3.78.11,4.93,1.37a4.75,4.75,0,0,1,.73,4.72,8.89,8.89,0,0,1-2.93,3.88C42.38,386.8,37.55,389.53,31.89,388.79Z" style="fill:#0acc86"/><path d="M27.7,409.77V408.4c0-.94.1-2.2.1-3.67.21-3.14.32-7.55,2.1-12.16a23.78,23.78,0,0,1,7-10.07,17.53,17.53,0,0,1,3.14-2c.43-.21.74-.32,1-.43a.84.84,0,0,1,.31-.1,24.36,24.36,0,0,0-4.19,2.73,24,24,0,0,0-6.82,10c-1.68,4.51-1.89,8.92-2.2,12-.11,1.57-.21,2.83-.32,3.67C27.8,409.35,27.8,409.77,27.7,409.77Z" style="fill:#263238"/><path d="M19.73,352.92a1.34,1.34,0,0,1,.1.53,14.23,14.23,0,0,1,.31,1.67c.32,1.47.74,3.57,1.16,6.19.94,5.25,2.1,12.38,3.25,20.45s2,15.21,2.52,20.56c.31,2.62.52,4.72.63,6.19a11.38,11.38,0,0,1,.1,1.68v.63a1.59,1.59,0,0,1-.1-.63c-.11-.42-.11-.95-.21-1.68-.21-1.57-.42-3.67-.74-6.19-.63-5.24-1.57-12.48-2.62-20.45S21.82,366.66,21,361.42c-.41-2.52-.73-4.62-1-6.19a13.47,13.47,0,0,1-.21-1.68C19.73,353.13,19.62,352.92,19.73,352.92Z" style="fill:#263238"/><path d="M23,394.14A25.53,25.53,0,0,0,6.51,377.67c-2-.63-4.4-.83-5.77.74s-.62,4,.42,5.77A21.76,21.76,0,0,0,23,394.66" style="fill:#0acc86"/><path d="M8.3,383.65l1.25.32c.42.1.84.31,1.47.52a8.81,8.81,0,0,1,1.79.84c.62.31,1.36.73,2.09,1.15a22.3,22.3,0,0,1,2.31,1.58,25.52,25.52,0,0,1,4.61,4.4,25.6,25.6,0,0,1,3.36,5.46c.42.94.74,1.78,1.05,2.62a10.36,10.36,0,0,1,.63,2.3,18.47,18.47,0,0,1,.42,2c.1.63.1,1,.21,1.47.1.84.1,1.25,0,1.25s-.21-1.78-.94-4.72c-.22-.73-.42-1.46-.74-2.3a26.93,26.93,0,0,0-1-2.52,30.19,30.19,0,0,0-3.35-5.35,35.77,35.77,0,0,0-4.51-4.4,14.42,14.42,0,0,0-2.21-1.58,14.44,14.44,0,0,0-2.1-1.15C10,384.28,8.19,383.76,8.3,383.65Z" style="fill:#263238"/></g></g></g></svg>