<?xml version="1.0" encoding="utf-8"?>
<!-- Generator: Adobe Illustrator 23.0.0, SVG Export Plug-In . SVG Version: 6.00 Build 0)  -->
<svg version="1.1" id="Layer_1" xmlns="http://www.w3.org/2000/svg" xmlns:xlink="http://www.w3.org/1999/xlink" x="0px" y="0px"
	 viewBox="0 0 3710 3710" style="enable-background:new 0 0 3710 3710;" xml:space="preserve">
<style type="text/css">
	.st0{fill:#CDEBD9;}
	.st1{fill:#EBEBEB;}
	.st2{fill:#E0E0E0;}
	.st3{fill:#F5F5F5;}
	.st4{fill:#0ACC86;}
	.st5{fill:#263238;}
	.st6{fill:#F9F9F9;}
	.st7{fill:#BDEFD1;}
	.st8{fill:#02AA59;}
	.st9{fill:#606060;}
	.st10{fill:#FFFFFF;}
	.st11{fill:#CEF4E1;}
	.st12{fill:url(#SVGID_1_);}
	.st13{fill:url(#SVGID_2_);}
	.st14{fill:url(#SVGID_3_);}
	.st15{fill:url(#SVGID_4_);}
	.st16{fill:url(#leftshoe_1_);}
	.st17{fill:url(#SVGID_5_);}
	.st18{fill:url(#SVGID_6_);}
	.st19{fill:url(#SVGID_7_);}
	.st20{fill:url(#SVGID_8_);}
	.st21{fill:url(#SVGID_9_);}
	.st22{fill:url(#SVGID_10_);}
	.st23{fill:url(#SVGID_11_);}
	.st24{fill:url(#SVGID_12_);}
	.st25{fill:url(#SVGID_13_);}
	.st26{fill:url(#SVGID_14_);}
	.st27{fill:url(#SVGID_15_);}
	.st28{fill:url(#register_1_);}
	.st29{fill:url(#SVGID_16_);}
	.st30{fill:url(#SVGID_17_);}
	.st31{fill:url(#SVGID_18_);}
	.st32{fill:url(#SVGID_19_);}
	.st33{fill:url(#SVGID_20_);}
	.st34{fill:url(#SVGID_21_);}
	.st35{fill:#0EDB88;}
	.st36{fill:url(#SVGID_22_);}
	.st37{fill:#343F44;}
	.st38{fill:url(#SVGID_23_);}
	.st39{fill:url(#SVGID_24_);}
	.st40{fill:url(#SVGID_25_);}
	.st41{fill:url(#SVGID_26_);}
	.st42{fill:url(#SVGID_27_);}
	.st43{fill:url(#SVGID_28_);}
	.st44{fill:url(#SVGID_29_);}
	.st45{fill:url(#SVGID_30_);}
	.st46{fill:#757575;}
	.st47{fill:url(#SVGID_31_);}
	.st48{opacity:0.8;}
	.st49{fill:url(#SVGID_32_);}
</style>
<g id="Background">
</g>
<path class="st0" d="M1304.6,2314.8c-229.2,1.2-415.9-191.1-417.1-429.5L883,964.5l665.6-3.6c229.2-1.2,415.9,191.1,417.1,429.5
	l4.5,920.8L1304.6,2314.8z"/>
<g id="gray-leaf3">
	<path class="st1" d="M1405.3,1374.4c0,0-23.8,22.4,31.7,69.7c55.5,47.3,89.2,68.3,89.2,68.3s11.2,11.9,0.3,18.9
		c-10.9,7-38.3,13.6-37.7,30.1c0.7,17.2,17.5,26.8,44.4,30.2c27.2,3.2,86,12.4,91.3,13.3c5.3,0.9,11.9,5.6,5.5,11.6
		c-6.5,6-62.4,36.1-46.2,61.7c15.8,25.7,92.9,22.2,101.3,22c8.5-0.3,11.4,2.1,12.4,6.5c1.3,4.3-18.7,12.5-34,22
		c-15.5,9.1-31.8,22.8-21.5,36.6c10.4,14.1,63.6,30.4,163.5-0.3l45.2-17.2l8.7-48.1c12.2-103.8-13.3-153.3-28.8-160.9
		c-15.7-7.9-25.9,10.7-32.2,27.5c-6.3,16.7-11.3,37.7-15.5,37.5c-4.2-0.2-7.3-2.9-8.6-11.2c-1.3-8.3-11.5-84.4-39.6-95.8
		c-27.9-11.1-47.7,49-52.5,56.4c-4.7,7.4-10.8,1.7-12.4-3.5c-1.7-5.2-21.2-61.6-29.3-87.6c-7.8-26.1-20.3-40.8-37.1-38.4
		c-16.5,2.2-18.1,30.5-22.9,42.5c-5.1,12.1-18.5,2.7-18.5,2.7s-26.5-29.3-83-75.7c-56.5-46.4-74.6-18.2-74.6-18.2"/>
	<path class="st2" d="M1857.7,1757c-41.4-34.2-113.6-96.3-176.2-149.2c-62.6-52.9-119.1-100.8-160.2-135.1
		c-20.4-17.2-37.3-30.9-48.7-40.8c-5.6-4.8-10.4-8.5-13.3-10.9c-1.3-1.2-2.5-2.2-3.6-2.8c-0.7-0.8-1.2-0.9-1.2-0.9s0.5,0.2,1.2,0.9
		c0.7,0.8,1.9,1.7,3.6,2.8c3.1,2.6,7.7,6.1,13.3,10.9c11.5,9.5,28.4,23.1,49.1,40.2c41.4,34.2,98,82.1,160.4,134.7
		c62.6,52.9,134.8,115.1,175.9,149.4"/>
</g>
<g id="gray-leaf2">
	<path class="st1" d="M1739,1164.9c0,0-32.6-0.2-25.1,72.3c7.5,72.5,17.5,111,17.5,111s-0.1,16.3-12.8,13.9
		c-12.7-2.4-37.1-16.6-48-4.2c-11.4,12.9-5.8,31.5,11.4,52.5c17.5,21.1,53.7,68.3,56.9,72.6c3.2,4.3,4.8,12.3-4,12.2
		c-8.9-0.1-70.1-16.9-76,12.8c-6.3,29.5,51.9,80.1,58.2,85.8c6.3,5.6,6.8,9.4,4.5,13.2c-2,3.9-22.2-3.8-39.8-7.5
		c-17.5-4-38.7-5.4-40.8,11.7c-2.2,17.4,25,65.9,118.6,112.6l44.6,18.7l39.4-28.8c80.4-66.7,96-120.2,90.1-136.4
		c-5.9-16.5-26.1-10.1-42.2-2.3c-16.1,7.8-34.2,19.6-37.1,16.5c-2.9-3.1-3.3-7.1,1.5-14.1c4.8-6.9,49.9-69,37.4-96.7
		c-12.6-27.3-68.3,2.5-76.9,4.7c-8.5,2.1-9-6.2-6.6-11.1c2.3-4.9,27.1-59.2,39.1-83.6c12.3-24.3,13.4-43.5-0.4-53.4
		c-13.4-9.8-34.1,9.6-45.8,15c-12,5.2-15.3-10.8-15.3-10.8s1-39.5-7.9-112.1c-8.9-72.6-41.4-64.6-41.4-64.6"/>
	<path class="st2" d="M1802.8,1753.9c-6.4-53.3-15.8-148.1-24.7-229.6c-8.8-81.5-16.7-155.1-22.8-208.3c-2.9-26.5-5.7-48.1-7.1-63.1
		c-0.8-7.4-1.6-13.3-2.2-17.1c-0.1-1.8-0.3-3.3-0.6-4.5c0-1.1-0.2-1.5-0.2-1.5s0.2,0.4,0.2,1.5c0,1.1,0.2,2.6,0.6,4.5
		c0.4,4.1,1.4,9.7,2.2,17.1c1.8,14.8,4.6,36.4,7.9,63c6.5,53.3,14.3,127,23.3,208.1c8.8,81.5,18.2,176.3,24.4,229.5"/>
</g>
<g id="gray-leaf1">
	<path class="st3" d="M2445,1844.4c-83.6-42.1-115.3-138.1-125.1-227.3c-1.6-14.7-5.6-30.4-0.3-44.1c5.2-14,20.2-25.1,34.3-20.9
		c11.8,3.6,18.3,15.7,26.1,25.5c10.1,12.7,24.2,22.9,39.5,28.1c10.1,3.6,22.2,4.9,30.7-1.6c11.8-8.8,10.8-26.8,8.5-41.5
		c-4.3-27.4-8.2-54.9-12.4-82.3c-2.3-14.7-4.6-29.7-2-44.4s10.8-29.1,24.2-34.9c13.4-5.9,32-0.3,36.9,13.7c2,5.9,1.6,12.1,2.9,18.3
		c1.3,6.2,5.2,12.4,11.1,13.4c6.2,1,11.4-4.2,15-9.1c13.1-17,20.6-37.6,27.4-58.1c6.9-20.6,13.4-41.1,24.8-59.4
		c11.4-18.3,28.7-33.6,49.6-37.9c20.9-4.2,45.1,5.6,53.6,25.5c8.5,19.9-0.7,42.8-11.4,61.4c-16,27.8-35.9,53.2-58.8,75.1
		c-4.3,3.9-8.8,8.2-9.8,14c-1.6,10.1,8.8,18.6,18.9,20.6c11.4,2,23.2-0.7,34.9-1c11.8-0.3,24.8,2.9,30.7,13.1
		c8.2,14-2,31.7-13.1,43.8c-21.9,24.2-47.7,44.7-76.4,60.1c-10.1,5.6-21.2,10.8-28.7,19.6c-7.5,8.8-11.1,22.9-4.2,32.3
		c6.9,9.5,20.9,11.1,31.7,7.2c11.1-3.6,20.2-11.4,30.4-17c19.3-10.4,45.4-13.1,60.7,2.6c10.1,10.1,13.4,26.1,10.8,40.5
		c-2.3,14.4-9.5,27.4-17,39.5c-26.8,42.8-64,79.4-108.4,102.2C2536.8,1844.1,2494,1854.9,2445,1844.4z"/>
	<path class="st2" d="M2459.7,1785.6c6.5-46.7,18-97,31.7-149.6c3.6-13.1,6.9-26.1,10.5-38.9c3.3-12.7,6.9-25.5,10.8-37.6
		c8.2-24.2,17.6-47,27.4-68.2c9.8-21.2,19.9-41.1,29.4-59.8c9.5-18.6,18.9-35.6,28.1-50.6c18-30.4,35.6-53.2,48.3-68.6
		c6.2-7.5,11.4-13.4,15-17.3c1.6-2,2.9-3.3,3.9-4.2c1-1,1.3-1.3,1.3-1.3s-0.3,0.7-1.3,1.6c-1,1-2.3,2.6-3.9,4.6
		c-3.3,3.9-8.2,9.8-14.4,17.6c-12.4,15.3-29.7,38.2-47.4,68.9c-8.8,15.3-18,32.3-27.4,50.9c-9.5,18.6-19.3,38.5-29.1,59.8
		c-9.8,21.2-19.3,44.1-27.1,68.3c-3.9,12.1-7.5,24.5-10.8,37.2c-3.3,12.7-6.9,25.8-10.4,38.9c-13.7,52.2-25.1,102.5-32,149.2"/>
	<path class="st2" d="M2513.6,1560c-0.3,0-1-2-2.3-6.2c-1.3-3.9-3.3-9.8-5.2-17c-4.3-14.4-9.5-34.3-15-56.5
		c-5.6-22.2-11.1-41.8-15.3-56.2c-2.3-7.2-3.9-12.7-5.2-17c-1.3-3.9-2-6.2-1.6-6.2c0.3,0,1,2,2.6,5.9c1.6,3.9,3.6,9.5,6.2,16.7
		c4.9,14,10.4,34,16.3,56.2c5.6,21.9,10.4,41.5,14,56.5c1.6,6.9,3.3,12.4,4.2,17C2513.3,1557.7,2513.6,1560,2513.6,1560z"/>
	<path class="st2" d="M2697.4,1497.3c0,0.3-2.6,1-7.5,2c-4.9,1-11.8,2.6-20.3,4.9c-17,4.2-40.5,11.1-65.6,19.9
		c-25.5,8.8-48,17.6-64.3,24.5c-8.2,3.3-14.7,6.2-19.3,8.2c-4.6,2-7.2,2.9-7.2,2.9c0-0.3,2.3-1.6,6.5-3.9c4.2-2.3,10.8-5.6,18.9-9.1
		c16-7.5,38.5-16.7,64-25.5c25.5-8.8,49-15.3,66.3-19.3c8.5-2,15.7-3.3,20.6-4.2C2694.8,1497.3,2697.4,1497,2697.4,1497.3z"/>
	<path class="st2" d="M2701,1664.5c0,0-0.7,0.7-2.3,1.3c-2,1-4.3,2-6.9,3.6c-6.5,3.3-15,7.5-25.8,12.7
		c-21.6,10.8-51.3,25.8-84.3,42.5c-33,16.7-62.7,31.3-84.6,41.8c-10.8,5.2-19.9,9.1-26.1,11.8c-2.9,1.3-5.2,2.3-7.2,2.9
		c-1.6,0.7-2.6,1-2.6,1s0.7-0.7,2.3-1.3c2-1,4.2-2,6.9-3.6c6.5-3.3,15-7.5,25.8-12.7c21.6-10.8,51.3-25.8,84.2-42.5
		c33-16.7,62.7-31.4,84.6-41.8c10.8-5.2,19.9-9.1,26.1-11.8c2.9-1.3,5.2-2.3,7.2-2.9C2700,1664.8,2701,1664.5,2701,1664.5z"/>
</g>
<g id="smallplant">
	<path class="st4" d="M1056.6,2352.8c10.4,2.9,18.6,10.8,23.8,20.3c4.9,9.5,6.9,20.3,7.2,31c0.6,20.6-7.8,42.8-18,61.1
		c-19.3-12.4-27.1-37.9-30.1-51.3C1034.7,2392.7,1038.3,2352.2,1056.6,2352.8z"/>
	<path class="st4" d="M1094.4,2495.6c-4.6-11.1-1.3-24.5,6.2-33.6c7.8-9.1,19.6-14.4,31.3-15c5.6-0.3,11.8,0.3,15.4,4.3
		c3.6,3.9,3.9,9.8,2.3,14.7c-1.6,4.9-5.2,8.8-9.1,12.1C1127.1,2489.4,1112.1,2497.8,1094.4,2495.6z"/>
	<path class="st5" d="M1081.4,2560.9c0,0,0-1.6,0-4.2c0-2.9,0.3-6.9,0.3-11.4c0.7-9.8,1-23.5,6.5-37.9c5.2-14,14-25.1,21.9-31.4
		c3.9-2.9,7.5-5.2,9.8-6.2c1.3-0.7,2.3-1,2.9-1.3c0.7-0.3,1-0.3,1-0.3c0.3,0.3-5.9,2.3-13.1,8.5c-7.5,6.2-16,17-21.2,31
		c-5.2,14-5.9,27.8-6.9,37.2c-0.3,4.9-0.6,8.8-1,11.4C1081.7,2559.6,1081.7,2560.9,1081.4,2560.9z"/>
	<path class="st5" d="M1056.5,2383.9c0,0,0.3,0.7,0.3,1.6c0.3,1.3,0.7,2.9,1,5.2c1,4.6,2.3,11.1,3.6,19.3
		c2.9,16.3,6.5,38.5,10.1,63.7c3.6,24.8,6.2,47.4,7.8,64c1,8.2,1.6,14.7,2,19.3c0.3,2.3,0.3,3.9,0.3,5.2c0,1.3,0,2,0,2
		s-0.3-0.7-0.3-2c-0.3-1.3-0.3-2.9-0.7-5.2c-0.7-4.9-1.3-11.4-2.3-19.3c-2-16.3-4.9-38.9-8.2-63.7c-3.6-24.8-7.2-47.3-9.8-63.7
		c-1.3-7.8-2.3-14.4-3.3-19.3c-0.3-2.3-0.7-3.9-0.7-5.2S1056.2,2383.9,1056.5,2383.9z"/>
	<path class="st4" d="M1066.7,2512.2c-7.5-24.2-27.4-43.8-51.3-51.3c-6.2-2-13.7-2.6-18,2.3c-4.3,4.9-2,12.4,1.3,18
		c13.1,23.2,41.5,36.9,67.9,32.7"/>
	<path class="st5" d="M1021,2479.6c0,0,1.3,0.3,3.9,1c1.3,0.3,2.6,1,4.6,1.6c1.6,0.7,3.6,1.3,5.6,2.6c2,1,4.3,2.3,6.5,3.6
		c2.3,1.3,4.6,2.9,7.2,4.9c4.9,3.6,9.8,8.2,14.4,13.7c4.6,5.6,7.8,11.4,10.4,17c1.3,2.9,2.3,5.6,3.3,8.2c1,2.6,1.6,4.9,2,7.2
		c0.7,2.3,1,4.3,1.3,6.2c0.3,2,0.3,3.3,0.7,4.6c0.3,2.6,0.3,3.9,0,3.9c-0.3,0-0.7-5.6-2.9-14.7c-0.7-2.3-1.3-4.6-2.3-7.2
		c-1-2.6-2-5.2-3.3-7.8c-2.6-5.6-6.2-11.1-10.4-16.7c-4.6-5.2-9.1-9.8-14-13.7c-2.3-2-4.6-3.6-6.9-4.9c-2.3-1.6-4.6-2.6-6.5-3.6
		C1026.2,2481.5,1020.6,2479.9,1021,2479.6z"/>
</g>
<path class="st6" d="M2363.7,2419.3c-21,22.1-40.9,36.4-56.7,47.7c-184.8,132.6-403.5,94-450,84.5
	c-68.6-13.9-201.3-40.9-297.3-153.7c-145.1-170.7-122.5-439.5-10-617c20.6-32.5,129.4-212.7,350.4-241.5
	c133.8-17.5,289.7,17.8,402.6,112.4C2539.9,1850.3,2523,2251.5,2363.7,2419.3z"/>
<g id="green-leaf2">
	<path class="st7" d="M2077.8,1887.3c-12.9-30.5-41.1-51.7-74-55.7c-35.1-4.4-72.6-17.5-107.9-39.8c-92.9-58.4-135.8-157-96.1-220.2
		c39.8-63.2,147.2-67.1,240.1-8.7c18,11.4,34.2,24.2,48.2,38c21.3,20.9,51.3,30.5,80.6,24.9c27.9-5.2,57.7-0.3,83.6,15.9
		c35.3,22.2,54.7,60.4,54.6,99.2c-0.1,23,8.4,45.2,23.9,62.2c44.1,48.3,58.1,110.5,29.8,155.5c-36.2,57.6-128.1,65-205.3,16.5
		C2118.5,1952,2091.8,1920.3,2077.8,1887.3z"/>
	<path class="st8" d="M2462.6,2041.8c0.7-1.5,0.6-3.4-0.5-4.8c-55.9-70.4-170.1-153.4-256-210.6c-92.9-61.9-173.7-107.7-174.6-108.2
		c-2.2-1.2-4.9-0.5-6.1,1.7c-1.2,2.2-0.5,4.9,1.7,6.1c3.2,1.8,322.1,183.4,427.9,316.6c1.6,2,4.4,2.2,6.3,0.7
		C2462,2042.9,2462.4,2042.4,2462.6,2041.8z"/>
</g>
<g id="green-leaf1">
	<path class="st7" d="M2169,1565.1c6.1-32.6-5.6-65.7-30.7-87.3c-26.8-23-50.7-54.8-67.8-92.9c-45-100.1-26.2-206,41.9-236.6
		c68.1-30.6,159.8,25.6,204.7,125.7c8.7,19.4,15,39.1,19.1,58.3c6.1,29.2,25.8,53.7,53.4,65.4c26.1,11.1,48.3,31.7,60.8,59.5
		c17.1,38.1,12.1,80.5-9.5,112.8c-12.8,19.2-18.1,42.3-14.5,65.1c10.1,64.6-12.8,124.2-61.2,145.9c-62.1,27.9-142.7-16.9-180.1-99.9
		C2167.2,1641.5,2162.4,1600.3,2169,1565.1z"/>
	<path class="st8" d="M2403.9,1906.9c1.5-0.8,2.4-2.5,2.2-4.3c-7.6-89.6-56.7-221.9-96.6-317.1c-43.1-103-85-185.9-85.4-186.7
		c-1.2-2.2-3.8-3.1-6-2c-2.2,1.1-3.1,3.8-2,6c1.6,3.3,166.7,331,181.1,500.5c0.2,2.5,2.4,4.4,4.9,4.1
		C2402.8,1907.4,2403.4,1907.2,2403.9,1906.9z"/>
</g>
<g id="park-board">
	<rect x="2439.8" y="1755.1" class="st9" width="34.3" height="710.8"/>
	<path class="st10" d="M2599.5,1926.1c0,38.4-31.1,69.5-69.5,69.5h-155.3c-38.4,0-69.5-31.1-69.5-69.5v-155.3
		c0-38.4,31.1-69.5,69.5-69.5H2530c38.4,0,69.5,31.1,69.5,69.5V1926.1z"/>
	<path class="st11" d="M2583.4,1770.7c0-30.1-24.4-54.5-54.5-54.5h-154.2c-30.1,0-54.5,24.4-54.5,54.5v154.2
		c0,30.1,24.4,54.5,54.5,54.5h154.2c30.1,0,54.5-24.4,54.5-54.5L2583.4,1770.7L2583.4,1770.7z"/>
	<g>
		<path class="st8" d="M2391.6,1766.7c11.6-2,28-3.5,51.1-3.5c23.3,0,39.9,4.5,51.1,13.4c10.7,8.4,17.9,22.3,17.9,38.7
			s-5.4,30.2-15.4,39.7c-12.9,12.2-32,17.6-54.3,17.6c-5,0-9.4-0.3-12.9-0.7v59.8h-37.5V1766.7z M2429.1,1842.7
			c3.2,0.7,7.2,1,12.6,1c20.1,0,32.5-10.2,32.5-27.3c0-15.4-10.7-24.5-29.5-24.5c-7.7,0-12.9,0.7-15.6,1.5V1842.7L2429.1,1842.7z"/>
	</g>
</g>
<g id="bigcar">
	<g>
		<g>
			<path class="st5" d="M1680,2410.1c0-23-18.7-41.7-41.7-41.7h-18.6c-23,0-41.7,18.7-41.7,41.7v111.3c0,23,18.7,41.7,41.7,41.7
				h18.6c23,0,41.7-18.7,41.7-41.7V2410.1z"/>
			<path class="st5" d="M2255,2410.1c0-23-18.7-41.7-41.7-41.7h-18.6c-23,0-41.7,18.7-41.7,41.7v111.3c0,23,18.7,41.7,41.7,41.7
				h18.6c23,0,41.7-18.7,41.7-41.7V2410.1z"/>
		</g>
		<g id="sidemirror">
			
				<linearGradient id="SVGID_1_" gradientUnits="userSpaceOnUse" x1="1866.5897" y1="2404.4141" x2="1792.3981" y2="2144.7432" gradientTransform="matrix(1 0 0 -1 0 3710)">
				<stop  offset="0" style="stop-color:#FF928E"/>
				<stop  offset="1" style="stop-color:#FE7062"/>
			</linearGradient>
			<path class="st12" d="M1633.4,2201.3c-1.2-0.3-2.9-1.4-2.9-2.7v-8.6c0-8.3-3.9-15.8-11.4-19.5c-9.5-4.8-20.3-5-30-0.5l-16.9,8.3
				c-8.5,3.9-12.9,12.4-12.9,21.8v6.5c0,12,8.2,22.2,20.1,23.9l72.7,9.9l8.5-33.2L1633.4,2201.3z"/>
			
				<linearGradient id="SVGID_2_" gradientUnits="userSpaceOnUse" x1="1771.282" y1="6399.957" x2="1697.0903" y2="6140.2861" gradientTransform="matrix(-1 0 0 -1 2602.375 3710)">
				<stop  offset="0" style="stop-color:#FF928E"/>
				<stop  offset="1" style="stop-color:#FE7062"/>
			</linearGradient>
			<path class="st13" d="M2203.3,2201.3c1.2-0.3,2.2-1.4,2.2-2.7v-8.6c0-8.3,4.6-15.8,12-19.5c9.5-4.8,20.7-5,30.3-0.5l18.7,8.3
				c8.5,3.9,14.8,12.4,14.8,21.8v6.5c0,12-9.8,22.2-21.8,23.9l-73.5,9.9l-9.2-33.2L2203.3,2201.3z"/>
		</g>
		<path class="st4" d="M2256.6,2274.9c-10.6-35.7-65.2-68.8-65.2-68.8s-45.8-140.6-95.2-140.6c-39.6,0-134.8,0-170.8,0
			c0,0-5.3,0-14.1,0c-36,0-131.3,0-171,0c-49.4,0-95.2,140.6-95.2,140.6s-54.7,33-65.2,68.7c-7.7,26.1,9,126.8,18.6,178.6
			c3.4,18.3,20.6,32.5,40.7,32.5h272h14.1h271.8c20.1,0,37.3-14.2,40.7-32.5C2247.6,2401.6,2264.4,2300.9,2256.6,2274.9z"/>
		<path class="st8" d="M2249.7,2424.3c-3.1-3.5-7.7-6.5-12.7-6.5h-637.4c-5,0-9.6,2.9-12.6,6.4c-3.1,3.5-4.2,8.5-3.1,12.8l10.4,42.6
			c1.7,6.7,8.2,12.5,15.8,12.5h616c7.5,0,14-5.5,15.8-12.1l10.9-42.3C2254,2433.3,2252.9,2427.8,2249.7,2424.3z"/>
		<g id="head-lamp">
			<g>
				<path class="st10" d="M1746.2,2360.5c0,0-15.8-47.6-35.8-51.7c-20-4.1-104.5-21.8-106.3-7.1c-1.8,14.7-18.8,65.2,31.7,69.9
					C1686.3,2376.4,1754.3,2380.2,1746.2,2360.5z"/>
			</g>
			<g>
				<path class="st10" d="M2090.5,2360.5c0,0,15.8-47.6,35.8-51.7c20-4.1,104.5-21.8,106.3-7.1c1.8,14.7,18.8,65.2-31.7,69.9
					C2150.4,2376.4,2082.4,2380.2,2090.5,2360.5z"/>
			</g>
		</g>
		<path class="st8" d="M2079.1,2319.1c-1.6-2.5-4.4-4.8-7.5-4.8h-306.6c-3.1,0-6,2.4-7.6,5.1c-1.6,2.7-1.7,6.4-0.2,9.1l17.3,33.4
			c6.4,12.1,19,20.5,32.6,20.5h225.3c14.5,0,27.8-9.2,33.7-22.5l13.7-31.5C2081,2325.5,2080.8,2321.6,2079.1,2319.1z"/>
		<g>
			<path class="st10" d="M2162.6,2217.9c-2,3.1-5.4,5.2-9,5.2h-470.5c-3.7,0-7.1-2.2-9.1-5.4c-2-3.1-2.2-7.2-0.6-10.5
				c10.7-22.5,30.7-64.2,41.9-87.6c0.5-1.1,1.1-2.1,1.7-3.1c5.4-8.6,15-14,25.3-14h355.8c10.5,0,20.1,5.4,25.4,14.1
				c0.7,1.2,1.4,2.5,2,3.9l37.9,87C2164.9,2210.8,2164.6,2214.8,2162.6,2217.9z"/>
			<path class="st6" d="M2123.6,2116.6c-24.9,4.9-98.2,17.2-208.6,17.2c-111.3,0-176.7-12.5-197.9-17.3c5.4-8.6,15-13.9,25.3-13.9
				h355.8C2108.6,2102.6,2118.1,2108,2123.6,2116.6z"/>
		</g>
		<g>
			<g>
				<path class="st10" d="M1738.6,2295.7c-0.4,0-0.9-0.1-1.2-0.5l-61-57.7c-0.7-0.7-0.7-1.8-0.1-2.5c0.7-0.7,1.8-0.7,2.5-0.1
					l61,57.7c0.7,0.7,0.7,1.8,0.1,2.5C1739.6,2295.5,1739.1,2295.7,1738.6,2295.7z"/>
			</g>
			<g>
				<path class="st10" d="M2093.6,2295.7c-0.5,0-1-0.2-1.3-0.5c-0.7-0.7-0.6-1.8,0.1-2.5l61-57.7c0.7-0.7,1.8-0.6,2.5,0.1
					c0.7,0.7,0.6,1.8-0.1,2.5l-61,57.7C2094.5,2295.5,2094,2295.7,2093.6,2295.7z"/>
			</g>
		</g>
	</g>
</g>
<g id="smallcar">
	<g>
		<g>
			<path class="st5" d="M2392.6,2440.1c0-10.7-8.6-19.3-19.3-19.3h-8.6c-10.7,0-19.3,8.6-19.3,19.3v51.5c0,10.7,8.6,19.3,19.3,19.3
				h8.6c10.7,0,19.3-8.6,19.3-19.3V2440.1z"/>
			<path class="st5" d="M2658.3,2440.1c0-10.7-8.6-19.3-19.3-19.3h-8.6c-10.7,0-19.3,8.6-19.3,19.3v51.5c0,10.7,8.6,19.3,19.3,19.3
				h8.6c10.7,0,19.3-8.6,19.3-19.3V2440.1z"/>
		</g>
		<g>
			
				<linearGradient id="SVGID_3_" gradientUnits="userSpaceOnUse" x1="2478.844" y1="1780.4435" x2="2444.5474" y2="1660.4049" gradientTransform="matrix(1 0 0 -1 0 3710)">
				<stop  offset="0" style="stop-color:#FF928E"/>
				<stop  offset="1" style="stop-color:#FE7062"/>
			</linearGradient>
			<path class="st14" d="M2371,2343.6c-0.6-0.1-1.3-0.6-1.3-1.2v-3.9c0-3.8-1.8-7.3-5.2-9c-4.4-2.2-9.4-2.3-13.9-0.2l-7.7,3.8
				c-3.9,1.8-6,5.8-6,10.1v3c0,5.6,3.7,10.3,9.2,11l33.6,4.6l3.9-15.4L2371,2343.6z"/>
			
				<linearGradient id="SVGID_4_" gradientUnits="userSpaceOnUse" x1="602.2813" y1="3627.4778" x2="567.9846" y2="3507.4395" gradientTransform="matrix(-1 0 0 -1 2602.375 3710)">
				<stop  offset="0" style="stop-color:#FF928E"/>
				<stop  offset="1" style="stop-color:#FE7062"/>
			</linearGradient>
			<path class="st15" d="M2634.5,2343.6c0.6-0.1,1-0.6,1-1.2v-3.9c0-3.8,2.1-7.3,5.5-9c4.4-2.2,9.6-2.3,14-0.2l8.6,3.8
				c3.9,1.8,6.8,5.8,6.8,10.1v3c0,5.6-4.6,10.3-10.1,11l-34,4.6l-4.3-15.4L2634.5,2343.6z"/>
		</g>
		<path class="st4" d="M2659.1,2377.6c-4.9-16.5-30.1-31.8-30.1-31.8s-21.2-65.1-44-65.1c-18.3,0-62.3,0-78.9,0c0,0-2.4,0-6.5,0
			c-16.7,0-60.7,0-79.1,0c-22.8,0-44,65.1-44,65.1s-25.3,15.3-30.1,31.7c-3.6,12,4.1,58.6,8.6,82.5c1.6,8.4,9.5,15,18.8,15h125.8
			h6.5h125.6c9.3,0,17.3-6.6,18.8-15C2654.9,2436.2,2662.7,2389.7,2659.1,2377.6z"/>
		<path class="st8" d="M2655.9,2446.7c-1.4-1.6-3.6-3-5.9-3h-294.7c-2.3,0-4.4,1.4-5.8,2.9c-1.4,1.6-2,3.9-1.4,5.9l4.8,19.6
			c0.7,3.1,3.8,5.8,7.3,5.8H2645c3.5,0,6.5-2.5,7.3-5.6l5-19.6C2657.9,2450.9,2657.3,2448.3,2655.9,2446.7z"/>
		<g id="head-lamp-small">
			<g>
				<path class="st10" d="M2423.2,2417.2c0,0-7.3-22-16.6-23.9c-9.2-1.9-48.3-10.1-49.1-3.3s-8.7,30.1,14.7,32.3
					C2395.4,2424.5,2426.9,2426.3,2423.2,2417.2z"/>
			</g>
			<g>
				<path class="st10" d="M2582.3,2417.2c0,0,7.3-22,16.6-23.9c9.2-1.9,48.3-10.1,49.1-3.3s8.7,30.1-14.7,32.3
					C2610,2424.5,2578.5,2426.3,2582.3,2417.2z"/>
			</g>
		</g>
		<path class="st8" d="M2577,2398c-0.7-1.2-2-2.2-3.5-2.2h-141.7c-1.4,0-2.8,1.1-3.5,2.4c-0.7,1.3-0.8,2.9-0.1,4.2l8,15.4
			c3,5.6,8.8,9.4,15.1,9.4h104.2c6.7,0,12.8-4.3,15.6-10.4l6.3-14.5C2577.9,2401,2577.8,2399.2,2577,2398z"/>
		<g>
			<path class="st10" d="M2615.7,2351.3c-1,1.4-2.5,2.4-4.1,2.4h-217.5c-1.7,0-3.3-1-4.2-2.4c-0.9-1.4-1-3.3-0.3-4.9
				c5-10.4,14.2-29.7,19.4-40.5c0.2-0.5,0.5-1,0.8-1.4c2.5-4,6.9-6.5,11.7-6.5h164.4c4.8,0,9.2,2.5,11.8,6.5c0.3,0.5,0.7,1.2,1,1.8
				l17.5,40.2C2616.7,2348,2616.5,2349.8,2615.7,2351.3z"/>
			<path class="st6" d="M2597.6,2304.5c-11.5,2.2-45.3,8-96.5,8c-51.5,0-81.7-5.8-91.5-8c2.5-4,6.9-6.5,11.7-6.5h164.4
				C2590.6,2297.9,2595.1,2300.4,2597.6,2304.5z"/>
		</g>
		<g>
			<g>
				<path class="st10" d="M2419.6,2387.2c-0.2,0-0.4-0.1-0.5-0.2l-28.2-26.6c-0.3-0.3-0.3-0.8,0-1.2c0.3-0.3,0.8-0.3,1.2,0
					l28.2,26.6c0.3,0.3,0.3,0.8,0,1.2C2420.1,2387.2,2419.9,2387.2,2419.6,2387.2z"/>
			</g>
			<g>
				<path class="st10" d="M2583.7,2387.2c-0.2,0-0.4-0.1-0.6-0.3c-0.3-0.3-0.3-0.8,0-1.2l28.2-26.6c0.3-0.3,0.8-0.3,1.2,0
					c0.3,0.3,0.3,0.8,0,1.2l-28.2,26.6C2584.1,2387.2,2583.9,2387.2,2583.7,2387.2z"/>
			</g>
		</g>
	</g>
</g>
<g id="person">
	<g>
		<linearGradient id="leftshoe_1_" gradientUnits="userSpaceOnUse" x1="1228.4565" y1="2144.4282" x2="1672.6809" y2="2144.4282">
			<stop  offset="0" style="stop-color:#FEBBBA"/>
			<stop  offset="1" style="stop-color:#FF928E"/>
		</linearGradient>
		<path id="leftshoe_7_" class="st16" d="M1503.3,2565.2l-78.4-36l-13.9-2.2c0,0-3,16.9-4.4,33.5L1503.3,2565.2z"/>
		<linearGradient id="SVGID_5_" gradientUnits="userSpaceOnUse" x1="1228.4565" y1="2144.4282" x2="1672.6809" y2="2144.4282">
			<stop  offset="0" style="stop-color:#FEBBBA"/>
			<stop  offset="1" style="stop-color:#FF928E"/>
		</linearGradient>
		<path class="st17" d="M1408.6,2517l2.4,20.1c0,0,13.7,6.4,23.1-0.8l-5.7-22.4L1408.6,2517z"/>
		<linearGradient id="SVGID_6_" gradientUnits="userSpaceOnUse" x1="1228.4565" y1="2144.4282" x2="1672.6809" y2="2144.4282">
			<stop  offset="0" style="stop-color:#FEBBBA"/>
			<stop  offset="1" style="stop-color:#FF928E"/>
		</linearGradient>
		<path class="st18" d="M1410.4,2138.4c-1,5.2-5.6,262.5,22,377.7c0.5,1.9-0.5,3.8-2.3,4.6c-4.2,1.7-12.5,4.2-22.4,4.6
			c-3.1,0.1-5.8-1.9-6.7-4.8c-7.9-26.7-45.5-160.7-50.4-288.7c-5.5-143,0-4.9,0-4.9l3.2-88.4H1410.4z"/>
		<linearGradient id="SVGID_7_" gradientUnits="userSpaceOnUse" x1="1228.4565" y1="2144.4282" x2="1672.6809" y2="2144.4282">
			<stop  offset="0" style="stop-color:#FEBBBA"/>
			<stop  offset="1" style="stop-color:#FF928E"/>
		</linearGradient>
		<path class="st19" d="M1352.3,2568.9c-1-8.2-4.1-21.8-13.7-32.3l-17.7-1c0,0-4.8,8.5-9.3,31.1L1352.3,2568.9z"/>
		<linearGradient id="SVGID_8_" gradientUnits="userSpaceOnUse" x1="1228.4565" y1="2144.4282" x2="1672.6809" y2="2144.4282">
			<stop  offset="0" style="stop-color:#FEBBBA"/>
			<stop  offset="1" style="stop-color:#FF928E"/>
		</linearGradient>
		<path class="st20" d="M1316.6,2509.8l5.6,30.5c0,0,5.5,4.1,16.5,1.2l-2.7-32.8L1316.6,2509.8z"/>
		<linearGradient id="SVGID_9_" gradientUnits="userSpaceOnUse" x1="1228.4565" y1="2144.4282" x2="1672.6809" y2="2144.4282">
			<stop  offset="0" style="stop-color:#FEBBBA"/>
			<stop  offset="1" style="stop-color:#FF928E"/>
		</linearGradient>
		<path class="st21" d="M1301.6,2146.3c-22.5,135.7,4.9,335.4,14.1,374.5c0.5,2.4,2.5,4.2,4.9,4.6c4.1,0.7,10.9,1.2,17.6-0.7
			c2.3-0.7,3.9-2.7,4-5.2c1.2-31.6-1-225.6,20-302.2c1.1-3.9,3.5-7.3,6.7-9.6l40.6-28.9l3.1-46.7L1301.6,2146.3z"/>
		<g>
			<linearGradient id="SVGID_10_" gradientUnits="userSpaceOnUse" x1="1228.4565" y1="2144.4282" x2="1672.6809" y2="2144.4282">
				<stop  offset="0" style="stop-color:#FEBBBA"/>
				<stop  offset="1" style="stop-color:#FF928E"/>
			</linearGradient>
			<path class="st22" d="M1444.8,1889.2c-67.4-1.1-141.7,17.7-141.7,17.7c-20.1,117.2-3.5,252.4-3.5,252.4
				c52.1,13.7,111-8.4,111-8.4c8.7-49,49.1-186.9,49.1-186.9c32.9-4.1,60-13.6,82.4-26.2c-17.1-19.8-25.1-44.9-28.5-59.8
				C1489.8,1885.5,1465.6,1889.5,1444.8,1889.2z"/>
			<linearGradient id="SVGID_11_" gradientUnits="userSpaceOnUse" x1="1228.4565" y1="2144.4282" x2="1672.6809" y2="2144.4282">
				<stop  offset="0" style="stop-color:#FEBBBA"/>
				<stop  offset="1" style="stop-color:#FF928E"/>
			</linearGradient>
			<path class="st23" d="M1643.9,1789.9c-6.6-8-15-4.2-15-4.2c-9.7,41-64.8,76.8-115.4,92.4c3.5,14.9,11.5,40,28.5,59.8
				C1630.8,1888,1643.9,1789.9,1643.9,1789.9z"/>
		</g>
		<g>
			<linearGradient id="SVGID_12_" gradientUnits="userSpaceOnUse" x1="1228.4565" y1="2144.4282" x2="1672.6809" y2="2144.4282">
				<stop  offset="0" style="stop-color:#FEBBBA"/>
				<stop  offset="1" style="stop-color:#FF928E"/>
			</linearGradient>
			<path class="st24" d="M1642.3,1791.9c0.7,2.2-7.3,5.6-12-3.5c-0.1-4.3-2.8-22.8-0.2-26.3c13.7-18.7,40.4-42.2,40.4-42.2
				c4.5,4.4,0.8,8.8,0.8,8.8l-12.9,13.5c2.7,4.9,6,9,7.5,14.9c1.2,4.5,0.5,9.2-1.8,13.3c-2.2,4.1-5.4,9.4-8.3,13.5
				C1650.2,1791.9,1642.3,1791.9,1642.3,1791.9z"/>
			<linearGradient id="SVGID_13_" gradientUnits="userSpaceOnUse" x1="1228.4565" y1="2144.4282" x2="1672.6809" y2="2144.4282">
				<stop  offset="0" style="stop-color:#FEBBBA"/>
				<stop  offset="1" style="stop-color:#FF928E"/>
			</linearGradient>
			<path class="st25" d="M1652.6,1751l-11.8,10l-3.7,9.9l10.5,11.6c0,0,3.5-19.7,6.2-24C1656.4,1754.2,1655.1,1752.2,1652.6,1751z"
				/>
		</g>
		<linearGradient id="SVGID_14_" gradientUnits="userSpaceOnUse" x1="1228.4565" y1="2144.4282" x2="1672.6809" y2="2144.4282">
			<stop  offset="0" style="stop-color:#FEBBBA"/>
			<stop  offset="1" style="stop-color:#FF928E"/>
		</linearGradient>
		<path class="st26" d="M1328.9,1972.1l-25.8-65.3c0,0-62.9,42.8-73.3,97c11.9,0.9,33.5,3.9,54.7,14.7
			C1289.2,1992.9,1328.9,1972.1,1328.9,1972.1z"/>
		<linearGradient id="SVGID_15_" gradientUnits="userSpaceOnUse" x1="1228.4565" y1="2144.4282" x2="1672.6809" y2="2144.4282">
			<stop  offset="0" style="stop-color:#FEBBBA"/>
			<stop  offset="1" style="stop-color:#FF928E"/>
		</linearGradient>
		<path class="st27" d="M1384,2033.5c0,0-70.7,40-94.5,5.8c-5-7.1-6.1-14.1-4.9-20.8c-21.2-10.7-42.8-13.8-54.7-14.7
			c-3.1,16.3-1.5,33.7,8.2,51.3c41.7,76.4,155.3-4.2,155.3-4.2L1384,2033.5z"/>
		<g>
			<linearGradient id="register_1_" gradientUnits="userSpaceOnUse" x1="1228.4565" y1="2144.4282" x2="1672.6809" y2="2144.4282">
				<stop  offset="0" style="stop-color:#FEBBBA"/>
				<stop  offset="1" style="stop-color:#FF928E"/>
			</linearGradient>
			<path id="register_7_" class="st28" d="M1375.5,2084l38.5-134.7c0.4-1.5,1.8-2.7,3.3-2.9c7-0.8,27.3-3.1,50.6-5.1
				c28.1-2.4,60.8-4.3,80.4-2.7c2.8,0.2,4.5,3.2,3.2,5.6c-11.1,22.5-56.8,113.9-79.7,143.9c-0.7,1-1.9,1.6-3.2,1.6l-89.5-0.8
				C1376.7,2089,1374.8,2086.5,1375.5,2084z"/>
			<linearGradient id="SVGID_16_" gradientUnits="userSpaceOnUse" x1="1228.4565" y1="2144.4282" x2="1672.6809" y2="2144.4282">
				<stop  offset="0" style="stop-color:#FEBBBA"/>
				<stop  offset="1" style="stop-color:#FF928E"/>
			</linearGradient>
			<path class="st29" d="M1384.8,2051.4c0,0-5.4-22.1-3.2-29.9c2.2-7.8,6.4-17.9,20.4-15.7c14,2.2,30.5,8.2,30.5,8.2
				s-0.8,10.2-11.5,6.9l6.6,5.1c0,0-1,8.2-9.9,3.8l6.1,6.8c0,0-3.9,6.7-10.5,2.4C1406.7,2034.7,1403.5,2054.2,1384.8,2051.4z"/>
		</g>
		<linearGradient id="SVGID_17_" gradientUnits="userSpaceOnUse" x1="1228.4565" y1="2144.4282" x2="1672.6809" y2="2144.4282">
			<stop  offset="0" style="stop-color:#FEBBBA"/>
			<stop  offset="1" style="stop-color:#FF928E"/>
		</linearGradient>
		<path class="st30" d="M1376.6,1834.5l-21.4,62c-0.3,1,0.1,2.2,1,2.7c5.8,3.3,26.9,12.6,52.3-3.5c2.7-1.7,4.4-4.4,4.8-7.5l6.9-53.6
			H1376.6z"/>
		<linearGradient id="SVGID_18_" gradientUnits="userSpaceOnUse" x1="1228.4565" y1="2144.4282" x2="1672.6809" y2="2144.4282">
			<stop  offset="0" style="stop-color:#FEBBBA"/>
			<stop  offset="1" style="stop-color:#FF928E"/>
		</linearGradient>
		<path class="st31" d="M1423.2,1777c0,0,23.5,44.3,20.5,62.2c-3,17.9-32.2,16.6-57.6,2.1l-17.8-47.9L1423.2,1777z"/>
		<linearGradient id="SVGID_19_" gradientUnits="userSpaceOnUse" x1="1228.4565" y1="2144.4282" x2="1672.6809" y2="2144.4282">
			<stop  offset="0" style="stop-color:#FEBBBA"/>
			<stop  offset="1" style="stop-color:#FF928E"/>
		</linearGradient>
		<path class="st32" d="M1408.3,1739.8c-25.7,14.8-50.5,24.8-56.1,37.2c-5.6,12.4-5.9,19.2-1.8,22.7c4.1,3.5,0,30.4,22.7,39.4l0,0
			c3.1,1.2,6.7,0.7,9.3-1.5c2.6-2.2,3.8-5.6,3.1-8.8l-2.1-10.7c0,0,0.9,1.2,4.1,1s-2.2-7.9-3.6-11c-1.4-3.2-6.3-11.1,1.6-11.2
			c7.9-0.2,41.5-4.9,49.7-17.9C1443.5,1766,1434,1725.1,1408.3,1739.8z"/>
		<linearGradient id="SVGID_20_" gradientUnits="userSpaceOnUse" x1="1228.4565" y1="2144.4282" x2="1672.6809" y2="2144.4282">
			<stop  offset="0" style="stop-color:#FEBBBA"/>
			<stop  offset="1" style="stop-color:#FF928E"/>
		</linearGradient>
		<path class="st33" d="M1389.9,1820.6c0,0-16.8-11.5-18-1.8c-1.2,9.7,15.1,14,23.2,10.4L1389.9,1820.6z"/>
		<g>
			<linearGradient id="SVGID_21_" gradientUnits="userSpaceOnUse" x1="1228.4565" y1="2144.4282" x2="1672.6809" y2="2144.4282">
				<stop  offset="0" style="stop-color:#FEBBBA"/>
				<stop  offset="1" style="stop-color:#FF928E"/>
			</linearGradient>
			<path class="st34" d="M1426.1,1778.5c-0.2,0-0.4-0.1-0.5-0.2c-0.3-0.3-0.4-0.9-0.1-1.2c0.5-0.5,11.6-13.9-2.8-32.4
				c-0.3-0.4-0.2-1,0.1-1.2c0.4-0.3,1-0.2,1.2,0.1c15.2,19.6,2.9,34.5,2.7,34.6C1426.6,1778.4,1426.4,1778.5,1426.1,1778.5z"/>
		</g>
	</g>
	<g>
		<path id="leftshoe_6_" class="st35" d="M1503.3,2565.2l-78.4-36l-13.9-2.2c0,0-3,16.9-4.4,33.5L1503.3,2565.2z"/>
		
			<linearGradient id="SVGID_22_" gradientUnits="userSpaceOnUse" x1="4772.2578" y1="1183.1914" x2="4797.749" y2="1183.1914" gradientTransform="matrix(1 0 0 -1 -3363.6506 3710)">
			<stop  offset="0" style="stop-color:#FEBBBA"/>
			<stop  offset="1" style="stop-color:#FF928E"/>
		</linearGradient>
		<path class="st36" d="M1408.6,2517l2.4,20.1c0,0,13.7,6.4,23.1-0.8l-5.7-22.4L1408.6,2517z"/>
		<path class="st37" d="M1410.4,2138.4c-1,5.2-5.6,262.5,22,377.7c0.5,1.9-0.5,3.8-2.3,4.6c-4.2,1.7-12.5,4.2-22.4,4.6
			c-3.1,0.1-5.8-1.9-6.7-4.8c-7.9-26.7-45.5-160.7-50.4-288.7c-5.5-143,0-4.9,0-4.9l3.2-88.4H1410.4z"/>
		<path class="st35" d="M1352.3,2568.9c-1-8.2-4.1-21.8-13.7-32.3l-17.7-1c0,0-4.8,8.5-9.3,31.1L1352.3,2568.9z"/>
		
			<linearGradient id="SVGID_23_" gradientUnits="userSpaceOnUse" x1="4680.3145" y1="1184.4463" x2="4702.3384" y2="1184.4463" gradientTransform="matrix(1 0 0 -1 -3363.6506 3710)">
			<stop  offset="0" style="stop-color:#FEBBBA"/>
			<stop  offset="1" style="stop-color:#FF928E"/>
		</linearGradient>
		<path class="st38" d="M1316.6,2509.8l5.6,30.5c0,0,5.5,4.1,16.5,1.2l-2.7-32.8L1316.6,2509.8z"/>
		<path class="st5" d="M1301.6,2146.3c-22.5,135.7,4.9,335.4,14.1,374.5c0.5,2.4,2.5,4.2,4.9,4.6c4.1,0.7,10.9,1.2,17.6-0.7
			c2.3-0.7,3.9-2.7,4-5.2c1.2-31.6-1-225.6,20-302.2c1.1-3.9,3.5-7.3,6.7-9.6l40.6-28.9l3.1-46.7L1301.6,2146.3z"/>
		<g>
			<path class="st4" d="M1444.8,1889.2c-67.4-1.1-141.7,17.7-141.7,17.7c-20.1,117.2-3.5,252.4-3.5,252.4c52.1,13.7,111-8.4,111-8.4
				c8.7-49,49.1-186.9,49.1-186.9c32.9-4.1,60-13.6,82.4-26.2c-17.1-19.8-25.1-44.9-28.5-59.8
				C1489.8,1885.5,1465.6,1889.5,1444.8,1889.2z"/>
			<linearGradient id="SVGID_24_" gradientUnits="userSpaceOnUse" x1="1513.4944" y1="1861.2983" x2="1643.8724" y2="1861.2983">
				<stop  offset="0" style="stop-color:#FEBBBA"/>
				<stop  offset="1" style="stop-color:#FF928E"/>
			</linearGradient>
			<path class="st39" d="M1643.9,1789.9c-6.6-8-15-4.2-15-4.2c-9.7,41-64.8,76.8-115.4,92.4c3.5,14.9,11.5,40,28.5,59.8
				C1630.8,1888,1643.9,1789.9,1643.9,1789.9z"/>
		</g>
		<g>
			
				<linearGradient id="SVGID_25_" gradientUnits="userSpaceOnUse" x1="1931.3186" y1="1987.0309" x2="1976.3262" y2="1858.4375" gradientTransform="matrix(-1 0 0 -1 3593.6316 3710)">
				<stop  offset="0" style="stop-color:#FEBBBA"/>
				<stop  offset="1" style="stop-color:#FF928E"/>
			</linearGradient>
			<path class="st40" d="M1642.3,1791.9c0.7,2.2-7.3,5.6-12-3.5c-0.1-4.3-2.8-22.8-0.2-26.3c13.7-18.7,40.4-42.2,40.4-42.2
				c4.5,4.4,0.8,8.8,0.8,8.8l-12.9,13.5c2.7,4.9,6,9,7.5,14.9c1.2,4.5,0.5,9.2-1.8,13.3c-2.2,4.1-5.4,9.4-8.3,13.5
				C1650.2,1791.9,1642.3,1791.9,1642.3,1791.9z"/>
			
				<linearGradient id="SVGID_26_" gradientUnits="userSpaceOnUse" x1="1965.8999" y1="1904.8683" x2="1931.9977" y2="1973.2576" gradientTransform="matrix(-1 0 0 -1 3593.6316 3710)">
				<stop  offset="0" style="stop-color:#FEBBBA"/>
				<stop  offset="1" style="stop-color:#FF928E"/>
			</linearGradient>
			<path class="st41" d="M1652.6,1751l-11.8,10l-3.7,9.9l10.5,11.6c0,0,3.5-19.7,6.2-24C1656.4,1754.2,1655.1,1752.2,1652.6,1751z"
				/>
		</g>
		<path class="st4" d="M1328.9,1972.1l-25.8-65.3c0,0-62.9,42.8-73.3,97c11.9,0.9,33.5,3.9,54.7,14.7
			C1289.2,1992.9,1328.9,1972.1,1328.9,1972.1z"/>
		
			<linearGradient id="SVGID_27_" gradientUnits="userSpaceOnUse" x1="4592.1074" y1="1664.0361" x2="4757.0313" y2="1664.0361" gradientTransform="matrix(1 0 0 -1 -3363.6506 3710)">
			<stop  offset="0" style="stop-color:#FEBBBA"/>
			<stop  offset="1" style="stop-color:#FF928E"/>
		</linearGradient>
		<path class="st42" d="M1384,2033.5c0,0-70.7,40-94.5,5.8c-5-7.1-6.1-14.1-4.9-20.8c-21.2-10.7-42.8-13.8-54.7-14.7
			c-3.1,16.3-1.5,33.7,8.2,51.3c41.7,76.4,155.3-4.2,155.3-4.2L1384,2033.5z"/>
		<g>
			<path id="register_6_" class="st5" d="M1375.5,2084l38.5-134.7c0.4-1.5,1.8-2.7,3.3-2.9c7-0.8,27.3-3.1,50.6-5.1
				c28.1-2.4,60.8-4.3,80.4-2.7c2.8,0.2,4.5,3.2,3.2,5.6c-11.1,22.5-56.8,113.9-79.7,143.9c-0.7,1-1.9,1.6-3.2,1.6l-89.5-0.8
				C1376.7,2089,1374.8,2086.5,1375.5,2084z"/>
			<linearGradient id="SVGID_28_" gradientUnits="userSpaceOnUse" x1="1381.1019" y1="2028.6034" x2="1432.5348" y2="2028.6034">
				<stop  offset="0" style="stop-color:#FEBBBA"/>
				<stop  offset="1" style="stop-color:#FF928E"/>
			</linearGradient>
			<path class="st43" d="M1384.8,2051.4c0,0-5.4-22.1-3.2-29.9c2.2-7.8,6.4-17.9,20.4-15.7c14,2.2,30.5,8.2,30.5,8.2
				s-0.8,10.2-11.5,6.9l6.6,5.1c0,0-1,8.2-9.9,3.8l6.1,6.8c0,0-3.9,6.7-10.5,2.4C1406.7,2034.7,1403.5,2054.2,1384.8,2051.4z"/>
		</g>
		
			<linearGradient id="SVGID_29_" gradientUnits="userSpaceOnUse" x1="4718.71" y1="1840.3622" x2="4783.8818" y2="1840.3622" gradientTransform="matrix(1 0 0 -1 -3363.6506 3710)">
			<stop  offset="0" style="stop-color:#FEBBBA"/>
			<stop  offset="1" style="stop-color:#FF928E"/>
		</linearGradient>
		<path class="st44" d="M1376.6,1834.5l-21.4,62c-0.3,1,0.1,2.2,1,2.7c5.8,3.3,26.9,12.6,52.3-3.5c2.7-1.7,4.4-4.4,4.8-7.5l6.9-53.6
			H1376.6z"/>
		
			<linearGradient id="SVGID_30_" gradientUnits="userSpaceOnUse" x1="-1372.2704" y1="2482.6343" x2="-1396.637" y2="2563.001" gradientTransform="matrix(0.746 -0.6659 -0.6659 -0.746 4112.6499 2766.3801)">
			<stop  offset="0" style="stop-color:#FEBBBA"/>
			<stop  offset="1" style="stop-color:#FF928E"/>
		</linearGradient>
		<path class="st45" d="M1423.2,1777c0,0,23.5,44.3,20.5,62.2c-3,17.9-32.2,16.6-57.6,2.1l-17.8-47.9L1423.2,1777z"/>
		<path class="st46" d="M1408.3,1739.8c-25.7,14.8-50.5,24.8-56.1,37.2c-5.6,12.4-5.9,19.2-1.8,22.7c4.1,3.5,0,30.4,22.7,39.4l0,0
			c3.1,1.2,6.7,0.7,9.3-1.5c2.6-2.2,3.8-5.6,3.1-8.8l-2.1-10.7c0,0,0.9,1.2,4.1,1s-2.2-7.9-3.6-11c-1.4-3.2-6.3-11.1,1.6-11.2
			c7.9-0.2,41.5-4.9,49.7-17.9C1443.5,1766,1434,1725.1,1408.3,1739.8z"/>
		
			<linearGradient id="SVGID_31_" gradientUnits="userSpaceOnUse" x1="-1397.1769" y1="2483.0093" x2="-1419.0999" y2="2555.3167" gradientTransform="matrix(0.746 -0.6659 -0.6659 -0.746 4112.6499 2766.3801)">
			<stop  offset="0" style="stop-color:#FEBBBA"/>
			<stop  offset="1" style="stop-color:#FF928E"/>
		</linearGradient>
		<path class="st47" d="M1389.9,1820.6c0,0-16.8-11.5-18-1.8c-1.2,9.7,15.1,14,23.2,10.4L1389.9,1820.6z"/>
		<g class="st48">
			
				<linearGradient id="SVGID_32_" gradientUnits="userSpaceOnUse" x1="1422.5057" y1="1949.075" x2="1431.6803" y2="1949.075" gradientTransform="matrix(1 0 0 -1 0 3710)">
				<stop  offset="0" style="stop-color:#DAE3FE"/>
				<stop  offset="1" style="stop-color:#E9EFFD"/>
			</linearGradient>
			<path class="st49" d="M1426.1,1778.5c-0.2,0-0.4-0.1-0.5-0.2c-0.3-0.3-0.4-0.9-0.1-1.2c0.5-0.5,11.6-13.9-2.8-32.4
				c-0.3-0.4-0.2-1,0.1-1.2c0.4-0.3,1-0.2,1.2,0.1c15.2,19.6,2.9,34.5,2.7,34.6C1426.6,1778.4,1426.4,1778.5,1426.1,1778.5z"/>
		</g>
	</g>
</g>
<path id="map2" class="st3" d="M2638.9,2146.8c0-19.5-20.4-31.9-41.4-22.1c-4.7,2.2-8.6,6-11,10.5c-5.3,10.2-3,21.8,1.8,31.4
	l16.3,41.3c2.4,6,10.8,5.9,13,0l15.9-41.5C2639.1,2153.8,2638.9,2146.8,2638.9,2146.8z M2619.3,2163.8c-14,8.1-28.3-6.9-20.6-21.9
	c1.1-2,2.6-3.6,4.4-4.8c14.1-8.1,28.3,6.9,20.6,21.9C2622.7,2161,2621.2,2162.7,2619.3,2163.8z"/>
<path id="map1" class="st3" d="M1299.3,1601.8c0-48.9-51.3-80-103.7-55.5c-11.7,5.4-21.6,15-27.6,26.4c-13.2,25.5-7.5,54.6,4.5,78.8
	l40.8,103.4c6,15,27,14.7,32.7,0l39.9-104C1299.9,1619.5,1299.3,1601.8,1299.3,1601.8z M1250.1,1644.4
	c-35.1,20.4-71.1-17.4-51.6-54.9c2.7-5.1,6.6-9,11.1-12c35.4-20.4,71.1,17.4,51.6,54.9C1258.8,1637.5,1254.9,1641.7,1250.1,1644.4z"
	/>
</svg>
