<svg xmlns="http://www.w3.org/2000/svg" viewBox="0 0 479.84 448.56"><title>Asset 1</title><g id="Layer_2" data-name="Layer 2"><g id="Layer_1-2" data-name="Layer 1"><path id="ab-circle" d="M319.69,329.76A126,126,0,0,1,300.4,346C237.47,391.14,163,378,147.18,374.77,123.82,370,78.64,360.85,46,322.44-3.44,264.33,4.26,172.79,42.58,112.36c7-11.06,44-72.41,119.31-82.24,45.55-6,98.65,6.06,137.09,38.27C379.7,136,374,272.63,319.69,329.76Z" style="fill:#f9f9f9"/><g id="ab-leaf2"><path d="M474.09,213.15S462.8,206.24,450.2,233,433,275.18,433,275.18s-3.46,5.64-7.35,2.13-9.4-13.55-15.77-11.54c-6.67,2.09-8.63,9.7-7.07,20.59s4.3,35,4.52,37.13-.9,5.26-4,3.37-20.77-20.56-29.06-11.52,1.2,38.7,2.2,42,.4,4.69-1.22,5.53-6.9-6-12.22-11-12.31-10-16.62-4.52-5.15,28.11,17.52,64l11.54,15.85,19.74-1.72c41.92-6.28,58.56-21.55,59.89-28.43s-6.95-9-14.18-9.66-16-.4-16.33-2.07.36-3.18,3.47-4.58,31.83-13.48,33.28-25.68-24.25-13.47-27.66-14.52-1.81-4,0-5.24,21.84-14.85,31.15-20.81,13.78-12.29,11.08-18.62-13.86-3.82-19-4.42-3-6.94-3-6.94S462.51,271,474.65,244s-.83-31.11-.83-31.11" style="fill:#f7f7f7"/><path d="M372.58,430.94c8.95-19.86,25.59-54.72,39.63-84.85S439,288.75,448,269c4.56-9.82,8.11-17.89,10.78-23.4,1.29-2.71,2.24-5,2.84-6.37a8.71,8.71,0,0,0,.71-1.69,1.38,1.38,0,0,0,.24-.56,1.38,1.38,0,0,1-.24.56,8.89,8.89,0,0,0-.71,1.69c-.7,1.5-1.55,3.66-2.84,6.37-2.47,5.53-6,13.59-10.5,23.52-8.95,19.85-21.69,47.08-35.62,77.11S382,411.22,373,431" style="fill:#e0e0e0"/></g><g id="ab-leaf1"><path d="M400.86,109.05S388,106,384.4,135.37s-3.11,45.47-3.11,45.47-1.51,6.44-6.31,4.33-13.18-9.92-18.59-6c-5.68,4.07-5.15,11.91-.25,21.76s15.06,31.86,15.94,33.84.8,5.28-2.7,4.44-26.17-13-31.2-1.82,13.28,36.38,15.26,39.18,1.85,4.32.58,5.63-8.43-3.51-15-6.57-14.82-5.64-17.2.92,3.94,28.31,36.71,55.23l15.94,11.44,18.2-7.84c37.83-19.11,48.84-38.83,47.94-45.78s-9.42-6.35-16.5-4.73-15.29,4.64-16.15,3.16-.66-3.12,1.86-5.43,26-22.79,23.54-34.83-27.25-5.18-30.82-5.11-3-3.25-1.62-5,16.08-21,23-29.53,9.23-16,4.68-21.16-14.35.73-19.47,1.78-5.06-5.63-5.06-5.63,4-15.51,7-45-10.55-29.28-10.55-29.28" style="fill:#f7f7f7"/><path d="M372.82,347.69c2.27-21.66,7.13-60,11-93s7.42-62.85,9.8-84.44c1.26-10.76,2.1-19.53,2.9-25.6.37-3,.57-5.41.69-6.94a8.45,8.45,0,0,0,.15-1.82,1.45,1.45,0,0,0,.05-.62,1.45,1.45,0,0,1-.05.62,9.89,9.89,0,0,0-.15,1.82c-.19,1.65-.32,4-.69,6.94-.62,6-1.46,14.8-2.59,25.63-2.27,21.66-5.82,51.5-9.62,84.39S375.59,326,373.2,347.6" style="fill:#e0e0e0"/></g><g id="ab-small-plant"><path d="M23.46,367.88a15.55,15.55,0,0,1,9.1,7.73,27.65,27.65,0,0,1,2.74,11.85c.25,7.85-3,16.33-6.86,23.32C21.09,406,18.1,396.31,17,391.2,15.1,383.1,16.47,367.64,23.46,367.88Z" style="fill:#0acc86"/><path d="M37.91,422.37c-1.74-4.24-.49-9.35,2.37-12.84a17.12,17.12,0,0,1,12-5.74c2.12-.12,4.49.13,5.86,1.63A5.63,5.63,0,0,1,59,411a10.56,10.56,0,0,1-3.49,4.61C50.38,420,44.65,423.25,37.91,422.37Z" style="fill:#0acc86"/><path d="M32.93,447.31v-1.62c0-1.12.12-2.62.12-4.37.25-3.74.38-9,2.5-14.46a28.28,28.28,0,0,1,8.35-12,22.2,22.2,0,0,1,3.74-2.37c.5-.25.88-.37,1.12-.5a1,1,0,0,1,.38-.12,28.42,28.42,0,0,0-5,3.24A28.57,28.57,0,0,0,36.05,427c-2,5.37-2.25,10.6-2.62,14.22-.13,1.87-.25,3.37-.38,4.36C33.05,446.81,33.05,447.31,32.93,447.31Z" style="fill:#263238"/><path d="M23.45,379.73a1.58,1.58,0,0,1,.12.63,16.57,16.57,0,0,1,.38,2c.37,1.74.87,4.24,1.37,7.36,1.12,6.23,2.49,14.71,3.87,24.31s2.37,18.08,3,24.44c.38,3.11.62,5.61.75,7.35a13.52,13.52,0,0,1,.12,2v.75a1.88,1.88,0,0,1-.12-.75c-.13-.5-.13-1.12-.25-2-.25-1.87-.5-4.36-.88-7.35-.74-6.24-1.87-14.84-3.11-24.32S26,396.07,25,389.83c-.5-3-.87-5.48-1.25-7.35a16.2,16.2,0,0,1-.25-2C23.45,380,23.33,379.73,23.45,379.73Z" style="fill:#263238"/><path d="M27.32,428.73A30.36,30.36,0,0,0,7.74,409.15c-2.37-.74-5.24-1-6.85.88s-.75,4.74.49,6.86a25.89,25.89,0,0,0,25.94,12.47" style="fill:#0acc86"/><path d="M9.86,416.26l1.5.38c.5.12,1,.37,1.74.62a10.21,10.21,0,0,1,2.12,1c.75.37,1.63.87,2.5,1.37a27.47,27.47,0,0,1,2.74,1.87A30.76,30.76,0,0,1,26,426.74a30.24,30.24,0,0,1,4,6.48c.51,1.12.88,2.12,1.25,3.12a12.29,12.29,0,0,1,.75,2.74,19.07,19.07,0,0,1,.5,2.37c.13.75.13,1.24.25,1.75.12,1,.12,1.49,0,1.49s-.25-2.12-1.12-5.61c-.25-.87-.5-1.75-.87-2.74s-.76-2-1.25-3a35.84,35.84,0,0,0-4-6.36,43.08,43.08,0,0,0-5.36-5.23,17.49,17.49,0,0,0-2.62-1.87,16.74,16.74,0,0,0-2.5-1.37C11.86,417,9.74,416.39,9.86,416.26Z" style="fill:#263238"/></g><g id="ab-tab-device"><path d="M34.16,20.29C32.87,72.37,28.69,252,30.68,315.68a12.78,12.78,0,0,0,12.37,12.38c33.36,1.08,129.32,3.85,183.88,1.56a21.51,21.51,0,0,0,20.63-21.06c1.14-54.66,3.64-208.42-2.31-278.86a17.57,17.57,0,0,0-15.77-16c-36.33-3.64-132.82-12.53-180-9.47A16.52,16.52,0,0,0,34.16,20.29Z" style="fill:#c9c9c9"/><path d="M47.72,36.48c-1.82,42.66-7.56,184.57-5.74,237a14.86,14.86,0,0,0,14,14.33c31.54,1.85,112.44,5.91,158.72,2.21A16.69,16.69,0,0,0,230,274.31c2.34-43.52,9.07-175.65,7.32-227.54A16.38,16.38,0,0,0,222.36,31c-34.12-3.06-121.77-10.35-161.08-8.21A14.31,14.31,0,0,0,47.72,36.48Z" style="fill:#d7ffe7"/><path d="M116.6,13.36h0a3,3,0,0,0,2.83,3c7.89.41,30.08,1.58,40,2.16A3,3,0,0,0,162.55,15l-.07-.32a3,3,0,0,0-2.67-2.43c-6.71-.61-26.93-2.31-40.34-1.83A3,3,0,0,0,116.6,13.36Z" style="fill:#eaeaea"/><path d="M235.45,118.29H197.09a3.83,3.83,0,0,1-3.8-3.82c-.14-34.72-.27-81.47,0-85.9,0,.23-7.07-.48-7.07-.48-.11,2.26.06-.92,0,3.81,0,2.68-.05,6.54-.06,11.45,0,8.22,0,19.59,0,33.78.05,24.13.17,48.4.17,48.64l0,2.68a4.66,4.66,0,0,0,4.62,4.66h8a2.53,2.53,0,0,1,2.51,2.55v44.15a5.23,5.23,0,0,1-5.21,5.26H176.29a5.31,5.31,0,0,1-5-3.55l-15.36-43.11a6.23,6.23,0,0,0-5.83-4.15H131.5a2.46,2.46,0,0,1-2.38-3L152.88,25.61,143.07,25,120.45,128.23a7.6,7.6,0,0,1-7.4,6h-6.89a4.6,4.6,0,0,1-4.57-4.64c0-9.37,0-23,.09-36.61,0-14.19,0-25.54,0-33.74,0-16.39.53-35.33.28-36.4,0,0-4.64-.07-4.64-.16.17,3.32.57,69.35.52,107.21a4.31,4.31,0,0,1-4.28,4.34H87.1a5.55,5.55,0,0,1-5.48-4.86c-4-31-13.76-105.31-14-107-4.45.1-8.53.34-10.66,1.26,0,0,10.76,82,15.72,120h0a6.22,6.22,0,0,0,6.14,5.44h28.89a3.63,3.63,0,0,1,3.31,5L90.68,203.34a7.54,7.54,0,0,1-7,4.71H42.06l-.23,14.8H85.91a9,9,0,0,0,8.34-5.62l26.2-63.59a7.34,7.34,0,0,1,6.78-4.57H147a5.59,5.59,0,0,1,5.27,3.75l10.16,28.53a2.79,2.79,0,0,1-2.58,3.74H131.64a2.53,2.53,0,0,0-2.52,2.55v103h3.74V197.82a4.8,4.8,0,0,1,4.79-4.84H162a6.61,6.61,0,0,1,6.2,4.4l30.24,84.81L204,273.3l-27.36-76.76a2.67,2.67,0,0,1,2.5-3.58h25.9a4.9,4.9,0,0,0,4.86-4.93V137.44a4.31,4.31,0,0,1,4.28-4.33h21.24V118.29Z" style="fill:#fff"/><path d="M207.92,191.14h-36.5a2.12,2.12,0,0,1-2-1.39L151.18,142H78.11A2.16,2.16,0,0,1,76,140.09L62.2,33.41a2.15,2.15,0,0,1,4.27-.56L80,137.65h72.67a2.1,2.1,0,0,1,2,1.39l18.24,47.78h32.86V126.18a2.16,2.16,0,0,1,4.32,0V189A2.16,2.16,0,0,1,207.92,191.14Z" style="fill:#02aa59"/><circle cx="207.73" cy="122.08" r="11.01" style="fill:#02aa59"/></g><g id="ab-park-board"><rect x="351.94" y="12.2" width="10.84" height="371" style="fill:#c9c9c9"/><path d="M425.35,103.35a32,32,0,0,1-32,32H322a32,32,0,0,1-31.95-32V32A32,32,0,0,1,322,0h71.4a32,32,0,0,1,32,32Z" style="fill:#fff"/><path d="M417.92,31.91A25.08,25.08,0,0,0,392.84,6.83H322a25.08,25.08,0,0,0-25.08,25.08v70.88A25.08,25.08,0,0,0,322,127.87h70.9a25.08,25.08,0,0,0,25.08-25.08V31.91Z" style="fill:#cef4e1"/><path d="M329.78,30.11a141.14,141.14,0,0,1,23.48-1.6c10.73,0,18.36,2.06,23.49,6.16A22.43,22.43,0,0,1,385,52.46c0,7.53-2.52,13.92-7.07,18.25-5.93,5.59-14.72,8.09-25,8.09a45.1,45.1,0,0,1-5.93-.34v27.48H329.76V30.11ZM347,65a26.7,26.7,0,0,0,5.81.46c9.25,0,14.94-4.67,14.94-12.54,0-7.07-4.91-11.29-13.58-11.29a29.75,29.75,0,0,0-7.18.68V65Z" style="fill:#02aa59"/></g><g id="ab-car"><path d="M175.27,386.51a15.4,15.4,0,0,0-15.41-15.41H153a15.41,15.41,0,0,0-15.42,15.41v41.13A15.41,15.41,0,0,0,153,443.05h6.86a15.4,15.4,0,0,0,15.41-15.41Z" style="fill:#263238"/><path d="M387.67,386.51a15.41,15.41,0,0,0-15.41-15.41H365.4A15.41,15.41,0,0,0,350,386.51v41.13a15.41,15.41,0,0,0,15.42,15.41h6.86a15.41,15.41,0,0,0,15.41-15.41Z" style="fill:#263238"/><path d="M158.06,309.38c-.46-.1-1.05-.51-1.05-1v-3.16a7.86,7.86,0,0,0-4.18-7.22,12.58,12.58,0,0,0-11.08-.17l-6.22,3.06a8.59,8.59,0,0,0-4.78,8.06v2.41a8.64,8.64,0,0,0,7.41,8.8L165,323.84l3.15-12.28Z" style="fill:#c9c9c9"/><path d="M368.59,309.38a1,1,0,0,0,.82-1v-3.16a8.08,8.08,0,0,1,4.41-7.22,12.84,12.84,0,0,1,11.2-.17l6.9,3.06a9.22,9.22,0,0,1,5.46,8.06v2.41a9.17,9.17,0,0,1-8,8.8l-27.16,3.67-3.41-12.28Z" style="fill:#c9c9c9"/><path d="M388.29,336.55c-3.91-13.18-24.1-25.4-24.1-25.4S347.26,259.2,329,259.2H197.62c-18.23,0-35.16,51.95-35.16,51.95s-20.19,12.2-24.09,25.39c-2.86,9.63,3.33,46.83,6.86,65.95,1.24,6.74,7.61,12,15,12H366.35c7.42,0,13.8-5.25,15-12C384.94,383.37,391.14,346.19,388.29,336.55Z" style="fill:#0acc86"/><path d="M385.74,391.75a6.6,6.6,0,0,0-4.71-2.38H145.6a6.59,6.59,0,0,0-4.69,2.36,5.34,5.34,0,0,0-1.15,4.74l3.86,15.7a6.22,6.22,0,0,0,5.84,4.61H377a6.18,6.18,0,0,0,5.83-4.47l4.05-15.64A5.65,5.65,0,0,0,385.74,391.75Z" style="fill:#02aa59"/><path d="M199.73,368.18s-5.86-17.57-13.24-19.1-38.63-8-39.27-2.6-6.95,24.09,11.72,25.83S202.74,375.47,199.73,368.18Z" style="fill:#fff"/><path d="M326.91,368.18s5.86-17.57,13.23-19.1,38.63-8,39.28-2.6,6.95,24.09-11.73,25.83S323.9,375.47,326.91,368.18Z" style="fill:#fff"/><path d="M322.71,352.9a3.61,3.61,0,0,0-2.75-1.78H206.71a3.65,3.65,0,0,0-2.9,5.25l6.37,12.32a13.93,13.93,0,0,0,12,7.54h83.21a13.86,13.86,0,0,0,12.46-8.31L323,356.28A3.93,3.93,0,0,0,322.71,352.9Z" style="fill:#d7ffe7"/><path d="M353.53,315.51a4.06,4.06,0,0,1-3.33,1.92H176.43a4.14,4.14,0,0,1-3.6-5.86c3.94-8.31,11.35-23.74,15.5-32.35a9.65,9.65,0,0,1,.62-1.14,11.09,11.09,0,0,1,9.35-5.17H329.71a11.1,11.1,0,0,1,9.4,5.22,16.1,16.1,0,0,1,.75,1.43l14,32.13A4,4,0,0,1,353.53,315.51Z" style="fill:#fff"/><path d="M339.12,278.11c-9.21,1.82-36.26,6.34-77.06,6.34-41.14,0-65.27-4.62-73.11-6.41a11.08,11.08,0,0,1,9.35-5.14H329.71A11.13,11.13,0,0,1,339.12,278.11Z" style="fill:#f9f9f9"/><path d="M196.92,344.27a.63.63,0,0,1-.44-.17L174,322.79a.64.64,0,0,1,0-.92.66.66,0,0,1,.92,0l22.51,21.31a.64.64,0,0,1,0,.92A.67.67,0,0,1,196.92,344.27Z" style="fill:#fff"/><path d="M328,344.27a.64.64,0,0,1-.47-.21.63.63,0,0,1,0-.91l22.51-21.31a.67.67,0,0,1,.92,0,.65.65,0,0,1,0,.92l-22.51,21.31A.56.56,0,0,1,328,344.27Z" style="fill:#fff"/></g><path id="ab-map-i-2" d="M161.09,94.53c0-8.19-8.6-13.42-17.39-9.3a10.18,10.18,0,0,0-4.63,4.43c-2.21,4.27-1.25,9.14.76,13.21l6.83,17.34a2.94,2.94,0,0,0,5.48,0l6.68-17.44C161.19,97.5,161.09,94.53,161.09,94.53Zm-8.25,7.14c-5.88,3.42-11.91-2.92-8.64-9.2a5.46,5.46,0,0,1,1.86-2C152,87,158,93.38,154.7,99.66A4.47,4.47,0,0,1,152.84,101.67Z" style="fill:#263238"/><path id="ab-map-i-1" d="M81.66,177.26c0-7.79-8.17-12.76-16.53-8.84a9.6,9.6,0,0,0-4.39,4.2c-2.11,4.06-1.2,8.7.71,12.57L68,201.67a2.79,2.79,0,0,0,5.2,0l6.36-16.58C81.75,180.08,81.66,177.26,81.66,177.26ZM73.82,184c-5.59,3.25-11.32-2.77-8.21-8.74a5.25,5.25,0,0,1,1.77-1.91c5.63-3.25,11.32,2.77,8.21,8.74A4.25,4.25,0,0,1,73.82,184Z" style="fill:#263238"/></g></g></svg>