<svg xmlns="http://www.w3.org/2000/svg" xmlns:xlink="http://www.w3.org/1999/xlink" viewBox="0 0 1823.44 1608.02"><defs><linearGradient id="linear-gradient" x1="983.57" y1="1443.49" x2="909.38" y2="1183.82" gradientTransform="matrix(1, 0, 0, -1, 0, 1788.15)" gradientUnits="userSpaceOnUse"><stop offset="0" stop-color="#ff928e"/><stop offset="1" stop-color="#fe7062"/></linearGradient><linearGradient id="linear-gradient-2" x1="888.26" y1="5439.03" x2="814.07" y2="5179.36" gradientTransform="translate(836.34 1788.15) rotate(180)" xlink:href="#linear-gradient"/><linearGradient id="linear-gradient-3" x1="1595.82" y1="819.52" x2="1561.53" y2="699.48" xlink:href="#linear-gradient"/><linearGradient id="linear-gradient-4" x1="-280.74" y1="2666.55" x2="-315.04" y2="2546.52" gradientTransform="translate(836.34 1788.15) rotate(180)" xlink:href="#linear-gradient"/><linearGradient id="linear-gradient-5" x1="3889.24" y1="222.27" x2="3914.73" y2="222.27" gradientTransform="matrix(1, 0, 0, -1, -3363.65, 1788.15)" gradientUnits="userSpaceOnUse"><stop offset="0" stop-color="#febbba"/><stop offset="1" stop-color="#ff928e"/></linearGradient><linearGradient id="linear-gradient-6" x1="3797.29" y1="223.52" x2="3819.32" y2="223.52" xlink:href="#linear-gradient-5"/><linearGradient id="linear-gradient-7" x1="1048.3" y1="1026.11" x2="1093.31" y2="897.51" gradientTransform="translate(1827.59 1788.15) rotate(180)" xlink:href="#linear-gradient-5"/><linearGradient id="linear-gradient-8" x1="1082.88" y1="943.95" x2="1048.98" y2="1012.33" gradientTransform="translate(1827.59 1788.15) rotate(180)" xlink:href="#linear-gradient-5"/><linearGradient id="linear-gradient-9" x1="3709.09" y1="703.11" x2="3874.01" y2="703.11" xlink:href="#linear-gradient-5"/><linearGradient id="linear-gradient-10" x1="498.08" y1="1067.68" x2="549.52" y2="1067.68" gradientTransform="matrix(1, 0, 0, 1, 0, 0)" xlink:href="#linear-gradient-5"/><linearGradient id="linear-gradient-11" x1="3835.69" y1="879.44" x2="3900.86" y2="879.44" xlink:href="#linear-gradient-5"/><linearGradient id="linear-gradient-12" x1="-2255.29" y1="1521.71" x2="-2279.66" y2="1602.08" gradientTransform="matrix(0.75, -0.67, -0.67, -0.75, 3248.48, 500.61)" xlink:href="#linear-gradient-5"/><linearGradient id="linear-gradient-13" x1="-2280.2" y1="1522.09" x2="-2302.12" y2="1594.39" gradientTransform="matrix(0.75, -0.67, -0.67, -0.75, 3248.48, 500.61)" xlink:href="#linear-gradient-5"/><linearGradient id="linear-gradient-14" x1="539.49" y1="988.15" x2="548.66" y2="988.15" gradientTransform="matrix(1, 0, 0, -1, 0, 1788.15)" gradientUnits="userSpaceOnUse"><stop offset="0" stop-color="#dae3fe"/><stop offset="1" stop-color="#e9effd"/></linearGradient></defs><title>Asset 3</title><g id="Layer_2" data-name="Layer 2"><g id="Layer_1-2" data-name="Layer 1"><path d="M421.62,1353.85C192.45,1355.08,5.72,1162.79,4.54,924.38L0,3.56,665.57,0c229.18-1.23,415.91,191.05,417.08,429.47l4.54,920.82Z" style="fill:#cdebd9"/><g id="gray-leaf3"><path d="M522.25,413.51S498.5,435.89,554,483.19s89.23,68.3,89.23,68.3,11.18,11.88.31,18.86-38.33,13.59-37.66,30c.66,17.21,17.48,26.81,44.4,30.15,27.24,3.19,86,12.41,91.26,13.29s11.94,5.55,5.46,11.59-62.38,36.11-46.23,61.67c15.84,25.72,92.86,22.23,101.31,22s11.42,2.07,12.37,6.47c1.26,4.25-18.69,12.53-34,22-15.46,9.14-31.76,22.79-21.52,36.6,10.38,14.12,63.55,30.45,163.52-.26l45.21-17.2,8.67-48.07c12.22-103.8-13.33-153.28-28.84-160.88-15.67-7.9-25.9,10.71-32.18,27.47s-11.28,37.74-15.5,37.5-7.32-2.89-8.64-11.22-11.45-84.44-39.56-95.8c-27.94-11.06-47.74,49-52.45,56.4s-10.75,1.71-12.43-3.46-21.2-61.58-29.34-87.57c-7.85-26.13-20.32-40.75-37.13-38.43-16.48,2.18-18.05,30.51-22.86,42.46-5.1,12.1-18.46,2.74-18.46,2.74s-26.47-29.28-83-75.7-74.55-18.18-74.55-18.18" style="fill:#ebebeb"/><path d="M974.63,796.05C933.2,761.89,861,699.72,798.45,646.82S679.36,546,638.22,511.7c-20.41-17.22-37.29-30.89-48.67-40.81-5.62-4.81-10.36-8.54-13.33-10.87a22.45,22.45,0,0,0-3.55-2.79,3.66,3.66,0,0,0-1.19-.94,3.66,3.66,0,0,1,1.19.94,21.87,21.87,0,0,0,3.55,2.79c3.11,2.64,7.71,6.06,13.33,10.87,11.54,9.48,28.42,23.14,49.14,40.22,41.45,34.15,98,82.08,160.39,134.67C861.65,698.68,933.83,760.85,975,795.15" style="fill:#e0e0e0"/></g><g id="gray-leaf2"><path d="M856,204s-32.63-.17-25.09,72.33,17.51,111,17.51,111-.09,16.32-12.78,13.88-37.13-16.59-48-4.21c-11.4,12.92-5.83,31.47,11.36,52.45,17.52,21.1,53.72,68.3,56.92,72.56s4.81,12.26-4,12.16-70.07-16.87-76,12.78c-6.27,29.54,51.91,80.13,58.21,85.78s6.84,9.37,4.5,13.22c-2,3.94-22.19-3.82-39.79-7.53-17.5-4-38.72-5.4-40.83,11.67-2.22,17.38,25,65.87,118.6,112.58l44.59,18.72,39.44-28.84c80.43-66.74,96.05-120.18,90.06-136.38-5.9-16.53-26.14-10.1-42.24-2.3s-34.21,19.55-37.09,16.46-3.31-7.14,1.48-14.08,49.94-69,37.42-96.65c-12.61-27.29-68.35,2.53-76.88,4.67s-9-6.18-6.62-11.08,27.12-59.22,39.15-83.65c12.34-24.33,13.38-43.53-.39-53.43-13.44-9.79-34.1,9.64-45.83,15-12,5.24-15.26-10.75-15.26-10.75s1-39.46-7.91-112.07-41.45-64.58-41.45-64.58" style="fill:#ebebeb"/><path d="M919.8,793c-6.45-53.31-15.85-148.1-24.68-229.56s-16.7-155.14-22.85-208.35c-2.9-26.55-5.7-48.09-7.1-63.12-.75-7.36-1.61-13.33-2.15-17.06a22.51,22.51,0,0,0-.65-4.48,3.34,3.34,0,0,0-.22-1.49,3.34,3.34,0,0,1,.22,1.49,22.16,22.16,0,0,0,.65,4.48c.43,4.05,1.4,9.7,2.15,17.06,1.82,14.82,4.62,36.35,7.85,63,6.46,53.32,14.33,127,23.27,208.13,8.84,81.46,18.23,176.26,24.36,229.46" style="fill:#e0e0e0"/></g><g id="gray-leaf1"><path d="M1562,883.49c-83.61-42.13-115.28-138.13-125.07-227.28-1.64-14.7-5.56-30.37-.33-44.09,5.22-14,20.24-25.15,34.28-20.9,11.76,3.59,18.3,15.68,26.13,25.47a87.29,87.29,0,0,0,39.52,28.09c10.11,3.59,22.2,4.89,30.69-1.64,11.76-8.81,10.78-26.78,8.5-41.47-4.25-27.43-8.17-54.86-12.42-82.29-2.28-14.7-4.57-29.72-2-44.41s10.78-29.07,24.17-35,32-.32,36.91,13.72c1.95,5.88,1.62,12.08,2.93,18.29s5.22,12.41,11.11,13.39c6.19,1,11.42-4.25,15-9.15,13.06-17,20.57-37.55,27.42-58.13s13.39-41.14,24.83-59.43,28.72-33.63,49.63-37.88,45.06,5.55,53.55,25.47-.65,42.78-11.42,61.39a337.92,337.92,0,0,1-58.78,75.11c-4.26,3.92-8.83,8.17-9.81,14-1.62,10.13,8.83,18.62,18.95,20.58,11.43,2,23.19-.65,34.94-1s24.82,2.94,30.7,13.06c8.16,14-2,31.68-13.07,43.76A284,284,0,0,1,1722,633.35c-10.13,5.55-21.23,10.77-28.74,19.59s-11.09,22.86-4.24,32.33,20.89,11.1,31.68,7.18c11.1-3.59,20.23-11.43,30.36-17,19.27-10.45,45.4-13.06,60.74,2.61,10.12,10.13,13.4,26.13,10.78,40.5-2.29,14.37-9.47,27.43-17,39.51-26.78,42.78-64,79.36-108.41,102.21C1653.75,883.16,1611,893.94,1562,883.49Z" style="fill:#f5f5f5"/><path d="M1576.67,824.71c6.54-46.7,18-97,31.68-149.56,3.6-13.07,6.87-26.13,10.46-38.86,3.26-12.74,6.85-25.47,10.77-37.56A692.47,692.47,0,0,1,1657,530.48c9.79-21.23,19.92-41.14,29.38-59.76s18.94-35.59,28.09-50.61a524.24,524.24,0,0,1,48.33-68.58c6.2-7.51,11.43-13.39,15-17.31,1.64-2,2.94-3.27,3.92-4.24l1.31-1.31a7.39,7.39,0,0,1-1.31,1.63c-1,1-2.28,2.61-3.92,4.57-3.27,3.92-8.17,9.8-14.36,17.64a520.82,520.82,0,0,0-47.36,68.9q-13.23,23-27.44,50.94c-9.46,18.62-19.25,38.54-29.06,59.76a620.85,620.85,0,0,0-27.1,68.26q-5.88,18.12-10.77,37.22c-3.27,12.74-6.87,25.8-10.45,38.86-13.72,52.25-25.15,102.54-32,149.24" style="fill:#e0e0e0"/><path d="M1630.57,599.06c-.33,0-1-2-2.29-6.21-1.3-3.92-3.26-9.79-5.22-17-4.25-14.37-9.48-34.29-15-56.49s-11.09-41.8-15.34-56.17c-2.28-7.18-3.92-12.73-5.23-17-1.31-3.92-2-6.2-1.63-6.2s1,2,2.61,5.87,3.59,9.47,6.2,16.66c4.9,14,10.45,34,16.34,56.17,5.55,21.87,10.45,41.47,14,56.49,1.62,6.86,3.26,12.41,4.24,17S1630.57,599.06,1630.57,599.06Z" style="fill:#e0e0e0"/><path d="M1814.41,536.36c0,.33-2.61,1-7.51,2s-11.76,2.61-20.25,4.9c-17,4.24-40.49,11.1-65.63,19.92-25.47,8.81-48,17.63-64.34,24.49-8.16,3.27-14.69,6.21-19.27,8.16s-7.17,2.94-7.17,2.94c0-.32,2.28-1.63,6.53-3.92s10.77-5.55,18.94-9.14a684.88,684.88,0,0,1,64-25.47A648.33,648.33,0,0,1,1786,540.93c8.49-2,15.66-3.26,20.57-4.24C1811.8,536.36,1814.41,536,1814.41,536.36Z" style="fill:#e0e0e0"/><path d="M1818,703.56a7.49,7.49,0,0,1-2.28,1.31,68,68,0,0,0-6.87,3.59c-6.53,3.26-15,7.51-25.79,12.73-21.55,10.78-51.27,25.8-84.26,42.46s-62.7,31.35-84.57,41.8c-10.78,5.22-19.93,9.14-26.13,11.75-2.93,1.31-5.23,2.29-7.19,2.94-1.63.65-2.61,1-2.61,1a7.48,7.48,0,0,1,2.29-1.31,73.55,73.55,0,0,0,6.86-3.59c6.53-3.26,15-7.51,25.8-12.73,21.55-10.78,51.27-25.8,84.25-42.46s62.7-31.35,84.58-41.8c10.77-5.22,19.92-9.14,26.13-11.75,2.93-1.31,5.21-2.29,7.17-2.94C1817,703.88,1818,703.56,1818,703.56Z" style="fill:#e0e0e0"/></g><g id="smallplant"><path d="M173.54,1391.92c10.45,2.95,18.6,10.78,23.83,20.25,4.9,9.47,6.85,20.25,7.19,31,.64,20.57-7.85,42.78-18,61.07-19.27-12.41-27.1-37.88-30-51.27C151.65,1431.76,155.25,1391.28,173.54,1391.92Z" style="fill:#0acc86"/><path d="M211.4,1534.63c-4.57-11.11-1.3-24.49,6.21-33.64,7.83-9.13,19.59-14.36,31.34-15,5.55-.32,11.76.34,15.36,4.25s3.91,9.79,2.28,14.7-5.22,8.81-9.15,12.07C244.06,1528.43,229,1536.92,211.4,1534.63Z" style="fill:#0acc86"/><path d="M198.35,1599.94v-4.24c0-2.94.32-6.86.32-11.44.66-9.79,1-23.51,6.53-37.87,5.23-14,14-25.15,21.89-31.36a56.67,56.67,0,0,1,9.79-6.19c1.31-.66,2.29-1,2.94-1.32a2.55,2.55,0,0,1,1-.32c.33.32-5.88,2.28-13.07,8.49-7.51,6.21-16,17-21.21,31s-5.89,27.76-6.87,37.23c-.32,4.9-.64,8.82-1,11.43C198.67,1598.64,198.67,1599.94,198.35,1599.94Z" style="fill:#263238"/><path d="M173.53,1423a4.09,4.09,0,0,1,.32,1.64,48.45,48.45,0,0,1,1,5.22c1,4.57,2.29,11.1,3.59,19.27,2.94,16.32,6.53,38.53,10.13,63.67,3.59,24.83,6.21,47.36,7.84,64,1,8.15,1.63,14.68,2,19.25a34.66,34.66,0,0,1,.32,5.23v2a4.81,4.81,0,0,1-.32-2c-.33-1.31-.33-2.93-.66-5.23-.65-4.89-1.3-11.42-2.29-19.25-2-16.34-4.9-38.87-8.15-63.69-3.6-24.82-7.19-47.35-9.81-63.68-1.3-7.83-2.28-14.36-3.26-19.26a44.16,44.16,0,0,1-.65-5.23C173.53,1423.61,173.2,1423,173.53,1423Z" style="fill:#263238"/><path d="M183.65,1551.28c-7.51-24.16-27.42-43.76-51.27-51.27-6.21-2-13.72-2.6-18,2.3s-2,12.4,1.3,18c13.07,23.19,41.48,36.91,67.93,32.66" style="fill:#0acc86"/><path d="M137.93,1518.63l3.92,1c1.31.33,2.61,1,4.57,1.63a27,27,0,0,1,5.55,2.62c2,1,4.26,2.28,6.54,3.59a68.91,68.91,0,0,1,7.18,4.9,80.11,80.11,0,0,1,14.37,13.72,78.87,78.87,0,0,1,10.44,17c1.32,2.93,2.3,5.55,3.28,8.16a33.54,33.54,0,0,1,1.95,7.18,52.63,52.63,0,0,1,1.31,6.21c.33,2,.33,3.26.65,4.57.33,2.62.33,3.92,0,3.92s-.65-5.56-2.93-14.7c-.66-2.28-1.31-4.57-2.28-7.18s-2-5.23-3.28-7.84a94,94,0,0,0-10.44-16.66,111.46,111.46,0,0,0-14-13.71,44.16,44.16,0,0,0-6.86-4.9,45,45,0,0,0-6.53-3.6C143.16,1520.59,137.61,1519,137.93,1518.63Z" style="fill:#263238"/></g><path d="M1480.64,1458.37c-21.05,22.14-41,36.4-56.67,47.68-184.82,132.59-403.53,94-450,84.5-68.62-14-201.32-40.9-297.26-153.7-145.13-170.67-122.52-439.52-10-617,20.58-32.48,129.36-212.65,350.43-241.53,133.8-17.5,289.74,17.81,402.65,112.38C1656.89,889.33,1640,1290.57,1480.64,1458.37Z" style="fill:#f9f9f9"/><g id="green-leaf2"><path d="M1194.74,926.35a92.37,92.37,0,0,0-74-55.68c-35.08-4.35-72.6-17.53-107.95-39.76C920,772.52,877,673.88,916.79,610.73S1064,543.64,1156.88,602a285.68,285.68,0,0,1,48.2,38,91,91,0,0,0,80.62,25,116.68,116.68,0,0,1,138.19,115.15,91.45,91.45,0,0,0,23.93,62.2c44.12,48.26,58.12,110.46,29.77,155.46-36.23,57.64-128.13,65-205.29,16.45C1235.53,991.06,1208.75,959.38,1194.74,926.35Z" style="fill:#bdefd1"/><path d="M1579.62,1080.92a4.6,4.6,0,0,0-.47-4.82c-56-70.43-170.08-153.42-256-210.59-92.92-61.86-173.75-107.75-174.56-108.22a4.49,4.49,0,1,0-4.42,7.82c3.19,1.83,322.07,183.4,427.91,316.56a4.54,4.54,0,0,0,6.32.75A4.13,4.13,0,0,0,1579.62,1080.92Z" style="fill:#02aa59"/></g><g id="green-leaf1"><path d="M1286,604.14a92.44,92.44,0,0,0-30.73-87.28c-26.78-23.05-50.71-54.79-67.84-92.93-45-100.06-26.17-206,41.94-236.55S1389.16,213,1434.09,313.07a290.73,290.73,0,0,1,19.1,58.32,91,91,0,0,0,53.36,65.39,116.7,116.7,0,0,1,51.25,172.39,91.45,91.45,0,0,0-14.54,65.05c10.06,64.58-12.78,124.19-61.25,145.95-62.06,27.94-142.68-16.86-180.07-99.93C1284.13,680.61,1279.37,639.42,1286,604.14Z" style="fill:#bdefd1"/><path d="M1520.89,946a4.36,4.36,0,0,0,2.25-4.28c-7.62-89.59-56.7-221.88-96.6-317.11-43.09-103-85-185.91-85.44-186.73a4.5,4.5,0,1,0-8,4.08c1.63,3.26,166.67,331,181.08,500.51a4.51,4.51,0,0,0,4.9,4.14A7,7,0,0,0,1520.89,946Z" style="fill:#02aa59"/></g><g id="park-board"><rect x="1556.78" y="794.13" width="34.33" height="710.76" style="fill:#606060"/><path d="M1716.46,965.16a69.46,69.46,0,0,1-69.47,69.47H1491.66a69.47,69.47,0,0,1-69.47-69.47V809.83a69.47,69.47,0,0,1,69.47-69.47H1647a69.47,69.47,0,0,1,69.47,69.47Z" style="fill:#fff"/><path d="M1700.35,809.77a54.51,54.51,0,0,0-54.52-54.52H1491.6a54.51,54.51,0,0,0-54.52,54.52V963.94a54.51,54.51,0,0,0,54.52,54.51h154.17a54.5,54.5,0,0,0,54.51-54.51V809.77Z" style="fill:#cef4e1"/><path d="M1508.59,805.82c11.62-2,28-3.46,51.12-3.46,23.31,0,39.9,4.48,51.12,13.39,10.67,8.43,17.87,22.29,17.87,38.68s-5.43,30.25-15.36,39.69c-12.91,12.17-32,17.61-54.31,17.61a98.12,98.12,0,0,1-12.92-.75v59.75h-37.52ZM1546,881.75a57.1,57.1,0,0,0,12.65,1c20.12,0,32.49-10.19,32.49-27.26,0-15.36-10.67-24.53-29.5-24.53-7.68,0-12.92.74-15.64,1.49v49.28Z" style="fill:#02aa59"/></g><g id="bigcar"><path d="M797,1449.15a41.76,41.76,0,0,0-41.74-41.74H736.65a41.75,41.75,0,0,0-41.73,41.74V1560.5a41.74,41.74,0,0,0,41.73,41.73h18.56A41.75,41.75,0,0,0,797,1560.5Z" style="fill:#263238"/><path d="M1372,1449.15a41.76,41.76,0,0,0-41.74-41.74h-18.56a41.75,41.75,0,0,0-41.73,41.74V1560.5a41.74,41.74,0,0,0,41.73,41.73h18.56A41.75,41.75,0,0,0,1372,1560.5Z" style="fill:#263238"/><path d="M750.38,1240.33c-1.22-.27-2.85-1.36-2.85-2.65v-8.57c0-8.29-3.94-15.84-11.35-19.51a33.93,33.93,0,0,0-30-.47l-16.86,8.29c-8.5,3.94-12.91,12.44-12.91,21.82v6.53c0,12,8.15,22.23,20.05,23.86l72.67,9.92,8.49-33.24Z" style="fill:url(#linear-gradient)"/><path d="M1320.3,1240.33a2.76,2.76,0,0,0,2.17-2.65v-8.57a21.75,21.75,0,0,1,12-19.51,34.64,34.64,0,0,1,30.31-.47l18.7,8.29c8.49,3.94,14.75,12.44,14.75,21.82v6.53c0,12-9.79,22.23-21.76,23.86l-73.48,9.92-9.24-33.24Z" style="fill:url(#linear-gradient-2)"/><path d="M1373.59,1314c-10.61-35.69-65.19-68.79-65.19-68.79s-45.82-140.65-95.17-140.65H857.45c-49.35,0-95.17,140.65-95.17,140.65s-54.65,33-65.19,68.72c-7.75,26.1,9,126.77,18.63,178.57,3.4,18.29,20.59,32.49,40.71,32.49h557.88c20.13,0,37.32-14.2,40.72-32.49C1364.62,1440.65,1381.34,1340,1373.59,1314Z" style="fill:#0acc86"/><path d="M1366.72,1463.36c-3.06-3.54-7.75-6.46-12.71-6.46H716.6c-5,0-9.58,2.92-12.64,6.39a14.54,14.54,0,0,0-3.13,12.85l10.4,42.55c1.7,6.66,8.23,12.51,15.84,12.51h616a16.76,16.76,0,0,0,15.77-12.1l10.94-42.28A15.27,15.27,0,0,0,1366.72,1463.36Z" style="fill:#02aa59"/><path d="M863.16,1399.53s-15.84-47.58-35.83-51.73-104.54-21.75-106.31-7.07-18.83,65.19,31.74,69.88S871.31,1419.24,863.16,1399.53Z" style="fill:#fff"/><path d="M1207.46,1399.53s15.83-47.58,35.82-51.73,104.55-21.75,106.31-7.07,18.83,65.19-31.74,69.88S1199.37,1419.24,1207.46,1399.53Z" style="fill:#fff"/><path d="M1196.1,1358.2c-1.63-2.52-4.41-4.83-7.47-4.83H882.05c-3.12,0-6,2.38-7.61,5.1a9.43,9.43,0,0,0-.2,9.11L891.5,1401c6.39,12.1,19,20.46,32.63,20.46H1149.4c14.55,0,27.81-9.18,33.72-22.5l13.73-31.54A10.58,10.58,0,0,0,1196.1,1358.2Z" style="fill:#02aa59"/><path d="M1279.58,1257a11.05,11.05,0,0,1-9,5.24H800.08a11.15,11.15,0,0,1-9.11-5.37,11,11,0,0,1-.62-10.54c10.68-22.5,30.73-64.24,41.95-87.55a30.15,30.15,0,0,1,27-17.06h355.79a29.85,29.85,0,0,1,25.42,14.13,34.77,34.77,0,0,1,2,3.88l37.86,87A10.83,10.83,0,0,1,1279.58,1257Z" style="fill:#fff"/><path d="M1240.56,1155.7c-25,4.89-98.16,17.2-208.62,17.2-111.34,0-176.74-12.51-197.88-17.34a29.88,29.88,0,0,1,25.29-13.93h355.79A30.14,30.14,0,0,1,1240.56,1155.7Z" style="fill:#f9f9f9"/><path d="M855.61,1334.82a1.74,1.74,0,0,1-1.22-.48l-61-57.71a1.78,1.78,0,0,1,2.45-2.59l61,57.72a1.81,1.81,0,0,1,.06,2.51A1.85,1.85,0,0,1,855.61,1334.82Z" style="fill:#fff"/><path d="M1210.58,1334.82a1.87,1.87,0,0,1-1.29-.55,1.8,1.8,0,0,1,.07-2.51l61-57.72a1.78,1.78,0,1,1,2.45,2.59l-61,57.71A2.15,2.15,0,0,1,1210.58,1334.82Z" style="fill:#fff"/></g><g id="smallcar"><path d="M1509.54,1479.2a19.29,19.29,0,0,0-19.3-19.31h-8.57a19.29,19.29,0,0,0-19.3,19.31v51.45a19.29,19.29,0,0,0,19.3,19.31h8.57a19.29,19.29,0,0,0,19.3-19.31Z" style="fill:#263238"/><path d="M1775.33,1479.2a19.29,19.29,0,0,0-19.31-19.31h-8.56a19.3,19.3,0,0,0-19.31,19.31v51.45a19.3,19.3,0,0,0,19.31,19.31H1756a19.29,19.29,0,0,0,19.31-19.31Z" style="fill:#263238"/><path d="M1488,1382.67c-.61-.14-1.29-.61-1.29-1.22v-4a9.85,9.85,0,0,0-5.23-9,15.56,15.56,0,0,0-13.87-.2l-7.75,3.8c-3.94,1.84-6,5.78-6,10.07v3a10.79,10.79,0,0,0,9.24,11l33.58,4.62,4-15.36Z" style="fill:url(#linear-gradient-3)"/><path d="M1751.47,1382.67a1.24,1.24,0,0,0,1-1.22v-4a10.11,10.11,0,0,1,5.5-9,15.86,15.86,0,0,1,14-.2l8.63,3.8a11.48,11.48,0,0,1,6.8,10.07v3c0,5.57-4.56,10.26-10.06,11l-34,4.62-4.28-15.36Z" style="fill:url(#linear-gradient-4)"/><path d="M1776.08,1416.66c-4.9-16.52-30.12-31.82-30.12-31.82s-21.21-65-44-65h-164.5c-22.84,0-44,65-44,65s-25.29,15.3-30.11,31.75c-3.61,12,4.14,58.59,8.63,82.52,1.56,8.43,9.52,15,18.83,15h257.9c9.31,0,17.27-6.59,18.83-15C1771.93,1475.25,1779.68,1428.76,1776.08,1416.66Z" style="fill:#0acc86"/><path d="M1772.88,1485.79a8.24,8.24,0,0,0-5.91-3H1472.29a8.3,8.3,0,0,0-5.85,2.92,6.55,6.55,0,0,0-1.42,5.91l4.82,19.65a7.83,7.83,0,0,0,7.34,5.78h284.76a7.69,7.69,0,0,0,7.27-5.58l5-19.57A6.69,6.69,0,0,0,1772.88,1485.79Z" style="fill:#02aa59"/><path d="M1540.13,1456.29s-7.34-22-16.59-23.93-48.33-10.06-49.14-3.26-8.7,30.11,14.68,32.29S1543.87,1465.4,1540.13,1456.29Z" style="fill:#fff"/><path d="M1699.26,1456.29s7.34-22,16.59-23.93,48.33-10.06,49.15-3.26,8.7,30.11-14.69,32.29S1695.52,1465.4,1699.26,1456.29Z" style="fill:#fff"/><path d="M1694,1437.12a4.5,4.5,0,0,0-3.47-2.25H1548.83a4.66,4.66,0,0,0-3.67,6.6l7.95,15.43a17.52,17.52,0,0,0,15.09,9.45h104.21A17.34,17.34,0,0,0,1688,1456l6.32-14.55A4.74,4.74,0,0,0,1694,1437.12Z" style="fill:#02aa59"/><path d="M1732.64,1390.35a5.13,5.13,0,0,1-4.15,2.38H1511a5.15,5.15,0,0,1-4.49-7.34c5-10.4,14.21-29.71,19.37-40.52a8,8,0,0,1,.82-1.42,13.79,13.79,0,0,1,11.69-6.46h164.44a13.91,13.91,0,0,1,11.76,6.52,15,15,0,0,1,.95,1.77l17.47,40.18A5.63,5.63,0,0,1,1732.64,1390.35Z" style="fill:#fff"/><path d="M1714.56,1343.58c-11.49,2.25-45.34,8-96.46,8-51.46,0-81.71-5.78-91.5-8a13.81,13.81,0,0,1,11.7-6.45h164.43A13.62,13.62,0,0,1,1714.56,1343.58Z" style="fill:#f9f9f9"/><path d="M1536.6,1426.31a.81.81,0,0,1-.55-.2l-28.21-26.65a.82.82,0,0,1,1.16-1.16l28.21,26.65a.79.79,0,0,1,0,1.16A.86.86,0,0,1,1536.6,1426.31Z" style="fill:#fff"/><path d="M1700.69,1426.31a.84.84,0,0,1-.61-.27.85.85,0,0,1,0-1.16l28.21-26.64a.81.81,0,0,1,1.15,1.15L1701.23,1426A.62.62,0,0,1,1700.69,1426.31Z" style="fill:#fff"/></g><g id="person"><path d="M620.28,1604.28l-78.45-36L528,1566s-3,16.85-4.42,33.51Z" style="fill:#0edb88"/><path d="M525.59,1556.08,528,1576.2s13.73,6.39,23.11-.81L545.37,1553Z" style="fill:url(#linear-gradient-5)"/><path d="M527.35,1177.46c-1,5.23-5.57,262.45,22,377.74a3.83,3.83,0,0,1-2.31,4.55,69,69,0,0,1-22.36,4.56,6.68,6.68,0,0,1-6.67-4.83c-7.88-26.71-45.54-160.69-50.43-288.69-5.51-143,0-4.9,0-4.9l3.19-88.43Z" style="fill:#343f44"/><path d="M469.24,1608c-1-8.23-4.15-21.76-13.74-32.29l-17.67-1s-4.76,8.49-9.31,31.06Z" style="fill:#0edb88"/><path d="M433.62,1548.88l5.57,30.45s5.51,4.08,16.45,1.16L453,1547.72Z" style="fill:url(#linear-gradient-6)"/><path d="M418.59,1185.34c-22.5,135.68,4.9,335.39,14.14,374.48a6.11,6.11,0,0,0,4.9,4.62,41.5,41.5,0,0,0,17.6-.68,5.53,5.53,0,0,0,4-5.16c1.23-31.61-1-225.62,20-302.22a17.54,17.54,0,0,1,6.73-9.59l40.65-28.89,3.12-46.7Z" style="fill:#263238"/><path d="M561.82,928.25c-67.37-1.08-141.73,17.68-141.73,17.68-20,117.19-3.54,252.39-3.54,252.39,52.14,13.67,111-8.36,111-8.36,8.7-49,49.15-186.86,49.15-186.86,32.9-4.08,60-13.6,82.38-26.17C642,957.14,634,932.06,630.54,917.17,606.75,924.58,582.62,928.59,561.82,928.25Z" style="fill:#0acc86"/><path d="M760.85,828.94a12.88,12.88,0,0,0-15-4.21c-9.92,41.87-61.93,75.86-115.36,92.44,3.47,14.89,11.49,40,28.55,59.76C747.73,927.1,760.85,828.94,760.85,828.94Z" style="fill:#0acc86"/><path d="M759.29,831c.68,2.18-7.34,5.58-12-3.47-.14-4.28-2.79-22.84-.21-26.3,13.73-18.7,40.38-42.22,40.38-42.22a6.42,6.42,0,0,1,.82,8.84l-12.92,13.46c2.72,4.89,6,9,7.55,14.89A18,18,0,0,1,781,809.5,154.54,154.54,0,0,1,772.75,823C767.17,831,759.29,831,759.29,831Z" style="fill:url(#linear-gradient-7)"/><path d="M769.62,790.06l-11.76,10L754.19,810l10.47,11.62s3.53-19.71,6.19-24S772.07,791.28,769.62,790.06Z" style="fill:url(#linear-gradient-8)"/><path d="M445.92,1011.19l-25.83-65.26s-62.95,42.76-73.28,97c11.9.88,33.51,3.94,54.72,14.68C406.15,1032,445.92,1011.19,445.92,1011.19Z" style="fill:#0acc86"/><path d="M501,1072.57s-70.69,40-94.49,5.84c-5-7.07-6.11-14.14-4.89-20.8-21.21-10.67-42.83-13.8-54.72-14.68a74.6,74.6,0,0,0,8.16,51.32c41.73,76.41,155.32-4.21,155.32-4.21Z" style="fill:url(#linear-gradient-9)"/><path d="M492.48,1123.07,531,988.41a4,4,0,0,1,3.33-2.85c7-.82,27.25-3.13,50.64-5.1,28.14-2.38,60.84-4.28,80.41-2.65a3.88,3.88,0,0,1,3.2,5.64c-11.08,22.5-56.83,113.93-79.74,143.91a3.85,3.85,0,0,1-3.19,1.56l-89.46-.82A3.92,3.92,0,0,1,492.48,1123.07Z" style="fill:#263238"/><path d="M501.8,1090.51s-5.37-22.09-3.2-29.91,6.39-17.94,20.39-15.7,30.53,8.16,30.53,8.16-.82,10.2-11.49,6.93l6.59,5.1s-1,8.16-9.92,3.81l6.11,6.79s-3.87,6.73-10.46,2.38S520.49,1093.23,501.8,1090.51Z" style="fill:url(#linear-gradient-10)"/><path d="M493.57,873.53l-21.41,62a2.31,2.31,0,0,0,1,2.72c5.84,3.26,26.92,12.57,52.27-3.54a10.57,10.57,0,0,0,4.83-7.54l6.93-53.64Z" style="fill:url(#linear-gradient-11)"/><path d="M540.2,816.09s23.52,44.32,20.53,62.2-32.22,16.59-57.64,2.11l-17.81-47.86Z" style="fill:url(#linear-gradient-12)"/><path d="M525.25,778.91c-25.7,14.75-50.51,24.81-56.15,37.18s-5.91,19.17-1.77,22.71,0,30.38,22.71,39.42h0a9.21,9.21,0,0,0,12.44-10.33l-2.11-10.67s.88,1.22,4.15,1-2.25-7.89-3.61-11-6.25-11.08,1.63-11.22,41.54-4.89,49.69-17.88S550.94,764.16,525.25,778.91Z" style="fill:#757575"/><path d="M506.89,859.67s-16.79-11.49-18-1.84,15.09,14,23.18,10.4Z" style="fill:url(#linear-gradient-13)"/><g style="opacity:0.800000011920929"><path d="M543.13,817.59a.81.81,0,0,1-.55-.2.87.87,0,0,1-.07-1.23c.48-.54,11.56-13.86-2.78-32.35a.92.92,0,0,1,.13-1.23.94.94,0,0,1,1.23.14c15.22,19.64,2.85,34.46,2.72,34.6A1.27,1.27,0,0,1,543.13,817.59Z" style="fill:url(#linear-gradient-14)"/></g></g><path d="M1755.85,1185.87c0-19.49-20.45-31.93-41.37-22.12a24,24,0,0,0-11,10.52c-5.26,10.17-3,21.77,1.8,31.45l16.26,41.26a7,7,0,0,0,13,0l15.91-41.5C1756.09,1192.93,1755.85,1185.87,1755.85,1185.87Zm-19.61,17c-14,8.13-28.34-6.93-20.57-21.88a13.06,13.06,0,0,1,4.42-4.78c14.11-8.14,28.35,6.93,20.57,21.88A10.72,10.72,0,0,1,1736.24,1202.85Z" style="fill:#f5f5f5"/><path d="M416.25,640.87c0-48.87-51.27-80-103.73-55.47a60.29,60.29,0,0,0-27.59,26.38c-13.19,25.49-7.49,54.57,4.5,78.85L330.2,794.07c6,15,27,14.69,32.68,0l39.88-104C416.85,658.55,416.25,640.87,416.25,640.87Zm-49.17,42.57C332,703.83,296,666.05,315.51,628.57a33,33,0,0,1,11.1-12C362,596.2,397.66,634,378.17,671.45A26.9,26.9,0,0,1,367.08,683.44Z" style="fill:#f5f5f5"/></g></g></svg>