<svg xmlns="http://www.w3.org/2000/svg" viewBox="0 0 138.89 228.39"><title>Asset 1</title><g id="Layer_2" data-name="Layer 2"><g id="Layer_1-2" data-name="Layer 1"><path d="M138.89,64.06c0-48.87-51.27-80-103.73-55.47A60.24,60.24,0,0,0,7.57,35C-5.62,60.46.08,89.54,12.07,113.82L52.84,217.26c6,15,27,14.69,32.68,0l39.88-104C139.48,81.74,138.89,64.06,138.89,64.06ZM89.71,106.63C54.64,127,18.66,89.24,38.15,51.76a33,33,0,0,1,11.09-12c35.38-20.39,71.06,17.39,51.57,54.86A26.84,26.84,0,0,1,89.71,106.63Z" style="fill:#f5f5f5"/></g></g></svg>